G04 #@! TF.GenerationSoftware,KiCad,Pcbnew,(5.1.4)-1*
G04 #@! TF.CreationDate,2020-12-20T16:29:44-05:00*
G04 #@! TF.ProjectId,circuit,63697263-7569-4742-9e6b-696361645f70,1*
G04 #@! TF.SameCoordinates,Original*
G04 #@! TF.FileFunction,Copper,L2,Bot*
G04 #@! TF.FilePolarity,Positive*
%FSLAX46Y46*%
G04 Gerber Fmt 4.6, Leading zero omitted, Abs format (unit mm)*
G04 Created by KiCad (PCBNEW (5.1.4)-1) date 2020-12-20 16:29:44*
%MOMM*%
%LPD*%
G04 APERTURE LIST*
%ADD10R,2.300000X2.300000*%
%ADD11C,2.300000*%
%ADD12C,0.800000*%
%ADD13C,5.000000*%
%ADD14R,1.000000X1.700000*%
%ADD15C,0.250000*%
%ADD16C,0.254000*%
G04 APERTURE END LIST*
D10*
X100301900Y-158072300D03*
D11*
X100291900Y-138102300D03*
D12*
X101851405Y-130964995D03*
X100525580Y-130415820D03*
X99199755Y-130964995D03*
X98650580Y-132290820D03*
X99199755Y-133616645D03*
X100525580Y-134165820D03*
X101851405Y-133616645D03*
X102400580Y-132290820D03*
D13*
X100525580Y-132290820D03*
D14*
X102171580Y-166682820D03*
X102171580Y-160382820D03*
X98371580Y-166682820D03*
X98371580Y-160382820D03*
D12*
X101826060Y-144424400D03*
D15*
X98371580Y-160032820D02*
X98371580Y-160382820D01*
X100271580Y-158132820D02*
X98371580Y-160032820D01*
X98371580Y-160382820D02*
X98371580Y-166682820D01*
X102226059Y-144824399D02*
X103122679Y-144824399D01*
X101826060Y-144424400D02*
X102226059Y-144824399D01*
X103122679Y-144824399D02*
X107175300Y-148877020D01*
X107175300Y-148877020D02*
X107175300Y-156923740D01*
X107175300Y-156923740D02*
X105605580Y-158493460D01*
X102171580Y-159282820D02*
X102171580Y-160382820D01*
X102960940Y-158493460D02*
X102171580Y-159282820D01*
X105605580Y-158493460D02*
X102960940Y-158493460D01*
X102171580Y-161482820D02*
X102171580Y-166682820D01*
X102171580Y-160382820D02*
X102171580Y-161482820D01*
D16*
G36*
X98498580Y-166555820D02*
G01*
X98518580Y-166555820D01*
X98518580Y-166682820D01*
X98391580Y-166682820D01*
X98391580Y-166535820D01*
X98498580Y-166535820D01*
X98498580Y-166555820D01*
X98498580Y-166555820D01*
G37*
X98498580Y-166555820D02*
X98518580Y-166555820D01*
X98518580Y-166682820D01*
X98391580Y-166682820D01*
X98391580Y-166535820D01*
X98498580Y-166535820D01*
X98498580Y-166555820D01*
G36*
X98527134Y-134725934D02*
G01*
X99040601Y-135069021D01*
X99611134Y-135305344D01*
X100216809Y-135425820D01*
X100834351Y-135425820D01*
X101440026Y-135305344D01*
X102010559Y-135069021D01*
X102524026Y-134725934D01*
X102704103Y-134545857D01*
X106609075Y-140012820D01*
X105400102Y-140012820D01*
X105383817Y-140010412D01*
X105335258Y-140012820D01*
X105319161Y-140012820D01*
X105302838Y-140014428D01*
X105253970Y-140016851D01*
X105238297Y-140020784D01*
X105222197Y-140022370D01*
X105175338Y-140036585D01*
X105127872Y-140048497D01*
X105113260Y-140055416D01*
X105097787Y-140060110D01*
X105054607Y-140083190D01*
X105010371Y-140104137D01*
X104997393Y-140113771D01*
X104983130Y-140121395D01*
X104945280Y-140152458D01*
X104905982Y-140181631D01*
X104895131Y-140193614D01*
X104882632Y-140203872D01*
X104851571Y-140241720D01*
X104818718Y-140278001D01*
X104810414Y-140291869D01*
X104800155Y-140304370D01*
X104777077Y-140347547D01*
X104751931Y-140389543D01*
X104746491Y-140404769D01*
X104738870Y-140419027D01*
X104724656Y-140465882D01*
X104708189Y-140511973D01*
X104705825Y-140527959D01*
X104701130Y-140543437D01*
X104696330Y-140592177D01*
X104689172Y-140640583D01*
X104689972Y-140656723D01*
X104688387Y-140672820D01*
X104693188Y-140721563D01*
X104695611Y-140770430D01*
X104699544Y-140786103D01*
X104701130Y-140802203D01*
X104715345Y-140849062D01*
X104727257Y-140896528D01*
X104734176Y-140911140D01*
X104738870Y-140926613D01*
X104761951Y-140969795D01*
X104768956Y-140984588D01*
X104777220Y-140998361D01*
X104800155Y-141041270D01*
X104810606Y-141054004D01*
X107995895Y-146362820D01*
X106670102Y-146362820D01*
X106653817Y-146360412D01*
X106605258Y-146362820D01*
X106589161Y-146362820D01*
X106572838Y-146364428D01*
X106523970Y-146366851D01*
X106508297Y-146370784D01*
X106492197Y-146372370D01*
X106445338Y-146386585D01*
X106397872Y-146398497D01*
X106383260Y-146405416D01*
X106367787Y-146410110D01*
X106324607Y-146433190D01*
X106280371Y-146454137D01*
X106267393Y-146463771D01*
X106253130Y-146471395D01*
X106215280Y-146502458D01*
X106175982Y-146531631D01*
X106165131Y-146543614D01*
X106152632Y-146553872D01*
X106121571Y-146591720D01*
X106088718Y-146628001D01*
X106080414Y-146641869D01*
X106070155Y-146654370D01*
X106055280Y-146682199D01*
X103686483Y-144313402D01*
X103662680Y-144284398D01*
X103546955Y-144189425D01*
X103414926Y-144118853D01*
X103271665Y-144075396D01*
X103160012Y-144064399D01*
X103160001Y-144064399D01*
X103122679Y-144060723D01*
X103085357Y-144064399D01*
X102797219Y-144064399D01*
X102743265Y-143934144D01*
X102629997Y-143764626D01*
X102485834Y-143620463D01*
X102316316Y-143507195D01*
X102127958Y-143429174D01*
X101927999Y-143389400D01*
X101724121Y-143389400D01*
X101524162Y-143429174D01*
X101335804Y-143507195D01*
X101166286Y-143620463D01*
X101022123Y-143764626D01*
X100908855Y-143934144D01*
X100830834Y-144122502D01*
X100791060Y-144322461D01*
X100791060Y-144526339D01*
X100830834Y-144726298D01*
X100908855Y-144914656D01*
X101022123Y-145084174D01*
X101166286Y-145228337D01*
X101335804Y-145341605D01*
X101524162Y-145419626D01*
X101724121Y-145459400D01*
X101801834Y-145459400D01*
X101933812Y-145529945D01*
X102077073Y-145573402D01*
X102188726Y-145584399D01*
X102188736Y-145584399D01*
X102226058Y-145588075D01*
X102263381Y-145584399D01*
X102807878Y-145584399D01*
X106415300Y-149191822D01*
X106415301Y-156608937D01*
X105290779Y-157733460D01*
X102998273Y-157733460D01*
X102960940Y-157729783D01*
X102923607Y-157733460D01*
X102811954Y-157744457D01*
X102668693Y-157787914D01*
X102536664Y-157858486D01*
X102420939Y-157953459D01*
X102397141Y-157982458D01*
X102054224Y-158325374D01*
X101928150Y-158199300D01*
X100428900Y-158199300D01*
X100428900Y-159698550D01*
X100587650Y-159857300D01*
X101033508Y-159858885D01*
X101033508Y-161232820D01*
X101045768Y-161357302D01*
X101082078Y-161477000D01*
X101141043Y-161587314D01*
X101220395Y-161684005D01*
X101317086Y-161763357D01*
X101411580Y-161813866D01*
X101411581Y-165251774D01*
X101317086Y-165302283D01*
X101220395Y-165381635D01*
X101141043Y-165478326D01*
X101082078Y-165588640D01*
X101045768Y-165708338D01*
X101033508Y-165832820D01*
X101033508Y-166682820D01*
X99506580Y-166682820D01*
X99506580Y-166555818D01*
X99347832Y-166555818D01*
X99506580Y-166397070D01*
X99509652Y-165832820D01*
X99497392Y-165708338D01*
X99461082Y-165588640D01*
X99402117Y-165478326D01*
X99322765Y-165381635D01*
X99226074Y-165302283D01*
X99115760Y-165243318D01*
X98996062Y-165207008D01*
X98871580Y-165194748D01*
X98657330Y-165197820D01*
X98498582Y-165356568D01*
X98498582Y-165197820D01*
X98391580Y-165197820D01*
X98391580Y-161867820D01*
X98498582Y-161867820D01*
X98498582Y-161709072D01*
X98657330Y-161867820D01*
X98871580Y-161870892D01*
X98996062Y-161858632D01*
X99115760Y-161822322D01*
X99226074Y-161763357D01*
X99322765Y-161684005D01*
X99402117Y-161587314D01*
X99461082Y-161477000D01*
X99497392Y-161357302D01*
X99509652Y-161232820D01*
X99506580Y-160668570D01*
X99347830Y-160509820D01*
X98498580Y-160509820D01*
X98498580Y-160529820D01*
X98391580Y-160529820D01*
X98391580Y-159755239D01*
X98394773Y-159722820D01*
X98382030Y-159593437D01*
X98344290Y-159469027D01*
X98283005Y-159354370D01*
X98244580Y-159307549D01*
X98244580Y-159056570D01*
X98498580Y-159056570D01*
X98498580Y-160255820D01*
X99347830Y-160255820D01*
X99506580Y-160097070D01*
X99507876Y-159859107D01*
X100016150Y-159857300D01*
X100174900Y-159698550D01*
X100174900Y-158199300D01*
X98675650Y-158199300D01*
X98516900Y-158358050D01*
X98514474Y-159040676D01*
X98498580Y-159056570D01*
X98244580Y-159056570D01*
X98085830Y-158897820D01*
X97871580Y-158894748D01*
X97747098Y-158907008D01*
X97627400Y-158943318D01*
X97517086Y-159002283D01*
X97443321Y-159062820D01*
X90007265Y-159062820D01*
X91291577Y-156922300D01*
X98513828Y-156922300D01*
X98516900Y-157786550D01*
X98675650Y-157945300D01*
X100174900Y-157945300D01*
X100174900Y-156446050D01*
X100428900Y-156446050D01*
X100428900Y-157945300D01*
X101928150Y-157945300D01*
X102086900Y-157786550D01*
X102089972Y-156922300D01*
X102077712Y-156797818D01*
X102041402Y-156678120D01*
X101982437Y-156567806D01*
X101903085Y-156471115D01*
X101806394Y-156391763D01*
X101696080Y-156332798D01*
X101576382Y-156296488D01*
X101451900Y-156284228D01*
X100587650Y-156287300D01*
X100428900Y-156446050D01*
X100174900Y-156446050D01*
X100016150Y-156287300D01*
X99151900Y-156284228D01*
X99027418Y-156296488D01*
X98907720Y-156332798D01*
X98797406Y-156391763D01*
X98700715Y-156471115D01*
X98621363Y-156567806D01*
X98562398Y-156678120D01*
X98526088Y-156797818D01*
X98513828Y-156922300D01*
X91291577Y-156922300D01*
X93192557Y-153754001D01*
X93203005Y-153741270D01*
X93225935Y-153698371D01*
X93234204Y-153684589D01*
X93241213Y-153669787D01*
X93264290Y-153626613D01*
X93268983Y-153611143D01*
X93275903Y-153596529D01*
X93287817Y-153549057D01*
X93302030Y-153502203D01*
X93303616Y-153486104D01*
X93307549Y-153470431D01*
X93309973Y-153421555D01*
X93314773Y-153372820D01*
X93313188Y-153356729D01*
X93313989Y-153340583D01*
X93306829Y-153292165D01*
X93302030Y-153243437D01*
X93297335Y-153227960D01*
X93294971Y-153211973D01*
X93278504Y-153165882D01*
X93264290Y-153119027D01*
X93256669Y-153104769D01*
X93251229Y-153089543D01*
X93226083Y-153047547D01*
X93203005Y-153004370D01*
X93192746Y-152991869D01*
X93184442Y-152978001D01*
X93151589Y-152941720D01*
X93120528Y-152903872D01*
X93108029Y-152893614D01*
X93097178Y-152881631D01*
X93057876Y-152852455D01*
X93020030Y-152821395D01*
X93005770Y-152813773D01*
X92992790Y-152804137D01*
X92948548Y-152783187D01*
X92905373Y-152760110D01*
X92889901Y-152755416D01*
X92875288Y-152748497D01*
X92827820Y-152736584D01*
X92780963Y-152722370D01*
X92764864Y-152720784D01*
X92749191Y-152716851D01*
X92700315Y-152714427D01*
X92683999Y-152712820D01*
X92667914Y-152712820D01*
X92619342Y-152710411D01*
X92603051Y-152712820D01*
X91277265Y-152712820D01*
X94462557Y-147404001D01*
X94473005Y-147391270D01*
X94495935Y-147348371D01*
X94504204Y-147334589D01*
X94511213Y-147319787D01*
X94534290Y-147276613D01*
X94538983Y-147261143D01*
X94545903Y-147246529D01*
X94557817Y-147199057D01*
X94572030Y-147152203D01*
X94573616Y-147136104D01*
X94577549Y-147120431D01*
X94579973Y-147071555D01*
X94584773Y-147022820D01*
X94583188Y-147006729D01*
X94583989Y-146990583D01*
X94576829Y-146942165D01*
X94572030Y-146893437D01*
X94567335Y-146877960D01*
X94564971Y-146861973D01*
X94548504Y-146815882D01*
X94534290Y-146769027D01*
X94526669Y-146754769D01*
X94521229Y-146739543D01*
X94496083Y-146697547D01*
X94473005Y-146654370D01*
X94462746Y-146641869D01*
X94454442Y-146628001D01*
X94421589Y-146591720D01*
X94390528Y-146553872D01*
X94378029Y-146543614D01*
X94367178Y-146531631D01*
X94327876Y-146502455D01*
X94290030Y-146471395D01*
X94275770Y-146463773D01*
X94262790Y-146454137D01*
X94218548Y-146433187D01*
X94175373Y-146410110D01*
X94159901Y-146405416D01*
X94145288Y-146398497D01*
X94097820Y-146386584D01*
X94050963Y-146372370D01*
X94034864Y-146370784D01*
X94019191Y-146366851D01*
X93970315Y-146364427D01*
X93953999Y-146362820D01*
X93937914Y-146362820D01*
X93889342Y-146360411D01*
X93873051Y-146362820D01*
X92547265Y-146362820D01*
X95732557Y-141054001D01*
X95743005Y-141041270D01*
X95765935Y-140998371D01*
X95774204Y-140984589D01*
X95781213Y-140969787D01*
X95804290Y-140926613D01*
X95808983Y-140911143D01*
X95815903Y-140896529D01*
X95827817Y-140849057D01*
X95842030Y-140802203D01*
X95843616Y-140786104D01*
X95847549Y-140770431D01*
X95849973Y-140721555D01*
X95854773Y-140672820D01*
X95853188Y-140656729D01*
X95853989Y-140640583D01*
X95846829Y-140592165D01*
X95842030Y-140543437D01*
X95837335Y-140527960D01*
X95834971Y-140511973D01*
X95818504Y-140465882D01*
X95804290Y-140419027D01*
X95796669Y-140404769D01*
X95791229Y-140389543D01*
X95766083Y-140347547D01*
X95743005Y-140304370D01*
X95732746Y-140291869D01*
X95724442Y-140278001D01*
X95691589Y-140241720D01*
X95660528Y-140203872D01*
X95648029Y-140193614D01*
X95637178Y-140181631D01*
X95597876Y-140152455D01*
X95560030Y-140121395D01*
X95545770Y-140113773D01*
X95532790Y-140104137D01*
X95488548Y-140083187D01*
X95445373Y-140060110D01*
X95429901Y-140055416D01*
X95415288Y-140048497D01*
X95367820Y-140036584D01*
X95320963Y-140022370D01*
X95304864Y-140020784D01*
X95289191Y-140016851D01*
X95240315Y-140014427D01*
X95223999Y-140012820D01*
X95207914Y-140012820D01*
X95159342Y-140010411D01*
X95143051Y-140012820D01*
X93989562Y-140012820D01*
X95589740Y-137926493D01*
X98506900Y-137926493D01*
X98506900Y-138278107D01*
X98575496Y-138622965D01*
X98710053Y-138947815D01*
X98905400Y-139240171D01*
X99154029Y-139488800D01*
X99446385Y-139684147D01*
X99771235Y-139818704D01*
X100116093Y-139887300D01*
X100467707Y-139887300D01*
X100812565Y-139818704D01*
X101137415Y-139684147D01*
X101429771Y-139488800D01*
X101678400Y-139240171D01*
X101873747Y-138947815D01*
X102008304Y-138622965D01*
X102076900Y-138278107D01*
X102076900Y-137926493D01*
X102008304Y-137581635D01*
X101873747Y-137256785D01*
X101678400Y-136964429D01*
X101429771Y-136715800D01*
X101137415Y-136520453D01*
X100812565Y-136385896D01*
X100467707Y-136317300D01*
X100116093Y-136317300D01*
X99771235Y-136385896D01*
X99446385Y-136520453D01*
X99154029Y-136715800D01*
X98905400Y-136964429D01*
X98710053Y-137256785D01*
X98575496Y-137581635D01*
X98506900Y-137926493D01*
X95589740Y-137926493D01*
X98254003Y-134452803D01*
X98527134Y-134725934D01*
X98527134Y-134725934D01*
G37*
X98527134Y-134725934D02*
X99040601Y-135069021D01*
X99611134Y-135305344D01*
X100216809Y-135425820D01*
X100834351Y-135425820D01*
X101440026Y-135305344D01*
X102010559Y-135069021D01*
X102524026Y-134725934D01*
X102704103Y-134545857D01*
X106609075Y-140012820D01*
X105400102Y-140012820D01*
X105383817Y-140010412D01*
X105335258Y-140012820D01*
X105319161Y-140012820D01*
X105302838Y-140014428D01*
X105253970Y-140016851D01*
X105238297Y-140020784D01*
X105222197Y-140022370D01*
X105175338Y-140036585D01*
X105127872Y-140048497D01*
X105113260Y-140055416D01*
X105097787Y-140060110D01*
X105054607Y-140083190D01*
X105010371Y-140104137D01*
X104997393Y-140113771D01*
X104983130Y-140121395D01*
X104945280Y-140152458D01*
X104905982Y-140181631D01*
X104895131Y-140193614D01*
X104882632Y-140203872D01*
X104851571Y-140241720D01*
X104818718Y-140278001D01*
X104810414Y-140291869D01*
X104800155Y-140304370D01*
X104777077Y-140347547D01*
X104751931Y-140389543D01*
X104746491Y-140404769D01*
X104738870Y-140419027D01*
X104724656Y-140465882D01*
X104708189Y-140511973D01*
X104705825Y-140527959D01*
X104701130Y-140543437D01*
X104696330Y-140592177D01*
X104689172Y-140640583D01*
X104689972Y-140656723D01*
X104688387Y-140672820D01*
X104693188Y-140721563D01*
X104695611Y-140770430D01*
X104699544Y-140786103D01*
X104701130Y-140802203D01*
X104715345Y-140849062D01*
X104727257Y-140896528D01*
X104734176Y-140911140D01*
X104738870Y-140926613D01*
X104761951Y-140969795D01*
X104768956Y-140984588D01*
X104777220Y-140998361D01*
X104800155Y-141041270D01*
X104810606Y-141054004D01*
X107995895Y-146362820D01*
X106670102Y-146362820D01*
X106653817Y-146360412D01*
X106605258Y-146362820D01*
X106589161Y-146362820D01*
X106572838Y-146364428D01*
X106523970Y-146366851D01*
X106508297Y-146370784D01*
X106492197Y-146372370D01*
X106445338Y-146386585D01*
X106397872Y-146398497D01*
X106383260Y-146405416D01*
X106367787Y-146410110D01*
X106324607Y-146433190D01*
X106280371Y-146454137D01*
X106267393Y-146463771D01*
X106253130Y-146471395D01*
X106215280Y-146502458D01*
X106175982Y-146531631D01*
X106165131Y-146543614D01*
X106152632Y-146553872D01*
X106121571Y-146591720D01*
X106088718Y-146628001D01*
X106080414Y-146641869D01*
X106070155Y-146654370D01*
X106055280Y-146682199D01*
X103686483Y-144313402D01*
X103662680Y-144284398D01*
X103546955Y-144189425D01*
X103414926Y-144118853D01*
X103271665Y-144075396D01*
X103160012Y-144064399D01*
X103160001Y-144064399D01*
X103122679Y-144060723D01*
X103085357Y-144064399D01*
X102797219Y-144064399D01*
X102743265Y-143934144D01*
X102629997Y-143764626D01*
X102485834Y-143620463D01*
X102316316Y-143507195D01*
X102127958Y-143429174D01*
X101927999Y-143389400D01*
X101724121Y-143389400D01*
X101524162Y-143429174D01*
X101335804Y-143507195D01*
X101166286Y-143620463D01*
X101022123Y-143764626D01*
X100908855Y-143934144D01*
X100830834Y-144122502D01*
X100791060Y-144322461D01*
X100791060Y-144526339D01*
X100830834Y-144726298D01*
X100908855Y-144914656D01*
X101022123Y-145084174D01*
X101166286Y-145228337D01*
X101335804Y-145341605D01*
X101524162Y-145419626D01*
X101724121Y-145459400D01*
X101801834Y-145459400D01*
X101933812Y-145529945D01*
X102077073Y-145573402D01*
X102188726Y-145584399D01*
X102188736Y-145584399D01*
X102226058Y-145588075D01*
X102263381Y-145584399D01*
X102807878Y-145584399D01*
X106415300Y-149191822D01*
X106415301Y-156608937D01*
X105290779Y-157733460D01*
X102998273Y-157733460D01*
X102960940Y-157729783D01*
X102923607Y-157733460D01*
X102811954Y-157744457D01*
X102668693Y-157787914D01*
X102536664Y-157858486D01*
X102420939Y-157953459D01*
X102397141Y-157982458D01*
X102054224Y-158325374D01*
X101928150Y-158199300D01*
X100428900Y-158199300D01*
X100428900Y-159698550D01*
X100587650Y-159857300D01*
X101033508Y-159858885D01*
X101033508Y-161232820D01*
X101045768Y-161357302D01*
X101082078Y-161477000D01*
X101141043Y-161587314D01*
X101220395Y-161684005D01*
X101317086Y-161763357D01*
X101411580Y-161813866D01*
X101411581Y-165251774D01*
X101317086Y-165302283D01*
X101220395Y-165381635D01*
X101141043Y-165478326D01*
X101082078Y-165588640D01*
X101045768Y-165708338D01*
X101033508Y-165832820D01*
X101033508Y-166682820D01*
X99506580Y-166682820D01*
X99506580Y-166555818D01*
X99347832Y-166555818D01*
X99506580Y-166397070D01*
X99509652Y-165832820D01*
X99497392Y-165708338D01*
X99461082Y-165588640D01*
X99402117Y-165478326D01*
X99322765Y-165381635D01*
X99226074Y-165302283D01*
X99115760Y-165243318D01*
X98996062Y-165207008D01*
X98871580Y-165194748D01*
X98657330Y-165197820D01*
X98498582Y-165356568D01*
X98498582Y-165197820D01*
X98391580Y-165197820D01*
X98391580Y-161867820D01*
X98498582Y-161867820D01*
X98498582Y-161709072D01*
X98657330Y-161867820D01*
X98871580Y-161870892D01*
X98996062Y-161858632D01*
X99115760Y-161822322D01*
X99226074Y-161763357D01*
X99322765Y-161684005D01*
X99402117Y-161587314D01*
X99461082Y-161477000D01*
X99497392Y-161357302D01*
X99509652Y-161232820D01*
X99506580Y-160668570D01*
X99347830Y-160509820D01*
X98498580Y-160509820D01*
X98498580Y-160529820D01*
X98391580Y-160529820D01*
X98391580Y-159755239D01*
X98394773Y-159722820D01*
X98382030Y-159593437D01*
X98344290Y-159469027D01*
X98283005Y-159354370D01*
X98244580Y-159307549D01*
X98244580Y-159056570D01*
X98498580Y-159056570D01*
X98498580Y-160255820D01*
X99347830Y-160255820D01*
X99506580Y-160097070D01*
X99507876Y-159859107D01*
X100016150Y-159857300D01*
X100174900Y-159698550D01*
X100174900Y-158199300D01*
X98675650Y-158199300D01*
X98516900Y-158358050D01*
X98514474Y-159040676D01*
X98498580Y-159056570D01*
X98244580Y-159056570D01*
X98085830Y-158897820D01*
X97871580Y-158894748D01*
X97747098Y-158907008D01*
X97627400Y-158943318D01*
X97517086Y-159002283D01*
X97443321Y-159062820D01*
X90007265Y-159062820D01*
X91291577Y-156922300D01*
X98513828Y-156922300D01*
X98516900Y-157786550D01*
X98675650Y-157945300D01*
X100174900Y-157945300D01*
X100174900Y-156446050D01*
X100428900Y-156446050D01*
X100428900Y-157945300D01*
X101928150Y-157945300D01*
X102086900Y-157786550D01*
X102089972Y-156922300D01*
X102077712Y-156797818D01*
X102041402Y-156678120D01*
X101982437Y-156567806D01*
X101903085Y-156471115D01*
X101806394Y-156391763D01*
X101696080Y-156332798D01*
X101576382Y-156296488D01*
X101451900Y-156284228D01*
X100587650Y-156287300D01*
X100428900Y-156446050D01*
X100174900Y-156446050D01*
X100016150Y-156287300D01*
X99151900Y-156284228D01*
X99027418Y-156296488D01*
X98907720Y-156332798D01*
X98797406Y-156391763D01*
X98700715Y-156471115D01*
X98621363Y-156567806D01*
X98562398Y-156678120D01*
X98526088Y-156797818D01*
X98513828Y-156922300D01*
X91291577Y-156922300D01*
X93192557Y-153754001D01*
X93203005Y-153741270D01*
X93225935Y-153698371D01*
X93234204Y-153684589D01*
X93241213Y-153669787D01*
X93264290Y-153626613D01*
X93268983Y-153611143D01*
X93275903Y-153596529D01*
X93287817Y-153549057D01*
X93302030Y-153502203D01*
X93303616Y-153486104D01*
X93307549Y-153470431D01*
X93309973Y-153421555D01*
X93314773Y-153372820D01*
X93313188Y-153356729D01*
X93313989Y-153340583D01*
X93306829Y-153292165D01*
X93302030Y-153243437D01*
X93297335Y-153227960D01*
X93294971Y-153211973D01*
X93278504Y-153165882D01*
X93264290Y-153119027D01*
X93256669Y-153104769D01*
X93251229Y-153089543D01*
X93226083Y-153047547D01*
X93203005Y-153004370D01*
X93192746Y-152991869D01*
X93184442Y-152978001D01*
X93151589Y-152941720D01*
X93120528Y-152903872D01*
X93108029Y-152893614D01*
X93097178Y-152881631D01*
X93057876Y-152852455D01*
X93020030Y-152821395D01*
X93005770Y-152813773D01*
X92992790Y-152804137D01*
X92948548Y-152783187D01*
X92905373Y-152760110D01*
X92889901Y-152755416D01*
X92875288Y-152748497D01*
X92827820Y-152736584D01*
X92780963Y-152722370D01*
X92764864Y-152720784D01*
X92749191Y-152716851D01*
X92700315Y-152714427D01*
X92683999Y-152712820D01*
X92667914Y-152712820D01*
X92619342Y-152710411D01*
X92603051Y-152712820D01*
X91277265Y-152712820D01*
X94462557Y-147404001D01*
X94473005Y-147391270D01*
X94495935Y-147348371D01*
X94504204Y-147334589D01*
X94511213Y-147319787D01*
X94534290Y-147276613D01*
X94538983Y-147261143D01*
X94545903Y-147246529D01*
X94557817Y-147199057D01*
X94572030Y-147152203D01*
X94573616Y-147136104D01*
X94577549Y-147120431D01*
X94579973Y-147071555D01*
X94584773Y-147022820D01*
X94583188Y-147006729D01*
X94583989Y-146990583D01*
X94576829Y-146942165D01*
X94572030Y-146893437D01*
X94567335Y-146877960D01*
X94564971Y-146861973D01*
X94548504Y-146815882D01*
X94534290Y-146769027D01*
X94526669Y-146754769D01*
X94521229Y-146739543D01*
X94496083Y-146697547D01*
X94473005Y-146654370D01*
X94462746Y-146641869D01*
X94454442Y-146628001D01*
X94421589Y-146591720D01*
X94390528Y-146553872D01*
X94378029Y-146543614D01*
X94367178Y-146531631D01*
X94327876Y-146502455D01*
X94290030Y-146471395D01*
X94275770Y-146463773D01*
X94262790Y-146454137D01*
X94218548Y-146433187D01*
X94175373Y-146410110D01*
X94159901Y-146405416D01*
X94145288Y-146398497D01*
X94097820Y-146386584D01*
X94050963Y-146372370D01*
X94034864Y-146370784D01*
X94019191Y-146366851D01*
X93970315Y-146364427D01*
X93953999Y-146362820D01*
X93937914Y-146362820D01*
X93889342Y-146360411D01*
X93873051Y-146362820D01*
X92547265Y-146362820D01*
X95732557Y-141054001D01*
X95743005Y-141041270D01*
X95765935Y-140998371D01*
X95774204Y-140984589D01*
X95781213Y-140969787D01*
X95804290Y-140926613D01*
X95808983Y-140911143D01*
X95815903Y-140896529D01*
X95827817Y-140849057D01*
X95842030Y-140802203D01*
X95843616Y-140786104D01*
X95847549Y-140770431D01*
X95849973Y-140721555D01*
X95854773Y-140672820D01*
X95853188Y-140656729D01*
X95853989Y-140640583D01*
X95846829Y-140592165D01*
X95842030Y-140543437D01*
X95837335Y-140527960D01*
X95834971Y-140511973D01*
X95818504Y-140465882D01*
X95804290Y-140419027D01*
X95796669Y-140404769D01*
X95791229Y-140389543D01*
X95766083Y-140347547D01*
X95743005Y-140304370D01*
X95732746Y-140291869D01*
X95724442Y-140278001D01*
X95691589Y-140241720D01*
X95660528Y-140203872D01*
X95648029Y-140193614D01*
X95637178Y-140181631D01*
X95597876Y-140152455D01*
X95560030Y-140121395D01*
X95545770Y-140113773D01*
X95532790Y-140104137D01*
X95488548Y-140083187D01*
X95445373Y-140060110D01*
X95429901Y-140055416D01*
X95415288Y-140048497D01*
X95367820Y-140036584D01*
X95320963Y-140022370D01*
X95304864Y-140020784D01*
X95289191Y-140016851D01*
X95240315Y-140014427D01*
X95223999Y-140012820D01*
X95207914Y-140012820D01*
X95159342Y-140010411D01*
X95143051Y-140012820D01*
X93989562Y-140012820D01*
X95589740Y-137926493D01*
X98506900Y-137926493D01*
X98506900Y-138278107D01*
X98575496Y-138622965D01*
X98710053Y-138947815D01*
X98905400Y-139240171D01*
X99154029Y-139488800D01*
X99446385Y-139684147D01*
X99771235Y-139818704D01*
X100116093Y-139887300D01*
X100467707Y-139887300D01*
X100812565Y-139818704D01*
X101137415Y-139684147D01*
X101429771Y-139488800D01*
X101678400Y-139240171D01*
X101873747Y-138947815D01*
X102008304Y-138622965D01*
X102076900Y-138278107D01*
X102076900Y-137926493D01*
X102008304Y-137581635D01*
X101873747Y-137256785D01*
X101678400Y-136964429D01*
X101429771Y-136715800D01*
X101137415Y-136520453D01*
X100812565Y-136385896D01*
X100467707Y-136317300D01*
X100116093Y-136317300D01*
X99771235Y-136385896D01*
X99446385Y-136520453D01*
X99154029Y-136715800D01*
X98905400Y-136964429D01*
X98710053Y-137256785D01*
X98575496Y-137581635D01*
X98506900Y-137926493D01*
X95589740Y-137926493D01*
X98254003Y-134452803D01*
X98527134Y-134725934D01*
M02*
