G04 #@! TF.GenerationSoftware,KiCad,Pcbnew,(5.1.4)-1*
G04 #@! TF.CreationDate,2020-12-20T16:29:45-05:00*
G04 #@! TF.ProjectId,circuit,63697263-7569-4742-9e6b-696361645f70,1*
G04 #@! TF.SameCoordinates,Original*
G04 #@! TF.FileFunction,Legend,Bot*
G04 #@! TF.FilePolarity,Positive*
%FSLAX46Y46*%
G04 Gerber Fmt 4.6, Leading zero omitted, Abs format (unit mm)*
G04 Created by KiCad (PCBNEW (5.1.4)-1) date 2020-12-20 16:29:45*
%MOMM*%
%LPD*%
G04 APERTURE LIST*
%ADD10C,0.150000*%
%ADD11C,0.120000*%
G04 APERTURE END LIST*
D10*
X112291900Y-149102300D02*
G75*
G03X112291900Y-149102300I-12000000J0D01*
G01*
X100291900Y-137102300D02*
X104291900Y-137102300D01*
X104291900Y-137102300D02*
X104291900Y-138102300D01*
X104291900Y-138102300D02*
X104291900Y-137102300D01*
X104291900Y-137102300D02*
X96291900Y-137102300D01*
X96291900Y-137102300D02*
X96291900Y-138102300D01*
D11*
X97971580Y-165232820D02*
X97521580Y-164782820D01*
X97971580Y-161832820D02*
X97521580Y-162282820D01*
X102571580Y-161832820D02*
X103021580Y-162282820D01*
X102571580Y-165232820D02*
X103021580Y-164782820D01*
X101271580Y-160782820D02*
X99271580Y-160782820D01*
X97521580Y-164782820D02*
X97521580Y-162282820D01*
X101271580Y-166282820D02*
X99271580Y-166282820D01*
X103021580Y-164782820D02*
X103021580Y-162282820D01*
D10*
X97220471Y-138316585D02*
X97268090Y-138459442D01*
X97315709Y-138507061D01*
X97410947Y-138554680D01*
X97553804Y-138554680D01*
X97649042Y-138507061D01*
X97696661Y-138459442D01*
X97744280Y-138364204D01*
X97744280Y-137983252D01*
X96744280Y-137983252D01*
X96744280Y-138316585D01*
X96791900Y-138411823D01*
X96839519Y-138459442D01*
X96934757Y-138507061D01*
X97029995Y-138507061D01*
X97125233Y-138459442D01*
X97172852Y-138411823D01*
X97220471Y-138316585D01*
X97220471Y-137983252D01*
X96744280Y-138840395D02*
X96744280Y-139411823D01*
X97744280Y-139126109D02*
X96744280Y-139126109D01*
X97744280Y-140268966D02*
X97744280Y-139697538D01*
X97744280Y-139983252D02*
X96744280Y-139983252D01*
X96887138Y-139888014D01*
X96982376Y-139792776D01*
X97029995Y-139697538D01*
X101363328Y-139721347D02*
X101363328Y-140483252D01*
X101744280Y-140102300D02*
X100982376Y-140102300D01*
X99363328Y-155721347D02*
X99363328Y-156483252D01*
X104426341Y-162199486D02*
X104473960Y-162342343D01*
X104473960Y-162580439D01*
X104426341Y-162675677D01*
X104378722Y-162723296D01*
X104283484Y-162770915D01*
X104188246Y-162770915D01*
X104093008Y-162723296D01*
X104045389Y-162675677D01*
X103997770Y-162580439D01*
X103950151Y-162389962D01*
X103902532Y-162294724D01*
X103854913Y-162247105D01*
X103759675Y-162199486D01*
X103664437Y-162199486D01*
X103569199Y-162247105D01*
X103521580Y-162294724D01*
X103473960Y-162389962D01*
X103473960Y-162628058D01*
X103521580Y-162770915D01*
X103473960Y-163104248D02*
X104473960Y-163342343D01*
X103759675Y-163532820D01*
X104473960Y-163723296D01*
X103473960Y-163961391D01*
X104473960Y-164866153D02*
X104473960Y-164294724D01*
X104473960Y-164580439D02*
X103473960Y-164580439D01*
X103616818Y-164485200D01*
X103712056Y-164389962D01*
X103759675Y-164294724D01*
M02*
