G04 #@! TF.GenerationSoftware,KiCad,Pcbnew,(5.1.4)-1*
G04 #@! TF.CreationDate,2020-12-20T16:29:45-05:00*
G04 #@! TF.ProjectId,circuit,63697263-7569-4742-9e6b-696361645f70,1*
G04 #@! TF.SameCoordinates,Original*
G04 #@! TF.FileFunction,Profile,NP*
%FSLAX46Y46*%
G04 Gerber Fmt 4.6, Leading zero omitted, Abs format (unit mm)*
G04 Created by KiCad (PCBNEW (5.1.4)-1) date 2020-12-20 16:29:45*
%MOMM*%
%LPD*%
G04 APERTURE LIST*
%ADD10C,0.050000*%
G04 APERTURE END LIST*
D10*
X107891580Y-140672820D02*
X102811580Y-133560819D01*
X105351580Y-140672820D02*
X107891580Y-140672820D01*
X109161580Y-147022820D02*
X105351580Y-140672820D01*
X106621580Y-147022820D02*
X109161580Y-147022820D01*
X110431580Y-153372820D02*
X106621580Y-147022820D01*
X107891580Y-153372820D02*
X110431580Y-153372820D01*
X111701580Y-159722820D02*
X107891580Y-153372820D01*
X102811580Y-159722820D02*
X111701580Y-159722820D01*
X102811580Y-167342820D02*
X102811580Y-159722820D01*
X92651580Y-140672820D02*
X98186240Y-133456680D01*
X95191580Y-140672820D02*
X92651580Y-140672820D01*
X91381580Y-147022820D02*
X95191580Y-140672820D01*
X93921580Y-147022820D02*
X91381580Y-147022820D01*
X90111580Y-153372820D02*
X93921580Y-147022820D01*
X91381580Y-153372820D02*
X90111580Y-153372820D01*
X92651580Y-153372820D02*
X91381580Y-153372820D01*
X88841580Y-159722820D02*
X92651580Y-153372820D01*
X97731580Y-159722820D02*
X88841580Y-159722820D01*
X97731580Y-167342820D02*
X97731580Y-159722820D01*
X102811580Y-167342820D02*
X97731580Y-167342820D01*
X98186574Y-133460326D02*
G75*
G02X102811580Y-133560819I2339006J1169506D01*
G01*
M02*
