G04 #@! TF.GenerationSoftware,KiCad,Pcbnew,(5.1.4)-1*
G04 #@! TF.CreationDate,2020-12-20T16:29:44-05:00*
G04 #@! TF.ProjectId,circuit,63697263-7569-4742-9e6b-696361645f70,1*
G04 #@! TF.SameCoordinates,Original*
G04 #@! TF.FileFunction,Paste,Top*
G04 #@! TF.FilePolarity,Positive*
%FSLAX46Y46*%
G04 Gerber Fmt 4.6, Leading zero omitted, Abs format (unit mm)*
G04 Created by KiCad (PCBNEW (5.1.4)-1) date 2020-12-20 16:29:44*
%MOMM*%
%LPD*%
G04 APERTURE LIST*
%ADD10C,0.100000*%
%ADD11C,1.150000*%
%ADD12R,1.060000X0.650000*%
G04 APERTURE END LIST*
D10*
G36*
X96548085Y-140482024D02*
G01*
X96572353Y-140485624D01*
X96596152Y-140491585D01*
X96619251Y-140499850D01*
X96641430Y-140510340D01*
X96662473Y-140522952D01*
X96682179Y-140537567D01*
X96700357Y-140554043D01*
X96716833Y-140572221D01*
X96731448Y-140591927D01*
X96744060Y-140612970D01*
X96754550Y-140635149D01*
X96762815Y-140658248D01*
X96768776Y-140682047D01*
X96772376Y-140706315D01*
X96773580Y-140730819D01*
X96773580Y-141630821D01*
X96772376Y-141655325D01*
X96768776Y-141679593D01*
X96762815Y-141703392D01*
X96754550Y-141726491D01*
X96744060Y-141748670D01*
X96731448Y-141769713D01*
X96716833Y-141789419D01*
X96700357Y-141807597D01*
X96682179Y-141824073D01*
X96662473Y-141838688D01*
X96641430Y-141851300D01*
X96619251Y-141861790D01*
X96596152Y-141870055D01*
X96572353Y-141876016D01*
X96548085Y-141879616D01*
X96523581Y-141880820D01*
X95873579Y-141880820D01*
X95849075Y-141879616D01*
X95824807Y-141876016D01*
X95801008Y-141870055D01*
X95777909Y-141861790D01*
X95755730Y-141851300D01*
X95734687Y-141838688D01*
X95714981Y-141824073D01*
X95696803Y-141807597D01*
X95680327Y-141789419D01*
X95665712Y-141769713D01*
X95653100Y-141748670D01*
X95642610Y-141726491D01*
X95634345Y-141703392D01*
X95628384Y-141679593D01*
X95624784Y-141655325D01*
X95623580Y-141630821D01*
X95623580Y-140730819D01*
X95624784Y-140706315D01*
X95628384Y-140682047D01*
X95634345Y-140658248D01*
X95642610Y-140635149D01*
X95653100Y-140612970D01*
X95665712Y-140591927D01*
X95680327Y-140572221D01*
X95696803Y-140554043D01*
X95714981Y-140537567D01*
X95734687Y-140522952D01*
X95755730Y-140510340D01*
X95777909Y-140499850D01*
X95801008Y-140491585D01*
X95824807Y-140485624D01*
X95849075Y-140482024D01*
X95873579Y-140480820D01*
X96523581Y-140480820D01*
X96548085Y-140482024D01*
X96548085Y-140482024D01*
G37*
D11*
X96198580Y-141180820D03*
D10*
G36*
X98598085Y-140482024D02*
G01*
X98622353Y-140485624D01*
X98646152Y-140491585D01*
X98669251Y-140499850D01*
X98691430Y-140510340D01*
X98712473Y-140522952D01*
X98732179Y-140537567D01*
X98750357Y-140554043D01*
X98766833Y-140572221D01*
X98781448Y-140591927D01*
X98794060Y-140612970D01*
X98804550Y-140635149D01*
X98812815Y-140658248D01*
X98818776Y-140682047D01*
X98822376Y-140706315D01*
X98823580Y-140730819D01*
X98823580Y-141630821D01*
X98822376Y-141655325D01*
X98818776Y-141679593D01*
X98812815Y-141703392D01*
X98804550Y-141726491D01*
X98794060Y-141748670D01*
X98781448Y-141769713D01*
X98766833Y-141789419D01*
X98750357Y-141807597D01*
X98732179Y-141824073D01*
X98712473Y-141838688D01*
X98691430Y-141851300D01*
X98669251Y-141861790D01*
X98646152Y-141870055D01*
X98622353Y-141876016D01*
X98598085Y-141879616D01*
X98573581Y-141880820D01*
X97923579Y-141880820D01*
X97899075Y-141879616D01*
X97874807Y-141876016D01*
X97851008Y-141870055D01*
X97827909Y-141861790D01*
X97805730Y-141851300D01*
X97784687Y-141838688D01*
X97764981Y-141824073D01*
X97746803Y-141807597D01*
X97730327Y-141789419D01*
X97715712Y-141769713D01*
X97703100Y-141748670D01*
X97692610Y-141726491D01*
X97684345Y-141703392D01*
X97678384Y-141679593D01*
X97674784Y-141655325D01*
X97673580Y-141630821D01*
X97673580Y-140730819D01*
X97674784Y-140706315D01*
X97678384Y-140682047D01*
X97684345Y-140658248D01*
X97692610Y-140635149D01*
X97703100Y-140612970D01*
X97715712Y-140591927D01*
X97730327Y-140572221D01*
X97746803Y-140554043D01*
X97764981Y-140537567D01*
X97784687Y-140522952D01*
X97805730Y-140510340D01*
X97827909Y-140499850D01*
X97851008Y-140491585D01*
X97874807Y-140485624D01*
X97899075Y-140482024D01*
X97923579Y-140480820D01*
X98573581Y-140480820D01*
X98598085Y-140482024D01*
X98598085Y-140482024D01*
G37*
D11*
X98248580Y-141180820D03*
D10*
G36*
X97001585Y-154540924D02*
G01*
X97025853Y-154544524D01*
X97049652Y-154550485D01*
X97072751Y-154558750D01*
X97094930Y-154569240D01*
X97115973Y-154581852D01*
X97135679Y-154596467D01*
X97153857Y-154612943D01*
X97170333Y-154631121D01*
X97184948Y-154650827D01*
X97197560Y-154671870D01*
X97208050Y-154694049D01*
X97216315Y-154717148D01*
X97222276Y-154740947D01*
X97225876Y-154765215D01*
X97227080Y-154789719D01*
X97227080Y-155689721D01*
X97225876Y-155714225D01*
X97222276Y-155738493D01*
X97216315Y-155762292D01*
X97208050Y-155785391D01*
X97197560Y-155807570D01*
X97184948Y-155828613D01*
X97170333Y-155848319D01*
X97153857Y-155866497D01*
X97135679Y-155882973D01*
X97115973Y-155897588D01*
X97094930Y-155910200D01*
X97072751Y-155920690D01*
X97049652Y-155928955D01*
X97025853Y-155934916D01*
X97001585Y-155938516D01*
X96977081Y-155939720D01*
X96327079Y-155939720D01*
X96302575Y-155938516D01*
X96278307Y-155934916D01*
X96254508Y-155928955D01*
X96231409Y-155920690D01*
X96209230Y-155910200D01*
X96188187Y-155897588D01*
X96168481Y-155882973D01*
X96150303Y-155866497D01*
X96133827Y-155848319D01*
X96119212Y-155828613D01*
X96106600Y-155807570D01*
X96096110Y-155785391D01*
X96087845Y-155762292D01*
X96081884Y-155738493D01*
X96078284Y-155714225D01*
X96077080Y-155689721D01*
X96077080Y-154789719D01*
X96078284Y-154765215D01*
X96081884Y-154740947D01*
X96087845Y-154717148D01*
X96096110Y-154694049D01*
X96106600Y-154671870D01*
X96119212Y-154650827D01*
X96133827Y-154631121D01*
X96150303Y-154612943D01*
X96168481Y-154596467D01*
X96188187Y-154581852D01*
X96209230Y-154569240D01*
X96231409Y-154558750D01*
X96254508Y-154550485D01*
X96278307Y-154544524D01*
X96302575Y-154540924D01*
X96327079Y-154539720D01*
X96977081Y-154539720D01*
X97001585Y-154540924D01*
X97001585Y-154540924D01*
G37*
D11*
X96652080Y-155239720D03*
D10*
G36*
X94951585Y-154540924D02*
G01*
X94975853Y-154544524D01*
X94999652Y-154550485D01*
X95022751Y-154558750D01*
X95044930Y-154569240D01*
X95065973Y-154581852D01*
X95085679Y-154596467D01*
X95103857Y-154612943D01*
X95120333Y-154631121D01*
X95134948Y-154650827D01*
X95147560Y-154671870D01*
X95158050Y-154694049D01*
X95166315Y-154717148D01*
X95172276Y-154740947D01*
X95175876Y-154765215D01*
X95177080Y-154789719D01*
X95177080Y-155689721D01*
X95175876Y-155714225D01*
X95172276Y-155738493D01*
X95166315Y-155762292D01*
X95158050Y-155785391D01*
X95147560Y-155807570D01*
X95134948Y-155828613D01*
X95120333Y-155848319D01*
X95103857Y-155866497D01*
X95085679Y-155882973D01*
X95065973Y-155897588D01*
X95044930Y-155910200D01*
X95022751Y-155920690D01*
X94999652Y-155928955D01*
X94975853Y-155934916D01*
X94951585Y-155938516D01*
X94927081Y-155939720D01*
X94277079Y-155939720D01*
X94252575Y-155938516D01*
X94228307Y-155934916D01*
X94204508Y-155928955D01*
X94181409Y-155920690D01*
X94159230Y-155910200D01*
X94138187Y-155897588D01*
X94118481Y-155882973D01*
X94100303Y-155866497D01*
X94083827Y-155848319D01*
X94069212Y-155828613D01*
X94056600Y-155807570D01*
X94046110Y-155785391D01*
X94037845Y-155762292D01*
X94031884Y-155738493D01*
X94028284Y-155714225D01*
X94027080Y-155689721D01*
X94027080Y-154789719D01*
X94028284Y-154765215D01*
X94031884Y-154740947D01*
X94037845Y-154717148D01*
X94046110Y-154694049D01*
X94056600Y-154671870D01*
X94069212Y-154650827D01*
X94083827Y-154631121D01*
X94100303Y-154612943D01*
X94118481Y-154596467D01*
X94138187Y-154581852D01*
X94159230Y-154569240D01*
X94181409Y-154558750D01*
X94204508Y-154550485D01*
X94228307Y-154544524D01*
X94252575Y-154540924D01*
X94277079Y-154539720D01*
X94927081Y-154539720D01*
X94951585Y-154540924D01*
X94951585Y-154540924D01*
G37*
D11*
X94602080Y-155239720D03*
D10*
G36*
X103597745Y-148937684D02*
G01*
X103622013Y-148941284D01*
X103645812Y-148947245D01*
X103668911Y-148955510D01*
X103691090Y-148966000D01*
X103712133Y-148978612D01*
X103731839Y-148993227D01*
X103750017Y-149009703D01*
X103766493Y-149027881D01*
X103781108Y-149047587D01*
X103793720Y-149068630D01*
X103804210Y-149090809D01*
X103812475Y-149113908D01*
X103818436Y-149137707D01*
X103822036Y-149161975D01*
X103823240Y-149186479D01*
X103823240Y-150086481D01*
X103822036Y-150110985D01*
X103818436Y-150135253D01*
X103812475Y-150159052D01*
X103804210Y-150182151D01*
X103793720Y-150204330D01*
X103781108Y-150225373D01*
X103766493Y-150245079D01*
X103750017Y-150263257D01*
X103731839Y-150279733D01*
X103712133Y-150294348D01*
X103691090Y-150306960D01*
X103668911Y-150317450D01*
X103645812Y-150325715D01*
X103622013Y-150331676D01*
X103597745Y-150335276D01*
X103573241Y-150336480D01*
X102923239Y-150336480D01*
X102898735Y-150335276D01*
X102874467Y-150331676D01*
X102850668Y-150325715D01*
X102827569Y-150317450D01*
X102805390Y-150306960D01*
X102784347Y-150294348D01*
X102764641Y-150279733D01*
X102746463Y-150263257D01*
X102729987Y-150245079D01*
X102715372Y-150225373D01*
X102702760Y-150204330D01*
X102692270Y-150182151D01*
X102684005Y-150159052D01*
X102678044Y-150135253D01*
X102674444Y-150110985D01*
X102673240Y-150086481D01*
X102673240Y-149186479D01*
X102674444Y-149161975D01*
X102678044Y-149137707D01*
X102684005Y-149113908D01*
X102692270Y-149090809D01*
X102702760Y-149068630D01*
X102715372Y-149047587D01*
X102729987Y-149027881D01*
X102746463Y-149009703D01*
X102764641Y-148993227D01*
X102784347Y-148978612D01*
X102805390Y-148966000D01*
X102827569Y-148955510D01*
X102850668Y-148947245D01*
X102874467Y-148941284D01*
X102898735Y-148937684D01*
X102923239Y-148936480D01*
X103573241Y-148936480D01*
X103597745Y-148937684D01*
X103597745Y-148937684D01*
G37*
D11*
X103248240Y-149636480D03*
D10*
G36*
X105647745Y-148937684D02*
G01*
X105672013Y-148941284D01*
X105695812Y-148947245D01*
X105718911Y-148955510D01*
X105741090Y-148966000D01*
X105762133Y-148978612D01*
X105781839Y-148993227D01*
X105800017Y-149009703D01*
X105816493Y-149027881D01*
X105831108Y-149047587D01*
X105843720Y-149068630D01*
X105854210Y-149090809D01*
X105862475Y-149113908D01*
X105868436Y-149137707D01*
X105872036Y-149161975D01*
X105873240Y-149186479D01*
X105873240Y-150086481D01*
X105872036Y-150110985D01*
X105868436Y-150135253D01*
X105862475Y-150159052D01*
X105854210Y-150182151D01*
X105843720Y-150204330D01*
X105831108Y-150225373D01*
X105816493Y-150245079D01*
X105800017Y-150263257D01*
X105781839Y-150279733D01*
X105762133Y-150294348D01*
X105741090Y-150306960D01*
X105718911Y-150317450D01*
X105695812Y-150325715D01*
X105672013Y-150331676D01*
X105647745Y-150335276D01*
X105623241Y-150336480D01*
X104973239Y-150336480D01*
X104948735Y-150335276D01*
X104924467Y-150331676D01*
X104900668Y-150325715D01*
X104877569Y-150317450D01*
X104855390Y-150306960D01*
X104834347Y-150294348D01*
X104814641Y-150279733D01*
X104796463Y-150263257D01*
X104779987Y-150245079D01*
X104765372Y-150225373D01*
X104752760Y-150204330D01*
X104742270Y-150182151D01*
X104734005Y-150159052D01*
X104728044Y-150135253D01*
X104724444Y-150110985D01*
X104723240Y-150086481D01*
X104723240Y-149186479D01*
X104724444Y-149161975D01*
X104728044Y-149137707D01*
X104734005Y-149113908D01*
X104742270Y-149090809D01*
X104752760Y-149068630D01*
X104765372Y-149047587D01*
X104779987Y-149027881D01*
X104796463Y-149009703D01*
X104814641Y-148993227D01*
X104834347Y-148978612D01*
X104855390Y-148966000D01*
X104877569Y-148955510D01*
X104900668Y-148947245D01*
X104924467Y-148941284D01*
X104948735Y-148937684D01*
X104973239Y-148936480D01*
X105623241Y-148936480D01*
X105647745Y-148937684D01*
X105647745Y-148937684D01*
G37*
D11*
X105298240Y-149636480D03*
D10*
G36*
X103424085Y-140990024D02*
G01*
X103448353Y-140993624D01*
X103472152Y-140999585D01*
X103495251Y-141007850D01*
X103517430Y-141018340D01*
X103538473Y-141030952D01*
X103558179Y-141045567D01*
X103576357Y-141062043D01*
X103592833Y-141080221D01*
X103607448Y-141099927D01*
X103620060Y-141120970D01*
X103630550Y-141143149D01*
X103638815Y-141166248D01*
X103644776Y-141190047D01*
X103648376Y-141214315D01*
X103649580Y-141238819D01*
X103649580Y-142138821D01*
X103648376Y-142163325D01*
X103644776Y-142187593D01*
X103638815Y-142211392D01*
X103630550Y-142234491D01*
X103620060Y-142256670D01*
X103607448Y-142277713D01*
X103592833Y-142297419D01*
X103576357Y-142315597D01*
X103558179Y-142332073D01*
X103538473Y-142346688D01*
X103517430Y-142359300D01*
X103495251Y-142369790D01*
X103472152Y-142378055D01*
X103448353Y-142384016D01*
X103424085Y-142387616D01*
X103399581Y-142388820D01*
X102749579Y-142388820D01*
X102725075Y-142387616D01*
X102700807Y-142384016D01*
X102677008Y-142378055D01*
X102653909Y-142369790D01*
X102631730Y-142359300D01*
X102610687Y-142346688D01*
X102590981Y-142332073D01*
X102572803Y-142315597D01*
X102556327Y-142297419D01*
X102541712Y-142277713D01*
X102529100Y-142256670D01*
X102518610Y-142234491D01*
X102510345Y-142211392D01*
X102504384Y-142187593D01*
X102500784Y-142163325D01*
X102499580Y-142138821D01*
X102499580Y-141238819D01*
X102500784Y-141214315D01*
X102504384Y-141190047D01*
X102510345Y-141166248D01*
X102518610Y-141143149D01*
X102529100Y-141120970D01*
X102541712Y-141099927D01*
X102556327Y-141080221D01*
X102572803Y-141062043D01*
X102590981Y-141045567D01*
X102610687Y-141030952D01*
X102631730Y-141018340D01*
X102653909Y-141007850D01*
X102677008Y-140999585D01*
X102700807Y-140993624D01*
X102725075Y-140990024D01*
X102749579Y-140988820D01*
X103399581Y-140988820D01*
X103424085Y-140990024D01*
X103424085Y-140990024D01*
G37*
D11*
X103074580Y-141688820D03*
D10*
G36*
X101374085Y-140990024D02*
G01*
X101398353Y-140993624D01*
X101422152Y-140999585D01*
X101445251Y-141007850D01*
X101467430Y-141018340D01*
X101488473Y-141030952D01*
X101508179Y-141045567D01*
X101526357Y-141062043D01*
X101542833Y-141080221D01*
X101557448Y-141099927D01*
X101570060Y-141120970D01*
X101580550Y-141143149D01*
X101588815Y-141166248D01*
X101594776Y-141190047D01*
X101598376Y-141214315D01*
X101599580Y-141238819D01*
X101599580Y-142138821D01*
X101598376Y-142163325D01*
X101594776Y-142187593D01*
X101588815Y-142211392D01*
X101580550Y-142234491D01*
X101570060Y-142256670D01*
X101557448Y-142277713D01*
X101542833Y-142297419D01*
X101526357Y-142315597D01*
X101508179Y-142332073D01*
X101488473Y-142346688D01*
X101467430Y-142359300D01*
X101445251Y-142369790D01*
X101422152Y-142378055D01*
X101398353Y-142384016D01*
X101374085Y-142387616D01*
X101349581Y-142388820D01*
X100699579Y-142388820D01*
X100675075Y-142387616D01*
X100650807Y-142384016D01*
X100627008Y-142378055D01*
X100603909Y-142369790D01*
X100581730Y-142359300D01*
X100560687Y-142346688D01*
X100540981Y-142332073D01*
X100522803Y-142315597D01*
X100506327Y-142297419D01*
X100491712Y-142277713D01*
X100479100Y-142256670D01*
X100468610Y-142234491D01*
X100460345Y-142211392D01*
X100454384Y-142187593D01*
X100450784Y-142163325D01*
X100449580Y-142138821D01*
X100449580Y-141238819D01*
X100450784Y-141214315D01*
X100454384Y-141190047D01*
X100460345Y-141166248D01*
X100468610Y-141143149D01*
X100479100Y-141120970D01*
X100491712Y-141099927D01*
X100506327Y-141080221D01*
X100522803Y-141062043D01*
X100540981Y-141045567D01*
X100560687Y-141030952D01*
X100581730Y-141018340D01*
X100603909Y-141007850D01*
X100627008Y-140999585D01*
X100650807Y-140993624D01*
X100675075Y-140990024D01*
X100699579Y-140988820D01*
X101349581Y-140988820D01*
X101374085Y-140990024D01*
X101374085Y-140990024D01*
G37*
D11*
X101024580Y-141688820D03*
D10*
G36*
X96379285Y-150695364D02*
G01*
X96403553Y-150698964D01*
X96427352Y-150704925D01*
X96450451Y-150713190D01*
X96472630Y-150723680D01*
X96493673Y-150736292D01*
X96513379Y-150750907D01*
X96531557Y-150767383D01*
X96548033Y-150785561D01*
X96562648Y-150805267D01*
X96575260Y-150826310D01*
X96585750Y-150848489D01*
X96594015Y-150871588D01*
X96599976Y-150895387D01*
X96603576Y-150919655D01*
X96604780Y-150944159D01*
X96604780Y-151844161D01*
X96603576Y-151868665D01*
X96599976Y-151892933D01*
X96594015Y-151916732D01*
X96585750Y-151939831D01*
X96575260Y-151962010D01*
X96562648Y-151983053D01*
X96548033Y-152002759D01*
X96531557Y-152020937D01*
X96513379Y-152037413D01*
X96493673Y-152052028D01*
X96472630Y-152064640D01*
X96450451Y-152075130D01*
X96427352Y-152083395D01*
X96403553Y-152089356D01*
X96379285Y-152092956D01*
X96354781Y-152094160D01*
X95704779Y-152094160D01*
X95680275Y-152092956D01*
X95656007Y-152089356D01*
X95632208Y-152083395D01*
X95609109Y-152075130D01*
X95586930Y-152064640D01*
X95565887Y-152052028D01*
X95546181Y-152037413D01*
X95528003Y-152020937D01*
X95511527Y-152002759D01*
X95496912Y-151983053D01*
X95484300Y-151962010D01*
X95473810Y-151939831D01*
X95465545Y-151916732D01*
X95459584Y-151892933D01*
X95455984Y-151868665D01*
X95454780Y-151844161D01*
X95454780Y-150944159D01*
X95455984Y-150919655D01*
X95459584Y-150895387D01*
X95465545Y-150871588D01*
X95473810Y-150848489D01*
X95484300Y-150826310D01*
X95496912Y-150805267D01*
X95511527Y-150785561D01*
X95528003Y-150767383D01*
X95546181Y-150750907D01*
X95565887Y-150736292D01*
X95586930Y-150723680D01*
X95609109Y-150713190D01*
X95632208Y-150704925D01*
X95656007Y-150698964D01*
X95680275Y-150695364D01*
X95704779Y-150694160D01*
X96354781Y-150694160D01*
X96379285Y-150695364D01*
X96379285Y-150695364D01*
G37*
D11*
X96029780Y-151394160D03*
D10*
G36*
X94329285Y-150695364D02*
G01*
X94353553Y-150698964D01*
X94377352Y-150704925D01*
X94400451Y-150713190D01*
X94422630Y-150723680D01*
X94443673Y-150736292D01*
X94463379Y-150750907D01*
X94481557Y-150767383D01*
X94498033Y-150785561D01*
X94512648Y-150805267D01*
X94525260Y-150826310D01*
X94535750Y-150848489D01*
X94544015Y-150871588D01*
X94549976Y-150895387D01*
X94553576Y-150919655D01*
X94554780Y-150944159D01*
X94554780Y-151844161D01*
X94553576Y-151868665D01*
X94549976Y-151892933D01*
X94544015Y-151916732D01*
X94535750Y-151939831D01*
X94525260Y-151962010D01*
X94512648Y-151983053D01*
X94498033Y-152002759D01*
X94481557Y-152020937D01*
X94463379Y-152037413D01*
X94443673Y-152052028D01*
X94422630Y-152064640D01*
X94400451Y-152075130D01*
X94377352Y-152083395D01*
X94353553Y-152089356D01*
X94329285Y-152092956D01*
X94304781Y-152094160D01*
X93654779Y-152094160D01*
X93630275Y-152092956D01*
X93606007Y-152089356D01*
X93582208Y-152083395D01*
X93559109Y-152075130D01*
X93536930Y-152064640D01*
X93515887Y-152052028D01*
X93496181Y-152037413D01*
X93478003Y-152020937D01*
X93461527Y-152002759D01*
X93446912Y-151983053D01*
X93434300Y-151962010D01*
X93423810Y-151939831D01*
X93415545Y-151916732D01*
X93409584Y-151892933D01*
X93405984Y-151868665D01*
X93404780Y-151844161D01*
X93404780Y-150944159D01*
X93405984Y-150919655D01*
X93409584Y-150895387D01*
X93415545Y-150871588D01*
X93423810Y-150848489D01*
X93434300Y-150826310D01*
X93446912Y-150805267D01*
X93461527Y-150785561D01*
X93478003Y-150767383D01*
X93496181Y-150750907D01*
X93515887Y-150736292D01*
X93536930Y-150723680D01*
X93559109Y-150713190D01*
X93582208Y-150704925D01*
X93606007Y-150698964D01*
X93630275Y-150695364D01*
X93654779Y-150694160D01*
X94304781Y-150694160D01*
X94329285Y-150695364D01*
X94329285Y-150695364D01*
G37*
D11*
X93979780Y-151394160D03*
D10*
G36*
X104402925Y-153697644D02*
G01*
X104427193Y-153701244D01*
X104450992Y-153707205D01*
X104474091Y-153715470D01*
X104496270Y-153725960D01*
X104517313Y-153738572D01*
X104537019Y-153753187D01*
X104555197Y-153769663D01*
X104571673Y-153787841D01*
X104586288Y-153807547D01*
X104598900Y-153828590D01*
X104609390Y-153850769D01*
X104617655Y-153873868D01*
X104623616Y-153897667D01*
X104627216Y-153921935D01*
X104628420Y-153946439D01*
X104628420Y-154846441D01*
X104627216Y-154870945D01*
X104623616Y-154895213D01*
X104617655Y-154919012D01*
X104609390Y-154942111D01*
X104598900Y-154964290D01*
X104586288Y-154985333D01*
X104571673Y-155005039D01*
X104555197Y-155023217D01*
X104537019Y-155039693D01*
X104517313Y-155054308D01*
X104496270Y-155066920D01*
X104474091Y-155077410D01*
X104450992Y-155085675D01*
X104427193Y-155091636D01*
X104402925Y-155095236D01*
X104378421Y-155096440D01*
X103728419Y-155096440D01*
X103703915Y-155095236D01*
X103679647Y-155091636D01*
X103655848Y-155085675D01*
X103632749Y-155077410D01*
X103610570Y-155066920D01*
X103589527Y-155054308D01*
X103569821Y-155039693D01*
X103551643Y-155023217D01*
X103535167Y-155005039D01*
X103520552Y-154985333D01*
X103507940Y-154964290D01*
X103497450Y-154942111D01*
X103489185Y-154919012D01*
X103483224Y-154895213D01*
X103479624Y-154870945D01*
X103478420Y-154846441D01*
X103478420Y-153946439D01*
X103479624Y-153921935D01*
X103483224Y-153897667D01*
X103489185Y-153873868D01*
X103497450Y-153850769D01*
X103507940Y-153828590D01*
X103520552Y-153807547D01*
X103535167Y-153787841D01*
X103551643Y-153769663D01*
X103569821Y-153753187D01*
X103589527Y-153738572D01*
X103610570Y-153725960D01*
X103632749Y-153715470D01*
X103655848Y-153707205D01*
X103679647Y-153701244D01*
X103703915Y-153697644D01*
X103728419Y-153696440D01*
X104378421Y-153696440D01*
X104402925Y-153697644D01*
X104402925Y-153697644D01*
G37*
D11*
X104053420Y-154396440D03*
D10*
G36*
X106452925Y-153697644D02*
G01*
X106477193Y-153701244D01*
X106500992Y-153707205D01*
X106524091Y-153715470D01*
X106546270Y-153725960D01*
X106567313Y-153738572D01*
X106587019Y-153753187D01*
X106605197Y-153769663D01*
X106621673Y-153787841D01*
X106636288Y-153807547D01*
X106648900Y-153828590D01*
X106659390Y-153850769D01*
X106667655Y-153873868D01*
X106673616Y-153897667D01*
X106677216Y-153921935D01*
X106678420Y-153946439D01*
X106678420Y-154846441D01*
X106677216Y-154870945D01*
X106673616Y-154895213D01*
X106667655Y-154919012D01*
X106659390Y-154942111D01*
X106648900Y-154964290D01*
X106636288Y-154985333D01*
X106621673Y-155005039D01*
X106605197Y-155023217D01*
X106587019Y-155039693D01*
X106567313Y-155054308D01*
X106546270Y-155066920D01*
X106524091Y-155077410D01*
X106500992Y-155085675D01*
X106477193Y-155091636D01*
X106452925Y-155095236D01*
X106428421Y-155096440D01*
X105778419Y-155096440D01*
X105753915Y-155095236D01*
X105729647Y-155091636D01*
X105705848Y-155085675D01*
X105682749Y-155077410D01*
X105660570Y-155066920D01*
X105639527Y-155054308D01*
X105619821Y-155039693D01*
X105601643Y-155023217D01*
X105585167Y-155005039D01*
X105570552Y-154985333D01*
X105557940Y-154964290D01*
X105547450Y-154942111D01*
X105539185Y-154919012D01*
X105533224Y-154895213D01*
X105529624Y-154870945D01*
X105528420Y-154846441D01*
X105528420Y-153946439D01*
X105529624Y-153921935D01*
X105533224Y-153897667D01*
X105539185Y-153873868D01*
X105547450Y-153850769D01*
X105557940Y-153828590D01*
X105570552Y-153807547D01*
X105585167Y-153787841D01*
X105601643Y-153769663D01*
X105619821Y-153753187D01*
X105639527Y-153738572D01*
X105660570Y-153725960D01*
X105682749Y-153715470D01*
X105705848Y-153707205D01*
X105729647Y-153701244D01*
X105753915Y-153697644D01*
X105778419Y-153696440D01*
X106428421Y-153696440D01*
X106452925Y-153697644D01*
X106452925Y-153697644D01*
G37*
D11*
X106103420Y-154396440D03*
D12*
X98409580Y-145310820D03*
X98409580Y-146260820D03*
X98409580Y-147210820D03*
X100609580Y-147210820D03*
X100609580Y-145310820D03*
X100609580Y-146260820D03*
M02*
