G04 #@! TF.GenerationSoftware,KiCad,Pcbnew,(5.1.4)-1*
G04 #@! TF.CreationDate,2020-12-20T16:29:45-05:00*
G04 #@! TF.ProjectId,circuit,63697263-7569-4742-9e6b-696361645f70,1*
G04 #@! TF.SameCoordinates,Original*
G04 #@! TF.FileFunction,Legend,Top*
G04 #@! TF.FilePolarity,Positive*
%FSLAX46Y46*%
G04 Gerber Fmt 4.6, Leading zero omitted, Abs format (unit mm)*
G04 Created by KiCad (PCBNEW (5.1.4)-1) date 2020-12-20 16:29:45*
%MOMM*%
%LPD*%
G04 APERTURE LIST*
%ADD10C,0.120000*%
%ADD11C,0.150000*%
G04 APERTURE END LIST*
D10*
X98223580Y-140220820D02*
X95363580Y-140220820D01*
X95363580Y-140220820D02*
X95363580Y-142140820D01*
X95363580Y-142140820D02*
X98223580Y-142140820D01*
X93767080Y-156199720D02*
X96627080Y-156199720D01*
X93767080Y-154279720D02*
X93767080Y-156199720D01*
X96627080Y-154279720D02*
X93767080Y-154279720D01*
X105273240Y-148676480D02*
X102413240Y-148676480D01*
X102413240Y-148676480D02*
X102413240Y-150596480D01*
X102413240Y-150596480D02*
X105273240Y-150596480D01*
X102310832Y-142398820D02*
X101788328Y-142398820D01*
X102310832Y-140978820D02*
X101788328Y-140978820D01*
X94743528Y-152104160D02*
X95266032Y-152104160D01*
X94743528Y-150684160D02*
X95266032Y-150684160D01*
X104817168Y-153686440D02*
X105339672Y-153686440D01*
X104817168Y-155106440D02*
X105339672Y-155106440D01*
X98609580Y-147870820D02*
X100409580Y-147870820D01*
X100409580Y-144650820D02*
X97959580Y-144650820D01*
D11*
X99363328Y-140483252D02*
X99363328Y-139721347D01*
X99744280Y-140102300D02*
X98982376Y-140102300D01*
X101363328Y-156483252D02*
X101363328Y-155721347D01*
X99192246Y-129243200D02*
X98858913Y-128767010D01*
X98620818Y-129243200D02*
X98620818Y-128243200D01*
X99001770Y-128243200D01*
X99097008Y-128290820D01*
X99144627Y-128338439D01*
X99192246Y-128433677D01*
X99192246Y-128576534D01*
X99144627Y-128671772D01*
X99097008Y-128719391D01*
X99001770Y-128767010D01*
X98620818Y-128767010D01*
X99620818Y-128719391D02*
X99954151Y-128719391D01*
X100097008Y-129243200D02*
X99620818Y-129243200D01*
X99620818Y-128243200D01*
X100097008Y-128243200D01*
X100858913Y-128719391D02*
X100525580Y-128719391D01*
X100525580Y-129243200D02*
X100525580Y-128243200D01*
X101001770Y-128243200D01*
X101525580Y-128243200D02*
X101525580Y-128481296D01*
X101287484Y-128386058D02*
X101525580Y-128481296D01*
X101763675Y-128386058D01*
X101382722Y-128671772D02*
X101525580Y-128481296D01*
X101668437Y-128671772D01*
X102287484Y-128243200D02*
X102287484Y-128481296D01*
X102049389Y-128386058D02*
X102287484Y-128481296D01*
X102525580Y-128386058D01*
X102144627Y-128671772D02*
X102287484Y-128481296D01*
X102430341Y-128671772D01*
X96485484Y-139983200D02*
X96485484Y-138983200D01*
X96723580Y-138983200D01*
X96866437Y-139030820D01*
X96961675Y-139126058D01*
X97009294Y-139221296D01*
X97056913Y-139411772D01*
X97056913Y-139554629D01*
X97009294Y-139745105D01*
X96961675Y-139840343D01*
X96866437Y-139935581D01*
X96723580Y-139983200D01*
X96485484Y-139983200D01*
X98009294Y-139983200D02*
X97437865Y-139983200D01*
X97723580Y-139983200D02*
X97723580Y-138983200D01*
X97628341Y-139126058D01*
X97533103Y-139221296D01*
X97437865Y-139268915D01*
X94888984Y-154042100D02*
X94888984Y-153042100D01*
X95127080Y-153042100D01*
X95269937Y-153089720D01*
X95365175Y-153184958D01*
X95412794Y-153280196D01*
X95460413Y-153470672D01*
X95460413Y-153613529D01*
X95412794Y-153804005D01*
X95365175Y-153899243D01*
X95269937Y-153994481D01*
X95127080Y-154042100D01*
X94888984Y-154042100D01*
X95841365Y-153137339D02*
X95888984Y-153089720D01*
X95984222Y-153042100D01*
X96222318Y-153042100D01*
X96317556Y-153089720D01*
X96365175Y-153137339D01*
X96412794Y-153232577D01*
X96412794Y-153327815D01*
X96365175Y-153470672D01*
X95793746Y-154042100D01*
X96412794Y-154042100D01*
X103535144Y-148438860D02*
X103535144Y-147438860D01*
X103773240Y-147438860D01*
X103916097Y-147486480D01*
X104011335Y-147581718D01*
X104058954Y-147676956D01*
X104106573Y-147867432D01*
X104106573Y-148010289D01*
X104058954Y-148200765D01*
X104011335Y-148296003D01*
X103916097Y-148391241D01*
X103773240Y-148438860D01*
X103535144Y-148438860D01*
X104439906Y-147438860D02*
X105058954Y-147438860D01*
X104725620Y-147819813D01*
X104868478Y-147819813D01*
X104963716Y-147867432D01*
X105011335Y-147915051D01*
X105058954Y-148010289D01*
X105058954Y-148248384D01*
X105011335Y-148343622D01*
X104963716Y-148391241D01*
X104868478Y-148438860D01*
X104582763Y-148438860D01*
X104487525Y-148391241D01*
X104439906Y-148343622D01*
X101882913Y-143791200D02*
X101549580Y-143315010D01*
X101311484Y-143791200D02*
X101311484Y-142791200D01*
X101692437Y-142791200D01*
X101787675Y-142838820D01*
X101835294Y-142886439D01*
X101882913Y-142981677D01*
X101882913Y-143124534D01*
X101835294Y-143219772D01*
X101787675Y-143267391D01*
X101692437Y-143315010D01*
X101311484Y-143315010D01*
X102835294Y-143791200D02*
X102263865Y-143791200D01*
X102549580Y-143791200D02*
X102549580Y-142791200D01*
X102454341Y-142934058D01*
X102359103Y-143029296D01*
X102263865Y-143076915D01*
X94838113Y-150196540D02*
X94504780Y-149720350D01*
X94266684Y-150196540D02*
X94266684Y-149196540D01*
X94647637Y-149196540D01*
X94742875Y-149244160D01*
X94790494Y-149291779D01*
X94838113Y-149387017D01*
X94838113Y-149529874D01*
X94790494Y-149625112D01*
X94742875Y-149672731D01*
X94647637Y-149720350D01*
X94266684Y-149720350D01*
X95219065Y-149291779D02*
X95266684Y-149244160D01*
X95361922Y-149196540D01*
X95600018Y-149196540D01*
X95695256Y-149244160D01*
X95742875Y-149291779D01*
X95790494Y-149387017D01*
X95790494Y-149482255D01*
X95742875Y-149625112D01*
X95171446Y-150196540D01*
X95790494Y-150196540D01*
X104911753Y-153198820D02*
X104578420Y-152722630D01*
X104340324Y-153198820D02*
X104340324Y-152198820D01*
X104721277Y-152198820D01*
X104816515Y-152246440D01*
X104864134Y-152294059D01*
X104911753Y-152389297D01*
X104911753Y-152532154D01*
X104864134Y-152627392D01*
X104816515Y-152675011D01*
X104721277Y-152722630D01*
X104340324Y-152722630D01*
X105245086Y-152198820D02*
X105864134Y-152198820D01*
X105530800Y-152579773D01*
X105673658Y-152579773D01*
X105768896Y-152627392D01*
X105816515Y-152675011D01*
X105864134Y-152770249D01*
X105864134Y-153008344D01*
X105816515Y-153103582D01*
X105768896Y-153151201D01*
X105673658Y-153198820D01*
X105387943Y-153198820D01*
X105292705Y-153151201D01*
X105245086Y-153103582D01*
X98747675Y-142813200D02*
X98747675Y-143622724D01*
X98795294Y-143717962D01*
X98842913Y-143765581D01*
X98938151Y-143813200D01*
X99128627Y-143813200D01*
X99223865Y-143765581D01*
X99271484Y-143717962D01*
X99319103Y-143622724D01*
X99319103Y-142813200D01*
X100319103Y-143813200D02*
X99747675Y-143813200D01*
X100033389Y-143813200D02*
X100033389Y-142813200D01*
X99938151Y-142956058D01*
X99842913Y-143051296D01*
X99747675Y-143098915D01*
M02*
