G04 #@! TF.GenerationSoftware,KiCad,Pcbnew,(5.1.4)-1*
G04 #@! TF.CreationDate,2020-12-20T16:29:45-05:00*
G04 #@! TF.ProjectId,circuit,63697263-7569-4742-9e6b-696361645f70,1*
G04 #@! TF.SameCoordinates,Original*
G04 #@! TF.FileFunction,Soldermask,Bot*
G04 #@! TF.FilePolarity,Negative*
%FSLAX46Y46*%
G04 Gerber Fmt 4.6, Leading zero omitted, Abs format (unit mm)*
G04 Created by KiCad (PCBNEW (5.1.4)-1) date 2020-12-20 16:29:45*
%MOMM*%
%LPD*%
G04 APERTURE LIST*
%ADD10C,0.100000*%
G04 APERTURE END LIST*
D10*
G36*
X98922580Y-167583820D02*
G01*
X97820580Y-167583820D01*
X97820580Y-165781820D01*
X98922580Y-165781820D01*
X98922580Y-167583820D01*
X98922580Y-167583820D01*
G37*
G36*
X102722580Y-167583820D02*
G01*
X101620580Y-167583820D01*
X101620580Y-165781820D01*
X102722580Y-165781820D01*
X102722580Y-167583820D01*
X102722580Y-167583820D01*
G37*
G36*
X98922580Y-161283820D02*
G01*
X97820580Y-161283820D01*
X97820580Y-159481820D01*
X98922580Y-159481820D01*
X98922580Y-161283820D01*
X98922580Y-161283820D01*
G37*
G36*
X101627899Y-159481820D02*
G01*
X102722580Y-159481820D01*
X102722580Y-161283820D01*
X101620580Y-161283820D01*
X101620580Y-159481099D01*
X101627899Y-159481820D01*
X101627899Y-159481820D01*
G37*
G36*
X101502900Y-159274021D02*
G01*
X101495581Y-159273300D01*
X99100900Y-159273300D01*
X99100900Y-156871300D01*
X101502900Y-156871300D01*
X101502900Y-159274021D01*
X101502900Y-159274021D01*
G37*
G36*
X100642218Y-136947453D02*
G01*
X100860785Y-137037987D01*
X100860787Y-137037988D01*
X101057493Y-137169422D01*
X101224778Y-137336707D01*
X101356212Y-137533413D01*
X101356213Y-137533415D01*
X101446747Y-137751982D01*
X101492900Y-137984010D01*
X101492900Y-138220590D01*
X101446747Y-138452618D01*
X101356213Y-138671185D01*
X101356212Y-138671187D01*
X101224778Y-138867893D01*
X101057493Y-139035178D01*
X100860787Y-139166612D01*
X100860786Y-139166613D01*
X100860785Y-139166613D01*
X100642218Y-139257147D01*
X100410190Y-139303300D01*
X100173610Y-139303300D01*
X99941582Y-139257147D01*
X99723015Y-139166613D01*
X99723014Y-139166613D01*
X99723013Y-139166612D01*
X99526307Y-139035178D01*
X99359022Y-138867893D01*
X99227588Y-138671187D01*
X99227587Y-138671185D01*
X99137053Y-138452618D01*
X99090900Y-138220590D01*
X99090900Y-137984010D01*
X99137053Y-137751982D01*
X99227587Y-137533415D01*
X99227588Y-137533413D01*
X99359022Y-137336707D01*
X99526307Y-137169422D01*
X99723013Y-137037988D01*
X99723015Y-137037987D01*
X99941582Y-136947453D01*
X100173610Y-136901300D01*
X100410190Y-136901300D01*
X100642218Y-136947453D01*
X100642218Y-136947453D01*
G37*
G36*
X101269678Y-129837853D02*
G01*
X101733930Y-130030152D01*
X101733932Y-130030153D01*
X102151748Y-130309329D01*
X102507071Y-130664652D01*
X102642155Y-130866820D01*
X102786248Y-131082470D01*
X102978547Y-131546722D01*
X103076580Y-132039567D01*
X103076580Y-132542073D01*
X102978547Y-133034918D01*
X102856673Y-133329149D01*
X102786247Y-133499172D01*
X102507071Y-133916988D01*
X102151748Y-134272311D01*
X101733932Y-134551487D01*
X101733931Y-134551488D01*
X101733930Y-134551488D01*
X101269678Y-134743787D01*
X100776833Y-134841820D01*
X100274327Y-134841820D01*
X99781482Y-134743787D01*
X99317230Y-134551488D01*
X99317229Y-134551488D01*
X99317228Y-134551487D01*
X98899412Y-134272311D01*
X98544089Y-133916988D01*
X98264913Y-133499172D01*
X98194487Y-133329149D01*
X98072613Y-133034918D01*
X97974580Y-132542073D01*
X97974580Y-132039567D01*
X98072613Y-131546722D01*
X98264912Y-131082470D01*
X98409005Y-130866820D01*
X98544089Y-130664652D01*
X98899412Y-130309329D01*
X99317228Y-130030153D01*
X99317230Y-130030152D01*
X99781482Y-129837853D01*
X100274327Y-129739820D01*
X100776833Y-129739820D01*
X101269678Y-129837853D01*
X101269678Y-129837853D01*
G37*
M02*
