G04 #@! TF.GenerationSoftware,KiCad,Pcbnew,(5.1.4)-1*
G04 #@! TF.CreationDate,2020-11-14T12:40:31-05:00*
G04 #@! TF.ProjectId,circuit,63697263-7569-4742-9e6b-696361645f70,rev?*
G04 #@! TF.SameCoordinates,Original*
G04 #@! TF.FileFunction,Legend,Bot*
G04 #@! TF.FilePolarity,Positive*
%FSLAX46Y46*%
G04 Gerber Fmt 4.6, Leading zero omitted, Abs format (unit mm)*
G04 Created by KiCad (PCBNEW (5.1.4)-1) date 2020-11-14 12:40:31*
%MOMM*%
%LPD*%
G04 APERTURE LIST*
%ADD10C,0.120000*%
%ADD11C,0.150000*%
G04 APERTURE END LIST*
D10*
X61800000Y-51040000D02*
X62250000Y-50590000D01*
X65200000Y-51040000D02*
X64750000Y-50590000D01*
X65200000Y-55640000D02*
X64750000Y-56090000D01*
X61800000Y-55640000D02*
X62250000Y-56090000D01*
X66250000Y-54340000D02*
X66250000Y-52340000D01*
X62250000Y-50590000D02*
X64750000Y-50590000D01*
X60750000Y-54340000D02*
X60750000Y-52340000D01*
X62250000Y-56090000D02*
X64750000Y-56090000D01*
D11*
X64833333Y-57494761D02*
X64690476Y-57542380D01*
X64452380Y-57542380D01*
X64357142Y-57494761D01*
X64309523Y-57447142D01*
X64261904Y-57351904D01*
X64261904Y-57256666D01*
X64309523Y-57161428D01*
X64357142Y-57113809D01*
X64452380Y-57066190D01*
X64642857Y-57018571D01*
X64738095Y-56970952D01*
X64785714Y-56923333D01*
X64833333Y-56828095D01*
X64833333Y-56732857D01*
X64785714Y-56637619D01*
X64738095Y-56590000D01*
X64642857Y-56542380D01*
X64404761Y-56542380D01*
X64261904Y-56590000D01*
X63928571Y-56542380D02*
X63690476Y-57542380D01*
X63500000Y-56828095D01*
X63309523Y-57542380D01*
X63071428Y-56542380D01*
X62166666Y-57542380D02*
X62738095Y-57542380D01*
X62452380Y-57542380D02*
X62452380Y-56542380D01*
X62547619Y-56685238D01*
X62642857Y-56780476D01*
X62738095Y-56828095D01*
X51689047Y-75001428D02*
X52450952Y-75001428D01*
X52070000Y-75382380D02*
X52070000Y-74620476D01*
X72009047Y-75001428D02*
X72770952Y-75001428D01*
M02*
