G04 #@! TF.GenerationSoftware,KiCad,Pcbnew,(5.1.4)-1*
G04 #@! TF.CreationDate,2020-11-14T12:40:31-05:00*
G04 #@! TF.ProjectId,circuit,63697263-7569-4742-9e6b-696361645f70,rev?*
G04 #@! TF.SameCoordinates,Original*
G04 #@! TF.FileFunction,Copper,L1,Top*
G04 #@! TF.FilePolarity,Positive*
%FSLAX46Y46*%
G04 Gerber Fmt 4.6, Leading zero omitted, Abs format (unit mm)*
G04 Created by KiCad (PCBNEW (5.1.4)-1) date 2020-11-14 12:40:31*
%MOMM*%
%LPD*%
G04 APERTURE LIST*
%ADD10C,0.800000*%
%ADD11C,5.000000*%
%ADD12C,0.100000*%
%ADD13C,1.150000*%
%ADD14R,1.060000X0.650000*%
%ADD15R,2.300000X2.300000*%
%ADD16C,2.300000*%
%ADD17C,0.508000*%
%ADD18C,0.254000*%
G04 APERTURE END LIST*
D10*
X64825825Y-43124175D03*
X63500000Y-42575000D03*
X62174175Y-43124175D03*
X61625000Y-44450000D03*
X62174175Y-45775825D03*
X63500000Y-46325000D03*
X64825825Y-45775825D03*
X65375000Y-44450000D03*
D11*
X63500000Y-44450000D03*
D12*
G36*
X63078505Y-52387204D02*
G01*
X63102773Y-52390804D01*
X63126572Y-52396765D01*
X63149671Y-52405030D01*
X63171850Y-52415520D01*
X63192893Y-52428132D01*
X63212599Y-52442747D01*
X63230777Y-52459223D01*
X63247253Y-52477401D01*
X63261868Y-52497107D01*
X63274480Y-52518150D01*
X63284970Y-52540329D01*
X63293235Y-52563428D01*
X63299196Y-52587227D01*
X63302796Y-52611495D01*
X63304000Y-52635999D01*
X63304000Y-53536001D01*
X63302796Y-53560505D01*
X63299196Y-53584773D01*
X63293235Y-53608572D01*
X63284970Y-53631671D01*
X63274480Y-53653850D01*
X63261868Y-53674893D01*
X63247253Y-53694599D01*
X63230777Y-53712777D01*
X63212599Y-53729253D01*
X63192893Y-53743868D01*
X63171850Y-53756480D01*
X63149671Y-53766970D01*
X63126572Y-53775235D01*
X63102773Y-53781196D01*
X63078505Y-53784796D01*
X63054001Y-53786000D01*
X62403999Y-53786000D01*
X62379495Y-53784796D01*
X62355227Y-53781196D01*
X62331428Y-53775235D01*
X62308329Y-53766970D01*
X62286150Y-53756480D01*
X62265107Y-53743868D01*
X62245401Y-53729253D01*
X62227223Y-53712777D01*
X62210747Y-53694599D01*
X62196132Y-53674893D01*
X62183520Y-53653850D01*
X62173030Y-53631671D01*
X62164765Y-53608572D01*
X62158804Y-53584773D01*
X62155204Y-53560505D01*
X62154000Y-53536001D01*
X62154000Y-52635999D01*
X62155204Y-52611495D01*
X62158804Y-52587227D01*
X62164765Y-52563428D01*
X62173030Y-52540329D01*
X62183520Y-52518150D01*
X62196132Y-52497107D01*
X62210747Y-52477401D01*
X62227223Y-52459223D01*
X62245401Y-52442747D01*
X62265107Y-52428132D01*
X62286150Y-52415520D01*
X62308329Y-52405030D01*
X62331428Y-52396765D01*
X62355227Y-52390804D01*
X62379495Y-52387204D01*
X62403999Y-52386000D01*
X63054001Y-52386000D01*
X63078505Y-52387204D01*
X63078505Y-52387204D01*
G37*
D13*
X62729000Y-53086000D03*
D12*
G36*
X65128505Y-52387204D02*
G01*
X65152773Y-52390804D01*
X65176572Y-52396765D01*
X65199671Y-52405030D01*
X65221850Y-52415520D01*
X65242893Y-52428132D01*
X65262599Y-52442747D01*
X65280777Y-52459223D01*
X65297253Y-52477401D01*
X65311868Y-52497107D01*
X65324480Y-52518150D01*
X65334970Y-52540329D01*
X65343235Y-52563428D01*
X65349196Y-52587227D01*
X65352796Y-52611495D01*
X65354000Y-52635999D01*
X65354000Y-53536001D01*
X65352796Y-53560505D01*
X65349196Y-53584773D01*
X65343235Y-53608572D01*
X65334970Y-53631671D01*
X65324480Y-53653850D01*
X65311868Y-53674893D01*
X65297253Y-53694599D01*
X65280777Y-53712777D01*
X65262599Y-53729253D01*
X65242893Y-53743868D01*
X65221850Y-53756480D01*
X65199671Y-53766970D01*
X65176572Y-53775235D01*
X65152773Y-53781196D01*
X65128505Y-53784796D01*
X65104001Y-53786000D01*
X64453999Y-53786000D01*
X64429495Y-53784796D01*
X64405227Y-53781196D01*
X64381428Y-53775235D01*
X64358329Y-53766970D01*
X64336150Y-53756480D01*
X64315107Y-53743868D01*
X64295401Y-53729253D01*
X64277223Y-53712777D01*
X64260747Y-53694599D01*
X64246132Y-53674893D01*
X64233520Y-53653850D01*
X64223030Y-53631671D01*
X64214765Y-53608572D01*
X64208804Y-53584773D01*
X64205204Y-53560505D01*
X64204000Y-53536001D01*
X64204000Y-52635999D01*
X64205204Y-52611495D01*
X64208804Y-52587227D01*
X64214765Y-52563428D01*
X64223030Y-52540329D01*
X64233520Y-52518150D01*
X64246132Y-52497107D01*
X64260747Y-52477401D01*
X64277223Y-52459223D01*
X64295401Y-52442747D01*
X64315107Y-52428132D01*
X64336150Y-52415520D01*
X64358329Y-52405030D01*
X64381428Y-52396765D01*
X64405227Y-52390804D01*
X64429495Y-52387204D01*
X64453999Y-52386000D01*
X65104001Y-52386000D01*
X65128505Y-52387204D01*
X65128505Y-52387204D01*
G37*
D13*
X64779000Y-53086000D03*
D12*
G36*
X59531505Y-65341204D02*
G01*
X59555773Y-65344804D01*
X59579572Y-65350765D01*
X59602671Y-65359030D01*
X59624850Y-65369520D01*
X59645893Y-65382132D01*
X59665599Y-65396747D01*
X59683777Y-65413223D01*
X59700253Y-65431401D01*
X59714868Y-65451107D01*
X59727480Y-65472150D01*
X59737970Y-65494329D01*
X59746235Y-65517428D01*
X59752196Y-65541227D01*
X59755796Y-65565495D01*
X59757000Y-65589999D01*
X59757000Y-66490001D01*
X59755796Y-66514505D01*
X59752196Y-66538773D01*
X59746235Y-66562572D01*
X59737970Y-66585671D01*
X59727480Y-66607850D01*
X59714868Y-66628893D01*
X59700253Y-66648599D01*
X59683777Y-66666777D01*
X59665599Y-66683253D01*
X59645893Y-66697868D01*
X59624850Y-66710480D01*
X59602671Y-66720970D01*
X59579572Y-66729235D01*
X59555773Y-66735196D01*
X59531505Y-66738796D01*
X59507001Y-66740000D01*
X58856999Y-66740000D01*
X58832495Y-66738796D01*
X58808227Y-66735196D01*
X58784428Y-66729235D01*
X58761329Y-66720970D01*
X58739150Y-66710480D01*
X58718107Y-66697868D01*
X58698401Y-66683253D01*
X58680223Y-66666777D01*
X58663747Y-66648599D01*
X58649132Y-66628893D01*
X58636520Y-66607850D01*
X58626030Y-66585671D01*
X58617765Y-66562572D01*
X58611804Y-66538773D01*
X58608204Y-66514505D01*
X58607000Y-66490001D01*
X58607000Y-65589999D01*
X58608204Y-65565495D01*
X58611804Y-65541227D01*
X58617765Y-65517428D01*
X58626030Y-65494329D01*
X58636520Y-65472150D01*
X58649132Y-65451107D01*
X58663747Y-65431401D01*
X58680223Y-65413223D01*
X58698401Y-65396747D01*
X58718107Y-65382132D01*
X58739150Y-65369520D01*
X58761329Y-65359030D01*
X58784428Y-65350765D01*
X58808227Y-65344804D01*
X58832495Y-65341204D01*
X58856999Y-65340000D01*
X59507001Y-65340000D01*
X59531505Y-65341204D01*
X59531505Y-65341204D01*
G37*
D13*
X59182000Y-66040000D03*
D12*
G36*
X57481505Y-65341204D02*
G01*
X57505773Y-65344804D01*
X57529572Y-65350765D01*
X57552671Y-65359030D01*
X57574850Y-65369520D01*
X57595893Y-65382132D01*
X57615599Y-65396747D01*
X57633777Y-65413223D01*
X57650253Y-65431401D01*
X57664868Y-65451107D01*
X57677480Y-65472150D01*
X57687970Y-65494329D01*
X57696235Y-65517428D01*
X57702196Y-65541227D01*
X57705796Y-65565495D01*
X57707000Y-65589999D01*
X57707000Y-66490001D01*
X57705796Y-66514505D01*
X57702196Y-66538773D01*
X57696235Y-66562572D01*
X57687970Y-66585671D01*
X57677480Y-66607850D01*
X57664868Y-66628893D01*
X57650253Y-66648599D01*
X57633777Y-66666777D01*
X57615599Y-66683253D01*
X57595893Y-66697868D01*
X57574850Y-66710480D01*
X57552671Y-66720970D01*
X57529572Y-66729235D01*
X57505773Y-66735196D01*
X57481505Y-66738796D01*
X57457001Y-66740000D01*
X56806999Y-66740000D01*
X56782495Y-66738796D01*
X56758227Y-66735196D01*
X56734428Y-66729235D01*
X56711329Y-66720970D01*
X56689150Y-66710480D01*
X56668107Y-66697868D01*
X56648401Y-66683253D01*
X56630223Y-66666777D01*
X56613747Y-66648599D01*
X56599132Y-66628893D01*
X56586520Y-66607850D01*
X56576030Y-66585671D01*
X56567765Y-66562572D01*
X56561804Y-66538773D01*
X56558204Y-66514505D01*
X56557000Y-66490001D01*
X56557000Y-65589999D01*
X56558204Y-65565495D01*
X56561804Y-65541227D01*
X56567765Y-65517428D01*
X56576030Y-65494329D01*
X56586520Y-65472150D01*
X56599132Y-65451107D01*
X56613747Y-65431401D01*
X56630223Y-65413223D01*
X56648401Y-65396747D01*
X56668107Y-65382132D01*
X56689150Y-65369520D01*
X56711329Y-65359030D01*
X56734428Y-65350765D01*
X56758227Y-65344804D01*
X56782495Y-65341204D01*
X56806999Y-65340000D01*
X57457001Y-65340000D01*
X57481505Y-65341204D01*
X57481505Y-65341204D01*
G37*
D13*
X57132000Y-66040000D03*
D12*
G36*
X64910506Y-61531204D02*
G01*
X64934774Y-61534804D01*
X64958573Y-61540765D01*
X64981672Y-61549030D01*
X65003851Y-61559520D01*
X65024894Y-61572132D01*
X65044600Y-61586747D01*
X65062778Y-61603223D01*
X65079254Y-61621401D01*
X65093869Y-61641107D01*
X65106481Y-61662150D01*
X65116971Y-61684329D01*
X65125236Y-61707428D01*
X65131197Y-61731227D01*
X65134797Y-61755495D01*
X65136001Y-61779999D01*
X65136001Y-62680001D01*
X65134797Y-62704505D01*
X65131197Y-62728773D01*
X65125236Y-62752572D01*
X65116971Y-62775671D01*
X65106481Y-62797850D01*
X65093869Y-62818893D01*
X65079254Y-62838599D01*
X65062778Y-62856777D01*
X65044600Y-62873253D01*
X65024894Y-62887868D01*
X65003851Y-62900480D01*
X64981672Y-62910970D01*
X64958573Y-62919235D01*
X64934774Y-62925196D01*
X64910506Y-62928796D01*
X64886002Y-62930000D01*
X64236000Y-62930000D01*
X64211496Y-62928796D01*
X64187228Y-62925196D01*
X64163429Y-62919235D01*
X64140330Y-62910970D01*
X64118151Y-62900480D01*
X64097108Y-62887868D01*
X64077402Y-62873253D01*
X64059224Y-62856777D01*
X64042748Y-62838599D01*
X64028133Y-62818893D01*
X64015521Y-62797850D01*
X64005031Y-62775671D01*
X63996766Y-62752572D01*
X63990805Y-62728773D01*
X63987205Y-62704505D01*
X63986001Y-62680001D01*
X63986001Y-61779999D01*
X63987205Y-61755495D01*
X63990805Y-61731227D01*
X63996766Y-61707428D01*
X64005031Y-61684329D01*
X64015521Y-61662150D01*
X64028133Y-61641107D01*
X64042748Y-61621401D01*
X64059224Y-61603223D01*
X64077402Y-61586747D01*
X64097108Y-61572132D01*
X64118151Y-61559520D01*
X64140330Y-61549030D01*
X64163429Y-61540765D01*
X64187228Y-61534804D01*
X64211496Y-61531204D01*
X64236000Y-61530000D01*
X64886002Y-61530000D01*
X64910506Y-61531204D01*
X64910506Y-61531204D01*
G37*
D13*
X64561001Y-62230000D03*
D12*
G36*
X66960506Y-61531204D02*
G01*
X66984774Y-61534804D01*
X67008573Y-61540765D01*
X67031672Y-61549030D01*
X67053851Y-61559520D01*
X67074894Y-61572132D01*
X67094600Y-61586747D01*
X67112778Y-61603223D01*
X67129254Y-61621401D01*
X67143869Y-61641107D01*
X67156481Y-61662150D01*
X67166971Y-61684329D01*
X67175236Y-61707428D01*
X67181197Y-61731227D01*
X67184797Y-61755495D01*
X67186001Y-61779999D01*
X67186001Y-62680001D01*
X67184797Y-62704505D01*
X67181197Y-62728773D01*
X67175236Y-62752572D01*
X67166971Y-62775671D01*
X67156481Y-62797850D01*
X67143869Y-62818893D01*
X67129254Y-62838599D01*
X67112778Y-62856777D01*
X67094600Y-62873253D01*
X67074894Y-62887868D01*
X67053851Y-62900480D01*
X67031672Y-62910970D01*
X67008573Y-62919235D01*
X66984774Y-62925196D01*
X66960506Y-62928796D01*
X66936002Y-62930000D01*
X66286000Y-62930000D01*
X66261496Y-62928796D01*
X66237228Y-62925196D01*
X66213429Y-62919235D01*
X66190330Y-62910970D01*
X66168151Y-62900480D01*
X66147108Y-62887868D01*
X66127402Y-62873253D01*
X66109224Y-62856777D01*
X66092748Y-62838599D01*
X66078133Y-62818893D01*
X66065521Y-62797850D01*
X66055031Y-62775671D01*
X66046766Y-62752572D01*
X66040805Y-62728773D01*
X66037205Y-62704505D01*
X66036001Y-62680001D01*
X66036001Y-61779999D01*
X66037205Y-61755495D01*
X66040805Y-61731227D01*
X66046766Y-61707428D01*
X66055031Y-61684329D01*
X66065521Y-61662150D01*
X66078133Y-61641107D01*
X66092748Y-61621401D01*
X66109224Y-61603223D01*
X66127402Y-61586747D01*
X66147108Y-61572132D01*
X66168151Y-61559520D01*
X66190330Y-61549030D01*
X66213429Y-61540765D01*
X66237228Y-61534804D01*
X66261496Y-61531204D01*
X66286000Y-61530000D01*
X66936002Y-61530000D01*
X66960506Y-61531204D01*
X66960506Y-61531204D01*
G37*
D13*
X66611001Y-62230000D03*
D12*
G36*
X61309505Y-58229204D02*
G01*
X61333773Y-58232804D01*
X61357572Y-58238765D01*
X61380671Y-58247030D01*
X61402850Y-58257520D01*
X61423893Y-58270132D01*
X61443599Y-58284747D01*
X61461777Y-58301223D01*
X61478253Y-58319401D01*
X61492868Y-58339107D01*
X61505480Y-58360150D01*
X61515970Y-58382329D01*
X61524235Y-58405428D01*
X61530196Y-58429227D01*
X61533796Y-58453495D01*
X61535000Y-58477999D01*
X61535000Y-59378001D01*
X61533796Y-59402505D01*
X61530196Y-59426773D01*
X61524235Y-59450572D01*
X61515970Y-59473671D01*
X61505480Y-59495850D01*
X61492868Y-59516893D01*
X61478253Y-59536599D01*
X61461777Y-59554777D01*
X61443599Y-59571253D01*
X61423893Y-59585868D01*
X61402850Y-59598480D01*
X61380671Y-59608970D01*
X61357572Y-59617235D01*
X61333773Y-59623196D01*
X61309505Y-59626796D01*
X61285001Y-59628000D01*
X60634999Y-59628000D01*
X60610495Y-59626796D01*
X60586227Y-59623196D01*
X60562428Y-59617235D01*
X60539329Y-59608970D01*
X60517150Y-59598480D01*
X60496107Y-59585868D01*
X60476401Y-59571253D01*
X60458223Y-59554777D01*
X60441747Y-59536599D01*
X60427132Y-59516893D01*
X60414520Y-59495850D01*
X60404030Y-59473671D01*
X60395765Y-59450572D01*
X60389804Y-59426773D01*
X60386204Y-59402505D01*
X60385000Y-59378001D01*
X60385000Y-58477999D01*
X60386204Y-58453495D01*
X60389804Y-58429227D01*
X60395765Y-58405428D01*
X60404030Y-58382329D01*
X60414520Y-58360150D01*
X60427132Y-58339107D01*
X60441747Y-58319401D01*
X60458223Y-58301223D01*
X60476401Y-58284747D01*
X60496107Y-58270132D01*
X60517150Y-58257520D01*
X60539329Y-58247030D01*
X60562428Y-58238765D01*
X60586227Y-58232804D01*
X60610495Y-58229204D01*
X60634999Y-58228000D01*
X61285001Y-58228000D01*
X61309505Y-58229204D01*
X61309505Y-58229204D01*
G37*
D13*
X60960000Y-58928000D03*
D12*
G36*
X59259505Y-58229204D02*
G01*
X59283773Y-58232804D01*
X59307572Y-58238765D01*
X59330671Y-58247030D01*
X59352850Y-58257520D01*
X59373893Y-58270132D01*
X59393599Y-58284747D01*
X59411777Y-58301223D01*
X59428253Y-58319401D01*
X59442868Y-58339107D01*
X59455480Y-58360150D01*
X59465970Y-58382329D01*
X59474235Y-58405428D01*
X59480196Y-58429227D01*
X59483796Y-58453495D01*
X59485000Y-58477999D01*
X59485000Y-59378001D01*
X59483796Y-59402505D01*
X59480196Y-59426773D01*
X59474235Y-59450572D01*
X59465970Y-59473671D01*
X59455480Y-59495850D01*
X59442868Y-59516893D01*
X59428253Y-59536599D01*
X59411777Y-59554777D01*
X59393599Y-59571253D01*
X59373893Y-59585868D01*
X59352850Y-59598480D01*
X59330671Y-59608970D01*
X59307572Y-59617235D01*
X59283773Y-59623196D01*
X59259505Y-59626796D01*
X59235001Y-59628000D01*
X58584999Y-59628000D01*
X58560495Y-59626796D01*
X58536227Y-59623196D01*
X58512428Y-59617235D01*
X58489329Y-59608970D01*
X58467150Y-59598480D01*
X58446107Y-59585868D01*
X58426401Y-59571253D01*
X58408223Y-59554777D01*
X58391747Y-59536599D01*
X58377132Y-59516893D01*
X58364520Y-59495850D01*
X58354030Y-59473671D01*
X58345765Y-59450572D01*
X58339804Y-59426773D01*
X58336204Y-59402505D01*
X58335000Y-59378001D01*
X58335000Y-58477999D01*
X58336204Y-58453495D01*
X58339804Y-58429227D01*
X58345765Y-58405428D01*
X58354030Y-58382329D01*
X58364520Y-58360150D01*
X58377132Y-58339107D01*
X58391747Y-58319401D01*
X58408223Y-58301223D01*
X58426401Y-58284747D01*
X58446107Y-58270132D01*
X58467150Y-58257520D01*
X58489329Y-58247030D01*
X58512428Y-58238765D01*
X58536227Y-58232804D01*
X58560495Y-58229204D01*
X58584999Y-58228000D01*
X59235001Y-58228000D01*
X59259505Y-58229204D01*
X59259505Y-58229204D01*
G37*
D13*
X58910000Y-58928000D03*
D12*
G36*
X61563505Y-69913204D02*
G01*
X61587773Y-69916804D01*
X61611572Y-69922765D01*
X61634671Y-69931030D01*
X61656850Y-69941520D01*
X61677893Y-69954132D01*
X61697599Y-69968747D01*
X61715777Y-69985223D01*
X61732253Y-70003401D01*
X61746868Y-70023107D01*
X61759480Y-70044150D01*
X61769970Y-70066329D01*
X61778235Y-70089428D01*
X61784196Y-70113227D01*
X61787796Y-70137495D01*
X61789000Y-70161999D01*
X61789000Y-71062001D01*
X61787796Y-71086505D01*
X61784196Y-71110773D01*
X61778235Y-71134572D01*
X61769970Y-71157671D01*
X61759480Y-71179850D01*
X61746868Y-71200893D01*
X61732253Y-71220599D01*
X61715777Y-71238777D01*
X61697599Y-71255253D01*
X61677893Y-71269868D01*
X61656850Y-71282480D01*
X61634671Y-71292970D01*
X61611572Y-71301235D01*
X61587773Y-71307196D01*
X61563505Y-71310796D01*
X61539001Y-71312000D01*
X60888999Y-71312000D01*
X60864495Y-71310796D01*
X60840227Y-71307196D01*
X60816428Y-71301235D01*
X60793329Y-71292970D01*
X60771150Y-71282480D01*
X60750107Y-71269868D01*
X60730401Y-71255253D01*
X60712223Y-71238777D01*
X60695747Y-71220599D01*
X60681132Y-71200893D01*
X60668520Y-71179850D01*
X60658030Y-71157671D01*
X60649765Y-71134572D01*
X60643804Y-71110773D01*
X60640204Y-71086505D01*
X60639000Y-71062001D01*
X60639000Y-70161999D01*
X60640204Y-70137495D01*
X60643804Y-70113227D01*
X60649765Y-70089428D01*
X60658030Y-70066329D01*
X60668520Y-70044150D01*
X60681132Y-70023107D01*
X60695747Y-70003401D01*
X60712223Y-69985223D01*
X60730401Y-69968747D01*
X60750107Y-69954132D01*
X60771150Y-69941520D01*
X60793329Y-69931030D01*
X60816428Y-69922765D01*
X60840227Y-69916804D01*
X60864495Y-69913204D01*
X60888999Y-69912000D01*
X61539001Y-69912000D01*
X61563505Y-69913204D01*
X61563505Y-69913204D01*
G37*
D13*
X61214000Y-70612000D03*
D12*
G36*
X59513505Y-69913204D02*
G01*
X59537773Y-69916804D01*
X59561572Y-69922765D01*
X59584671Y-69931030D01*
X59606850Y-69941520D01*
X59627893Y-69954132D01*
X59647599Y-69968747D01*
X59665777Y-69985223D01*
X59682253Y-70003401D01*
X59696868Y-70023107D01*
X59709480Y-70044150D01*
X59719970Y-70066329D01*
X59728235Y-70089428D01*
X59734196Y-70113227D01*
X59737796Y-70137495D01*
X59739000Y-70161999D01*
X59739000Y-71062001D01*
X59737796Y-71086505D01*
X59734196Y-71110773D01*
X59728235Y-71134572D01*
X59719970Y-71157671D01*
X59709480Y-71179850D01*
X59696868Y-71200893D01*
X59682253Y-71220599D01*
X59665777Y-71238777D01*
X59647599Y-71255253D01*
X59627893Y-71269868D01*
X59606850Y-71282480D01*
X59584671Y-71292970D01*
X59561572Y-71301235D01*
X59537773Y-71307196D01*
X59513505Y-71310796D01*
X59489001Y-71312000D01*
X58838999Y-71312000D01*
X58814495Y-71310796D01*
X58790227Y-71307196D01*
X58766428Y-71301235D01*
X58743329Y-71292970D01*
X58721150Y-71282480D01*
X58700107Y-71269868D01*
X58680401Y-71255253D01*
X58662223Y-71238777D01*
X58645747Y-71220599D01*
X58631132Y-71200893D01*
X58618520Y-71179850D01*
X58608030Y-71157671D01*
X58599765Y-71134572D01*
X58593804Y-71110773D01*
X58590204Y-71086505D01*
X58589000Y-71062001D01*
X58589000Y-70161999D01*
X58590204Y-70137495D01*
X58593804Y-70113227D01*
X58599765Y-70089428D01*
X58608030Y-70066329D01*
X58618520Y-70044150D01*
X58631132Y-70023107D01*
X58645747Y-70003401D01*
X58662223Y-69985223D01*
X58680401Y-69968747D01*
X58700107Y-69954132D01*
X58721150Y-69941520D01*
X58743329Y-69931030D01*
X58766428Y-69922765D01*
X58790227Y-69916804D01*
X58814495Y-69913204D01*
X58838999Y-69912000D01*
X59489001Y-69912000D01*
X59513505Y-69913204D01*
X59513505Y-69913204D01*
G37*
D13*
X59164000Y-70612000D03*
D12*
G36*
X69174505Y-64071204D02*
G01*
X69198773Y-64074804D01*
X69222572Y-64080765D01*
X69245671Y-64089030D01*
X69267850Y-64099520D01*
X69288893Y-64112132D01*
X69308599Y-64126747D01*
X69326777Y-64143223D01*
X69343253Y-64161401D01*
X69357868Y-64181107D01*
X69370480Y-64202150D01*
X69380970Y-64224329D01*
X69389235Y-64247428D01*
X69395196Y-64271227D01*
X69398796Y-64295495D01*
X69400000Y-64319999D01*
X69400000Y-65220001D01*
X69398796Y-65244505D01*
X69395196Y-65268773D01*
X69389235Y-65292572D01*
X69380970Y-65315671D01*
X69370480Y-65337850D01*
X69357868Y-65358893D01*
X69343253Y-65378599D01*
X69326777Y-65396777D01*
X69308599Y-65413253D01*
X69288893Y-65427868D01*
X69267850Y-65440480D01*
X69245671Y-65450970D01*
X69222572Y-65459235D01*
X69198773Y-65465196D01*
X69174505Y-65468796D01*
X69150001Y-65470000D01*
X68499999Y-65470000D01*
X68475495Y-65468796D01*
X68451227Y-65465196D01*
X68427428Y-65459235D01*
X68404329Y-65450970D01*
X68382150Y-65440480D01*
X68361107Y-65427868D01*
X68341401Y-65413253D01*
X68323223Y-65396777D01*
X68306747Y-65378599D01*
X68292132Y-65358893D01*
X68279520Y-65337850D01*
X68269030Y-65315671D01*
X68260765Y-65292572D01*
X68254804Y-65268773D01*
X68251204Y-65244505D01*
X68250000Y-65220001D01*
X68250000Y-64319999D01*
X68251204Y-64295495D01*
X68254804Y-64271227D01*
X68260765Y-64247428D01*
X68269030Y-64224329D01*
X68279520Y-64202150D01*
X68292132Y-64181107D01*
X68306747Y-64161401D01*
X68323223Y-64143223D01*
X68341401Y-64126747D01*
X68361107Y-64112132D01*
X68382150Y-64099520D01*
X68404329Y-64089030D01*
X68427428Y-64080765D01*
X68451227Y-64074804D01*
X68475495Y-64071204D01*
X68499999Y-64070000D01*
X69150001Y-64070000D01*
X69174505Y-64071204D01*
X69174505Y-64071204D01*
G37*
D13*
X68825000Y-64770000D03*
D12*
G36*
X71224505Y-64071204D02*
G01*
X71248773Y-64074804D01*
X71272572Y-64080765D01*
X71295671Y-64089030D01*
X71317850Y-64099520D01*
X71338893Y-64112132D01*
X71358599Y-64126747D01*
X71376777Y-64143223D01*
X71393253Y-64161401D01*
X71407868Y-64181107D01*
X71420480Y-64202150D01*
X71430970Y-64224329D01*
X71439235Y-64247428D01*
X71445196Y-64271227D01*
X71448796Y-64295495D01*
X71450000Y-64319999D01*
X71450000Y-65220001D01*
X71448796Y-65244505D01*
X71445196Y-65268773D01*
X71439235Y-65292572D01*
X71430970Y-65315671D01*
X71420480Y-65337850D01*
X71407868Y-65358893D01*
X71393253Y-65378599D01*
X71376777Y-65396777D01*
X71358599Y-65413253D01*
X71338893Y-65427868D01*
X71317850Y-65440480D01*
X71295671Y-65450970D01*
X71272572Y-65459235D01*
X71248773Y-65465196D01*
X71224505Y-65468796D01*
X71200001Y-65470000D01*
X70549999Y-65470000D01*
X70525495Y-65468796D01*
X70501227Y-65465196D01*
X70477428Y-65459235D01*
X70454329Y-65450970D01*
X70432150Y-65440480D01*
X70411107Y-65427868D01*
X70391401Y-65413253D01*
X70373223Y-65396777D01*
X70356747Y-65378599D01*
X70342132Y-65358893D01*
X70329520Y-65337850D01*
X70319030Y-65315671D01*
X70310765Y-65292572D01*
X70304804Y-65268773D01*
X70301204Y-65244505D01*
X70300000Y-65220001D01*
X70300000Y-64319999D01*
X70301204Y-64295495D01*
X70304804Y-64271227D01*
X70310765Y-64247428D01*
X70319030Y-64224329D01*
X70329520Y-64202150D01*
X70342132Y-64181107D01*
X70356747Y-64161401D01*
X70373223Y-64143223D01*
X70391401Y-64126747D01*
X70411107Y-64112132D01*
X70432150Y-64099520D01*
X70454329Y-64089030D01*
X70477428Y-64080765D01*
X70501227Y-64074804D01*
X70525495Y-64071204D01*
X70549999Y-64070000D01*
X71200001Y-64070000D01*
X71224505Y-64071204D01*
X71224505Y-64071204D01*
G37*
D13*
X70875000Y-64770000D03*
D14*
X62400000Y-65090000D03*
X62400000Y-66040000D03*
X62400000Y-66990000D03*
X64600000Y-66990000D03*
X64600000Y-65090000D03*
X64600000Y-66040000D03*
D15*
X54640000Y-73650000D03*
D16*
X74610000Y-73660000D03*
D10*
X66675000Y-51435000D03*
X60325000Y-51435000D03*
X61976000Y-82550000D03*
X63500000Y-82550000D03*
X65024000Y-82550000D03*
X66650000Y-55240000D03*
X60350000Y-55240000D03*
D17*
X63562000Y-66040000D02*
X64600000Y-66040000D01*
X63500000Y-66102000D02*
X63562000Y-66040000D01*
X63500000Y-72390000D02*
X63500000Y-66102000D01*
X62240000Y-73650000D02*
X63500000Y-72390000D01*
X54640000Y-73650000D02*
X62240000Y-73650000D01*
D18*
X64561001Y-62230000D02*
X64561001Y-57195001D01*
X60057990Y-58238992D02*
X60057990Y-64481990D01*
X60057990Y-64481990D02*
X61616000Y-66040000D01*
X60395992Y-57900990D02*
X60057990Y-58238992D01*
X61616000Y-66040000D02*
X62400000Y-66040000D01*
X61524008Y-57900990D02*
X60395992Y-57900990D01*
X64561001Y-60937983D02*
X61524008Y-57900990D01*
X64561001Y-62230000D02*
X64561001Y-60937983D01*
D17*
X64155628Y-53709372D02*
X64779000Y-53086000D01*
X63624990Y-54240010D02*
X64155628Y-53709372D01*
X60086068Y-54240010D02*
X63624990Y-54240010D01*
X58910000Y-55416078D02*
X60086068Y-54240010D01*
X58910000Y-58928000D02*
X58910000Y-55416078D01*
X61214000Y-68072000D02*
X59182000Y-66040000D01*
X61214000Y-70612000D02*
X61214000Y-68072000D01*
X68335000Y-62230000D02*
X66611001Y-62230000D01*
X70875000Y-64770000D02*
X68335000Y-62230000D01*
X62400000Y-60368000D02*
X60960000Y-58928000D01*
X62400000Y-65090000D02*
X62400000Y-60368000D01*
X62400000Y-66990000D02*
X62195000Y-66990000D01*
X62400000Y-66990000D02*
X62400000Y-71966000D01*
X60518000Y-71966000D02*
X59164000Y-70612000D01*
X62400000Y-71966000D02*
X60518000Y-71966000D01*
X66605000Y-66990000D02*
X68825000Y-64770000D01*
X64600000Y-66990000D02*
X66605000Y-66990000D01*
D18*
X65708991Y-61540992D02*
X68829983Y-58420000D01*
X65708991Y-64186009D02*
X65708991Y-61540992D01*
X64600000Y-65090000D02*
X64805000Y-65090000D01*
X64805000Y-65090000D02*
X65708991Y-64186009D01*
X68829983Y-58420000D02*
X68829983Y-57399983D01*
X68829983Y-57399983D02*
X67310000Y-55880000D01*
X67310000Y-55880000D02*
X67290000Y-55880000D01*
X67290000Y-55880000D02*
X66650000Y-55240000D01*
X66650000Y-55240000D02*
X60350000Y-55240000D01*
G36*
X69886778Y-52680000D02*
G01*
X68612757Y-52680000D01*
X68580693Y-52676808D01*
X68547934Y-52680000D01*
X68547581Y-52680000D01*
X68514866Y-52683222D01*
X68451299Y-52689416D01*
X68450971Y-52689515D01*
X68450617Y-52689550D01*
X68387927Y-52708567D01*
X68326849Y-52727025D01*
X68326543Y-52727188D01*
X68326207Y-52727290D01*
X68268531Y-52758118D01*
X68212127Y-52788191D01*
X68211861Y-52788409D01*
X68211550Y-52788575D01*
X68161126Y-52829957D01*
X68111543Y-52870562D01*
X68111323Y-52870830D01*
X68111052Y-52871052D01*
X68069507Y-52921674D01*
X68028962Y-52970974D01*
X68028801Y-52971275D01*
X68028575Y-52971550D01*
X67997765Y-53029191D01*
X67967556Y-53085566D01*
X67967455Y-53085899D01*
X67967290Y-53086207D01*
X67948274Y-53148892D01*
X67929687Y-53209938D01*
X67929653Y-53210276D01*
X67929550Y-53210617D01*
X67923113Y-53275974D01*
X67916808Y-53339307D01*
X67916841Y-53339650D01*
X67916807Y-53340000D01*
X67923224Y-53405157D01*
X67929416Y-53468701D01*
X67929515Y-53469029D01*
X67929550Y-53469383D01*
X67948567Y-53532073D01*
X67967025Y-53593151D01*
X67967188Y-53593457D01*
X67967290Y-53593793D01*
X67997963Y-53651178D01*
X68012864Y-53679127D01*
X68013054Y-53679412D01*
X68028575Y-53708450D01*
X68049024Y-53733367D01*
X72426778Y-60300000D01*
X71152757Y-60300000D01*
X71120693Y-60296808D01*
X71087934Y-60300000D01*
X71087581Y-60300000D01*
X71054866Y-60303222D01*
X70991299Y-60309416D01*
X70990971Y-60309515D01*
X70990617Y-60309550D01*
X70927927Y-60328567D01*
X70866849Y-60347025D01*
X70866543Y-60347188D01*
X70866207Y-60347290D01*
X70808531Y-60378118D01*
X70752127Y-60408191D01*
X70751861Y-60408409D01*
X70751550Y-60408575D01*
X70701126Y-60449957D01*
X70651543Y-60490562D01*
X70651323Y-60490830D01*
X70651052Y-60491052D01*
X70609507Y-60541674D01*
X70568962Y-60590974D01*
X70568801Y-60591275D01*
X70568575Y-60591550D01*
X70537765Y-60649191D01*
X70507556Y-60705566D01*
X70507455Y-60705899D01*
X70507290Y-60706207D01*
X70488274Y-60768892D01*
X70469687Y-60829938D01*
X70469653Y-60830276D01*
X70469550Y-60830617D01*
X70463113Y-60895974D01*
X70456808Y-60959307D01*
X70456841Y-60959650D01*
X70456807Y-60960000D01*
X70463224Y-61025157D01*
X70469416Y-61088701D01*
X70469515Y-61089029D01*
X70469550Y-61089383D01*
X70488557Y-61152038D01*
X70507025Y-61213151D01*
X70507188Y-61213457D01*
X70507290Y-61213793D01*
X70537963Y-61271178D01*
X70552864Y-61299127D01*
X70553054Y-61299412D01*
X70568575Y-61328450D01*
X70589024Y-61353367D01*
X74966778Y-67920000D01*
X73692757Y-67920000D01*
X73660693Y-67916808D01*
X73627934Y-67920000D01*
X73627581Y-67920000D01*
X73594866Y-67923222D01*
X73531299Y-67929416D01*
X73530971Y-67929515D01*
X73530617Y-67929550D01*
X73467927Y-67948567D01*
X73406849Y-67967025D01*
X73406543Y-67967188D01*
X73406207Y-67967290D01*
X73348531Y-67998118D01*
X73292127Y-68028191D01*
X73291861Y-68028409D01*
X73291550Y-68028575D01*
X73241126Y-68069957D01*
X73191543Y-68110562D01*
X73191323Y-68110830D01*
X73191052Y-68111052D01*
X73149507Y-68161674D01*
X73108962Y-68210974D01*
X73108801Y-68211275D01*
X73108575Y-68211550D01*
X73077765Y-68269191D01*
X73047556Y-68325566D01*
X73047455Y-68325899D01*
X73047290Y-68326207D01*
X73028274Y-68388892D01*
X73009687Y-68449938D01*
X73009653Y-68450276D01*
X73009550Y-68450617D01*
X73003113Y-68515974D01*
X72996808Y-68579307D01*
X72996841Y-68579650D01*
X72996807Y-68580000D01*
X73003224Y-68645157D01*
X73009416Y-68708701D01*
X73009515Y-68709029D01*
X73009550Y-68709383D01*
X73028567Y-68772073D01*
X73047025Y-68833151D01*
X73047188Y-68833457D01*
X73047290Y-68833793D01*
X73077963Y-68891178D01*
X73092864Y-68919127D01*
X73093054Y-68919412D01*
X73108575Y-68948450D01*
X73129024Y-68973367D01*
X75110991Y-71946318D01*
X74904174Y-71890651D01*
X74553339Y-71867259D01*
X74204681Y-71912760D01*
X73871600Y-72025406D01*
X73661118Y-72137910D01*
X73547256Y-72417651D01*
X74610000Y-73480395D01*
X74624143Y-73466253D01*
X74803748Y-73645858D01*
X74789605Y-73660000D01*
X75852349Y-74722744D01*
X76132090Y-74608882D01*
X76287961Y-74293704D01*
X76379349Y-73954174D01*
X76385733Y-73858431D01*
X77506778Y-75540000D01*
X66072419Y-75540000D01*
X66040000Y-75536807D01*
X66007581Y-75540000D01*
X65910617Y-75549550D01*
X65786207Y-75587290D01*
X65671550Y-75648575D01*
X65571052Y-75731052D01*
X65488575Y-75831550D01*
X65427290Y-75946207D01*
X65389550Y-76070617D01*
X65376807Y-76200000D01*
X65380001Y-76232429D01*
X65380000Y-83160000D01*
X61620000Y-83160000D01*
X61620000Y-76232419D01*
X61623193Y-76200000D01*
X61610450Y-76070617D01*
X61572710Y-75946207D01*
X61511425Y-75831550D01*
X61428948Y-75731052D01*
X61328450Y-75648575D01*
X61213793Y-75587290D01*
X61089383Y-75549550D01*
X60992419Y-75540000D01*
X60960000Y-75536807D01*
X60927581Y-75540000D01*
X49493221Y-75540000D01*
X51519887Y-72500000D01*
X52851928Y-72500000D01*
X52851928Y-74800000D01*
X52864188Y-74924482D01*
X52900498Y-75044180D01*
X52959463Y-75154494D01*
X53038815Y-75251185D01*
X53135506Y-75330537D01*
X53245820Y-75389502D01*
X53365518Y-75425812D01*
X53490000Y-75438072D01*
X55790000Y-75438072D01*
X55914482Y-75425812D01*
X56034180Y-75389502D01*
X56144494Y-75330537D01*
X56241185Y-75251185D01*
X56320537Y-75154494D01*
X56379502Y-75044180D01*
X56415812Y-74924482D01*
X56417991Y-74902349D01*
X73547256Y-74902349D01*
X73661118Y-75182090D01*
X73976296Y-75337961D01*
X74315826Y-75429349D01*
X74666661Y-75452741D01*
X75015319Y-75407240D01*
X75348400Y-75294594D01*
X75558882Y-75182090D01*
X75672744Y-74902349D01*
X74610000Y-73839605D01*
X73547256Y-74902349D01*
X56417991Y-74902349D01*
X56428072Y-74800000D01*
X56428072Y-74539000D01*
X62196340Y-74539000D01*
X62240000Y-74543300D01*
X62283660Y-74539000D01*
X62283667Y-74539000D01*
X62414274Y-74526136D01*
X62581851Y-74475303D01*
X62736291Y-74392753D01*
X62871659Y-74281659D01*
X62899499Y-74247736D01*
X63430574Y-73716661D01*
X72817259Y-73716661D01*
X72862760Y-74065319D01*
X72975406Y-74398400D01*
X73087910Y-74608882D01*
X73367651Y-74722744D01*
X74430395Y-73660000D01*
X73367651Y-72597256D01*
X73087910Y-72711118D01*
X72932039Y-73026296D01*
X72840651Y-73365826D01*
X72817259Y-73716661D01*
X63430574Y-73716661D01*
X64097743Y-73049493D01*
X64131659Y-73021659D01*
X64242753Y-72886291D01*
X64325303Y-72731851D01*
X64366009Y-72597659D01*
X64376136Y-72564276D01*
X64379406Y-72531076D01*
X64389000Y-72433667D01*
X64389000Y-72433661D01*
X64393300Y-72390001D01*
X64389000Y-72346341D01*
X64389000Y-67953072D01*
X65130000Y-67953072D01*
X65254482Y-67940812D01*
X65374180Y-67904502D01*
X65421890Y-67879000D01*
X66561340Y-67879000D01*
X66605000Y-67883300D01*
X66648660Y-67879000D01*
X66648667Y-67879000D01*
X66779274Y-67866136D01*
X66946851Y-67815303D01*
X67101291Y-67732753D01*
X67236659Y-67621659D01*
X67264499Y-67587736D01*
X68744164Y-66108072D01*
X69150001Y-66108072D01*
X69323255Y-66091008D01*
X69489851Y-66040472D01*
X69643387Y-65958405D01*
X69777962Y-65847962D01*
X69850000Y-65760184D01*
X69922038Y-65847962D01*
X70056613Y-65958405D01*
X70210149Y-66040472D01*
X70376745Y-66091008D01*
X70549999Y-66108072D01*
X71200001Y-66108072D01*
X71373255Y-66091008D01*
X71539851Y-66040472D01*
X71693387Y-65958405D01*
X71827962Y-65847962D01*
X71938405Y-65713387D01*
X72020472Y-65559851D01*
X72071008Y-65393255D01*
X72088072Y-65220001D01*
X72088072Y-64319999D01*
X72071008Y-64146745D01*
X72020472Y-63980149D01*
X71938405Y-63826613D01*
X71827962Y-63692038D01*
X71693387Y-63581595D01*
X71539851Y-63499528D01*
X71373255Y-63448992D01*
X71200001Y-63431928D01*
X70794164Y-63431928D01*
X68994499Y-61632264D01*
X68966659Y-61598341D01*
X68831291Y-61487247D01*
X68676851Y-61404697D01*
X68509274Y-61353864D01*
X68378667Y-61341000D01*
X68378660Y-61341000D01*
X68335000Y-61336700D01*
X68291340Y-61341000D01*
X67703477Y-61341000D01*
X67674406Y-61286613D01*
X67563963Y-61152038D01*
X67429388Y-61041595D01*
X67335958Y-60991655D01*
X69342336Y-58985278D01*
X69371405Y-58961422D01*
X69466628Y-58845392D01*
X69537385Y-58713015D01*
X69580957Y-58569378D01*
X69591983Y-58457426D01*
X69591983Y-58457424D01*
X69595669Y-58420001D01*
X69591983Y-58382578D01*
X69591983Y-57437406D01*
X69595669Y-57399983D01*
X69591983Y-57362557D01*
X69580957Y-57250605D01*
X69537385Y-57106968D01*
X69504448Y-57045347D01*
X69466628Y-56974590D01*
X69431840Y-56932202D01*
X69371405Y-56858561D01*
X69342329Y-56834699D01*
X67875284Y-55367654D01*
X67851422Y-55338578D01*
X67735392Y-55243355D01*
X67725925Y-55238295D01*
X67685000Y-55197370D01*
X67685000Y-55138061D01*
X67645226Y-54938102D01*
X67567205Y-54749744D01*
X67453937Y-54580226D01*
X67309774Y-54436063D01*
X67140256Y-54322795D01*
X66951898Y-54244774D01*
X66751939Y-54205000D01*
X66548061Y-54205000D01*
X66348102Y-54244774D01*
X66159744Y-54322795D01*
X65990226Y-54436063D01*
X65948289Y-54478000D01*
X64644235Y-54478000D01*
X64698163Y-54424072D01*
X65104001Y-54424072D01*
X65277255Y-54407008D01*
X65443851Y-54356472D01*
X65597387Y-54274405D01*
X65731962Y-54163962D01*
X65842405Y-54029387D01*
X65924472Y-53875851D01*
X65975008Y-53709255D01*
X65992072Y-53536001D01*
X65992072Y-52635999D01*
X65975008Y-52462745D01*
X65924472Y-52296149D01*
X65842405Y-52142613D01*
X65731962Y-52008038D01*
X65597387Y-51897595D01*
X65443851Y-51815528D01*
X65277255Y-51764992D01*
X65104001Y-51747928D01*
X64453999Y-51747928D01*
X64280745Y-51764992D01*
X64114149Y-51815528D01*
X63960613Y-51897595D01*
X63826038Y-52008038D01*
X63820658Y-52014594D01*
X63755185Y-51934815D01*
X63658494Y-51855463D01*
X63548180Y-51796498D01*
X63428482Y-51760188D01*
X63304000Y-51747928D01*
X63014750Y-51751000D01*
X62856000Y-51909750D01*
X62856000Y-52959000D01*
X62876000Y-52959000D01*
X62876000Y-53213000D01*
X62856000Y-53213000D01*
X62856000Y-53233000D01*
X62602000Y-53233000D01*
X62602000Y-53213000D01*
X61677750Y-53213000D01*
X61539740Y-53351010D01*
X60129727Y-53351010D01*
X60086067Y-53346710D01*
X60042407Y-53351010D01*
X60042401Y-53351010D01*
X59944992Y-53360604D01*
X59911792Y-53363874D01*
X59810126Y-53394714D01*
X59744217Y-53414707D01*
X59589777Y-53497257D01*
X59454409Y-53608351D01*
X59426569Y-53642274D01*
X58312259Y-54756584D01*
X58278342Y-54784419D01*
X58250507Y-54818336D01*
X58250505Y-54818338D01*
X58167248Y-54919787D01*
X58084698Y-55074226D01*
X58033864Y-55241804D01*
X58016700Y-55416078D01*
X58021001Y-55459748D01*
X58021000Y-57797545D01*
X57957038Y-57850038D01*
X57846595Y-57984613D01*
X57764528Y-58138149D01*
X57713992Y-58304745D01*
X57696928Y-58477999D01*
X57696928Y-59378001D01*
X57713992Y-59551255D01*
X57764528Y-59717851D01*
X57846595Y-59871387D01*
X57957038Y-60005962D01*
X58091613Y-60116405D01*
X58245149Y-60198472D01*
X58411745Y-60249008D01*
X58584999Y-60266072D01*
X59235001Y-60266072D01*
X59408255Y-60249008D01*
X59574851Y-60198472D01*
X59728387Y-60116405D01*
X59862962Y-60005962D01*
X59935000Y-59918184D01*
X60007038Y-60005962D01*
X60141613Y-60116405D01*
X60295149Y-60198472D01*
X60461745Y-60249008D01*
X60634999Y-60266072D01*
X61040837Y-60266072D01*
X61511001Y-60736237D01*
X61511000Y-64238161D01*
X61418815Y-64313815D01*
X61339463Y-64410506D01*
X61280498Y-64520820D01*
X61244188Y-64640518D01*
X61231928Y-64765000D01*
X61231928Y-65415000D01*
X61244188Y-65539482D01*
X61251929Y-65565000D01*
X61244188Y-65590518D01*
X61231928Y-65715000D01*
X61235000Y-65754250D01*
X61393750Y-65913000D01*
X61475859Y-65913000D01*
X61515506Y-65945537D01*
X61625820Y-66004502D01*
X61742841Y-66040000D01*
X61625820Y-66075498D01*
X61515506Y-66134463D01*
X61475859Y-66167000D01*
X61393750Y-66167000D01*
X61235000Y-66325750D01*
X61231928Y-66365000D01*
X61244188Y-66489482D01*
X61251929Y-66515000D01*
X61244188Y-66540518D01*
X61231928Y-66665000D01*
X61231928Y-66832692D01*
X60395072Y-65995837D01*
X60395072Y-65589999D01*
X60378008Y-65416745D01*
X60327472Y-65250149D01*
X60245405Y-65096613D01*
X60134962Y-64962038D01*
X60000387Y-64851595D01*
X59846851Y-64769528D01*
X59680255Y-64718992D01*
X59507001Y-64701928D01*
X58856999Y-64701928D01*
X58683745Y-64718992D01*
X58517149Y-64769528D01*
X58363613Y-64851595D01*
X58229038Y-64962038D01*
X58223658Y-64968594D01*
X58158185Y-64888815D01*
X58061494Y-64809463D01*
X57951180Y-64750498D01*
X57831482Y-64714188D01*
X57707000Y-64701928D01*
X57417750Y-64705000D01*
X57259000Y-64863750D01*
X57259000Y-65913000D01*
X57279000Y-65913000D01*
X57279000Y-66167000D01*
X57259000Y-66167000D01*
X57259000Y-67216250D01*
X57417750Y-67375000D01*
X57707000Y-67378072D01*
X57831482Y-67365812D01*
X57951180Y-67329502D01*
X58061494Y-67270537D01*
X58158185Y-67191185D01*
X58223658Y-67111406D01*
X58229038Y-67117962D01*
X58363613Y-67228405D01*
X58517149Y-67310472D01*
X58683745Y-67361008D01*
X58856999Y-67378072D01*
X59262837Y-67378072D01*
X60325001Y-68440237D01*
X60325000Y-69481545D01*
X60261038Y-69534038D01*
X60189000Y-69621816D01*
X60116962Y-69534038D01*
X59982387Y-69423595D01*
X59828851Y-69341528D01*
X59662255Y-69290992D01*
X59489001Y-69273928D01*
X58838999Y-69273928D01*
X58665745Y-69290992D01*
X58499149Y-69341528D01*
X58345613Y-69423595D01*
X58211038Y-69534038D01*
X58100595Y-69668613D01*
X58018528Y-69822149D01*
X57967992Y-69988745D01*
X57950928Y-70161999D01*
X57950928Y-71062001D01*
X57967992Y-71235255D01*
X58018528Y-71401851D01*
X58100595Y-71555387D01*
X58211038Y-71689962D01*
X58345613Y-71800405D01*
X58499149Y-71882472D01*
X58665745Y-71933008D01*
X58838999Y-71950072D01*
X59244836Y-71950072D01*
X59858506Y-72563741D01*
X59886341Y-72597659D01*
X60021709Y-72708753D01*
X60119456Y-72761000D01*
X56428072Y-72761000D01*
X56428072Y-72500000D01*
X56415812Y-72375518D01*
X56379502Y-72255820D01*
X56320537Y-72145506D01*
X56241185Y-72048815D01*
X56144494Y-71969463D01*
X56034180Y-71910498D01*
X55914482Y-71874188D01*
X55790000Y-71861928D01*
X53490000Y-71861928D01*
X53365518Y-71874188D01*
X53245820Y-71910498D01*
X53135506Y-71969463D01*
X53038815Y-72048815D01*
X52959463Y-72145506D01*
X52900498Y-72255820D01*
X52864188Y-72375518D01*
X52851928Y-72500000D01*
X51519887Y-72500000D01*
X53870978Y-68973365D01*
X53891425Y-68948450D01*
X53906945Y-68919414D01*
X53907135Y-68919129D01*
X53922124Y-68891015D01*
X53952710Y-68833793D01*
X53952811Y-68833459D01*
X53952975Y-68833152D01*
X53971552Y-68771680D01*
X53990450Y-68709383D01*
X53990485Y-68709032D01*
X53990584Y-68708703D01*
X53996785Y-68645062D01*
X54003193Y-68580000D01*
X54003159Y-68579650D01*
X54003192Y-68579307D01*
X53996887Y-68515974D01*
X53990450Y-68450617D01*
X53990347Y-68450276D01*
X53990313Y-68449938D01*
X53971766Y-68389024D01*
X53952710Y-68326207D01*
X53952545Y-68325898D01*
X53952444Y-68325567D01*
X53922342Y-68269392D01*
X53891425Y-68211550D01*
X53891199Y-68211275D01*
X53891038Y-68210974D01*
X53850493Y-68161674D01*
X53808948Y-68111052D01*
X53808677Y-68110830D01*
X53808457Y-68110562D01*
X53758874Y-68069957D01*
X53708450Y-68028575D01*
X53708139Y-68028409D01*
X53707873Y-68028191D01*
X53651469Y-67998118D01*
X53593793Y-67967290D01*
X53593457Y-67967188D01*
X53593151Y-67967025D01*
X53532073Y-67948567D01*
X53469383Y-67929550D01*
X53469029Y-67929515D01*
X53468701Y-67929416D01*
X53405180Y-67923227D01*
X53372419Y-67920000D01*
X53372065Y-67920000D01*
X53339306Y-67916808D01*
X53307242Y-67920000D01*
X52033221Y-67920000D01*
X52819887Y-66740000D01*
X55918928Y-66740000D01*
X55931188Y-66864482D01*
X55967498Y-66984180D01*
X56026463Y-67094494D01*
X56105815Y-67191185D01*
X56202506Y-67270537D01*
X56312820Y-67329502D01*
X56432518Y-67365812D01*
X56557000Y-67378072D01*
X56846250Y-67375000D01*
X57005000Y-67216250D01*
X57005000Y-66167000D01*
X56080750Y-66167000D01*
X55922000Y-66325750D01*
X55918928Y-66740000D01*
X52819887Y-66740000D01*
X53753220Y-65340000D01*
X55918928Y-65340000D01*
X55922000Y-65754250D01*
X56080750Y-65913000D01*
X57005000Y-65913000D01*
X57005000Y-64863750D01*
X56846250Y-64705000D01*
X56557000Y-64701928D01*
X56432518Y-64714188D01*
X56312820Y-64750498D01*
X56202506Y-64809463D01*
X56105815Y-64888815D01*
X56026463Y-64985506D01*
X55967498Y-65095820D01*
X55931188Y-65215518D01*
X55918928Y-65340000D01*
X53753220Y-65340000D01*
X56410978Y-61353365D01*
X56431425Y-61328450D01*
X56446945Y-61299414D01*
X56447135Y-61299129D01*
X56462124Y-61271015D01*
X56492710Y-61213793D01*
X56492811Y-61213459D01*
X56492975Y-61213152D01*
X56511552Y-61151680D01*
X56530450Y-61089383D01*
X56530485Y-61089032D01*
X56530584Y-61088703D01*
X56536785Y-61025062D01*
X56543193Y-60960000D01*
X56543159Y-60959650D01*
X56543192Y-60959307D01*
X56536887Y-60895974D01*
X56530450Y-60830617D01*
X56530347Y-60830276D01*
X56530313Y-60829938D01*
X56511766Y-60769024D01*
X56492710Y-60706207D01*
X56492545Y-60705898D01*
X56492444Y-60705567D01*
X56462342Y-60649392D01*
X56431425Y-60591550D01*
X56431199Y-60591275D01*
X56431038Y-60590974D01*
X56390493Y-60541674D01*
X56348948Y-60491052D01*
X56348677Y-60490830D01*
X56348457Y-60490562D01*
X56298874Y-60449957D01*
X56248450Y-60408575D01*
X56248139Y-60408409D01*
X56247873Y-60408191D01*
X56191469Y-60378118D01*
X56133793Y-60347290D01*
X56133457Y-60347188D01*
X56133151Y-60347025D01*
X56072073Y-60328567D01*
X56009383Y-60309550D01*
X56009029Y-60309515D01*
X56008701Y-60309416D01*
X55945180Y-60303227D01*
X55912419Y-60300000D01*
X55912065Y-60300000D01*
X55879306Y-60296808D01*
X55847242Y-60300000D01*
X54573221Y-60300000D01*
X58950978Y-53733365D01*
X58971425Y-53708450D01*
X58986945Y-53679414D01*
X58987135Y-53679129D01*
X59002124Y-53651015D01*
X59032710Y-53593793D01*
X59032811Y-53593459D01*
X59032975Y-53593152D01*
X59051552Y-53531680D01*
X59070450Y-53469383D01*
X59070485Y-53469032D01*
X59070584Y-53468703D01*
X59076785Y-53405062D01*
X59083193Y-53340000D01*
X59083159Y-53339650D01*
X59083192Y-53339307D01*
X59076887Y-53275974D01*
X59070450Y-53210617D01*
X59070347Y-53210276D01*
X59070313Y-53209938D01*
X59051766Y-53149024D01*
X59032710Y-53086207D01*
X59032545Y-53085898D01*
X59032444Y-53085567D01*
X59002342Y-53029392D01*
X58971425Y-52971550D01*
X58971199Y-52971275D01*
X58971038Y-52970974D01*
X58930493Y-52921674D01*
X58888948Y-52871052D01*
X58888677Y-52870830D01*
X58888457Y-52870562D01*
X58838874Y-52829957D01*
X58788450Y-52788575D01*
X58788139Y-52788409D01*
X58787873Y-52788191D01*
X58731469Y-52758118D01*
X58673793Y-52727290D01*
X58673457Y-52727188D01*
X58673151Y-52727025D01*
X58612073Y-52708567D01*
X58549383Y-52689550D01*
X58549029Y-52689515D01*
X58548701Y-52689416D01*
X58485180Y-52683227D01*
X58452419Y-52680000D01*
X58452065Y-52680000D01*
X58419306Y-52676808D01*
X58387242Y-52680000D01*
X57113221Y-52680000D01*
X57309221Y-52386000D01*
X61515928Y-52386000D01*
X61519000Y-52800250D01*
X61677750Y-52959000D01*
X62602000Y-52959000D01*
X62602000Y-51909750D01*
X62443250Y-51751000D01*
X62154000Y-51747928D01*
X62029518Y-51760188D01*
X61909820Y-51796498D01*
X61799506Y-51855463D01*
X61702815Y-51934815D01*
X61623463Y-52031506D01*
X61564498Y-52141820D01*
X61528188Y-52261518D01*
X61515928Y-52386000D01*
X57309221Y-52386000D01*
X61186509Y-46570069D01*
X61501554Y-46885114D01*
X62015021Y-47228201D01*
X62585554Y-47464524D01*
X63191229Y-47585000D01*
X63808771Y-47585000D01*
X64414446Y-47464524D01*
X64984979Y-47228201D01*
X65498446Y-46885114D01*
X65813492Y-46570068D01*
X69886778Y-52680000D01*
X69886778Y-52680000D01*
G37*
X69886778Y-52680000D02*
X68612757Y-52680000D01*
X68580693Y-52676808D01*
X68547934Y-52680000D01*
X68547581Y-52680000D01*
X68514866Y-52683222D01*
X68451299Y-52689416D01*
X68450971Y-52689515D01*
X68450617Y-52689550D01*
X68387927Y-52708567D01*
X68326849Y-52727025D01*
X68326543Y-52727188D01*
X68326207Y-52727290D01*
X68268531Y-52758118D01*
X68212127Y-52788191D01*
X68211861Y-52788409D01*
X68211550Y-52788575D01*
X68161126Y-52829957D01*
X68111543Y-52870562D01*
X68111323Y-52870830D01*
X68111052Y-52871052D01*
X68069507Y-52921674D01*
X68028962Y-52970974D01*
X68028801Y-52971275D01*
X68028575Y-52971550D01*
X67997765Y-53029191D01*
X67967556Y-53085566D01*
X67967455Y-53085899D01*
X67967290Y-53086207D01*
X67948274Y-53148892D01*
X67929687Y-53209938D01*
X67929653Y-53210276D01*
X67929550Y-53210617D01*
X67923113Y-53275974D01*
X67916808Y-53339307D01*
X67916841Y-53339650D01*
X67916807Y-53340000D01*
X67923224Y-53405157D01*
X67929416Y-53468701D01*
X67929515Y-53469029D01*
X67929550Y-53469383D01*
X67948567Y-53532073D01*
X67967025Y-53593151D01*
X67967188Y-53593457D01*
X67967290Y-53593793D01*
X67997963Y-53651178D01*
X68012864Y-53679127D01*
X68013054Y-53679412D01*
X68028575Y-53708450D01*
X68049024Y-53733367D01*
X72426778Y-60300000D01*
X71152757Y-60300000D01*
X71120693Y-60296808D01*
X71087934Y-60300000D01*
X71087581Y-60300000D01*
X71054866Y-60303222D01*
X70991299Y-60309416D01*
X70990971Y-60309515D01*
X70990617Y-60309550D01*
X70927927Y-60328567D01*
X70866849Y-60347025D01*
X70866543Y-60347188D01*
X70866207Y-60347290D01*
X70808531Y-60378118D01*
X70752127Y-60408191D01*
X70751861Y-60408409D01*
X70751550Y-60408575D01*
X70701126Y-60449957D01*
X70651543Y-60490562D01*
X70651323Y-60490830D01*
X70651052Y-60491052D01*
X70609507Y-60541674D01*
X70568962Y-60590974D01*
X70568801Y-60591275D01*
X70568575Y-60591550D01*
X70537765Y-60649191D01*
X70507556Y-60705566D01*
X70507455Y-60705899D01*
X70507290Y-60706207D01*
X70488274Y-60768892D01*
X70469687Y-60829938D01*
X70469653Y-60830276D01*
X70469550Y-60830617D01*
X70463113Y-60895974D01*
X70456808Y-60959307D01*
X70456841Y-60959650D01*
X70456807Y-60960000D01*
X70463224Y-61025157D01*
X70469416Y-61088701D01*
X70469515Y-61089029D01*
X70469550Y-61089383D01*
X70488557Y-61152038D01*
X70507025Y-61213151D01*
X70507188Y-61213457D01*
X70507290Y-61213793D01*
X70537963Y-61271178D01*
X70552864Y-61299127D01*
X70553054Y-61299412D01*
X70568575Y-61328450D01*
X70589024Y-61353367D01*
X74966778Y-67920000D01*
X73692757Y-67920000D01*
X73660693Y-67916808D01*
X73627934Y-67920000D01*
X73627581Y-67920000D01*
X73594866Y-67923222D01*
X73531299Y-67929416D01*
X73530971Y-67929515D01*
X73530617Y-67929550D01*
X73467927Y-67948567D01*
X73406849Y-67967025D01*
X73406543Y-67967188D01*
X73406207Y-67967290D01*
X73348531Y-67998118D01*
X73292127Y-68028191D01*
X73291861Y-68028409D01*
X73291550Y-68028575D01*
X73241126Y-68069957D01*
X73191543Y-68110562D01*
X73191323Y-68110830D01*
X73191052Y-68111052D01*
X73149507Y-68161674D01*
X73108962Y-68210974D01*
X73108801Y-68211275D01*
X73108575Y-68211550D01*
X73077765Y-68269191D01*
X73047556Y-68325566D01*
X73047455Y-68325899D01*
X73047290Y-68326207D01*
X73028274Y-68388892D01*
X73009687Y-68449938D01*
X73009653Y-68450276D01*
X73009550Y-68450617D01*
X73003113Y-68515974D01*
X72996808Y-68579307D01*
X72996841Y-68579650D01*
X72996807Y-68580000D01*
X73003224Y-68645157D01*
X73009416Y-68708701D01*
X73009515Y-68709029D01*
X73009550Y-68709383D01*
X73028567Y-68772073D01*
X73047025Y-68833151D01*
X73047188Y-68833457D01*
X73047290Y-68833793D01*
X73077963Y-68891178D01*
X73092864Y-68919127D01*
X73093054Y-68919412D01*
X73108575Y-68948450D01*
X73129024Y-68973367D01*
X75110991Y-71946318D01*
X74904174Y-71890651D01*
X74553339Y-71867259D01*
X74204681Y-71912760D01*
X73871600Y-72025406D01*
X73661118Y-72137910D01*
X73547256Y-72417651D01*
X74610000Y-73480395D01*
X74624143Y-73466253D01*
X74803748Y-73645858D01*
X74789605Y-73660000D01*
X75852349Y-74722744D01*
X76132090Y-74608882D01*
X76287961Y-74293704D01*
X76379349Y-73954174D01*
X76385733Y-73858431D01*
X77506778Y-75540000D01*
X66072419Y-75540000D01*
X66040000Y-75536807D01*
X66007581Y-75540000D01*
X65910617Y-75549550D01*
X65786207Y-75587290D01*
X65671550Y-75648575D01*
X65571052Y-75731052D01*
X65488575Y-75831550D01*
X65427290Y-75946207D01*
X65389550Y-76070617D01*
X65376807Y-76200000D01*
X65380001Y-76232429D01*
X65380000Y-83160000D01*
X61620000Y-83160000D01*
X61620000Y-76232419D01*
X61623193Y-76200000D01*
X61610450Y-76070617D01*
X61572710Y-75946207D01*
X61511425Y-75831550D01*
X61428948Y-75731052D01*
X61328450Y-75648575D01*
X61213793Y-75587290D01*
X61089383Y-75549550D01*
X60992419Y-75540000D01*
X60960000Y-75536807D01*
X60927581Y-75540000D01*
X49493221Y-75540000D01*
X51519887Y-72500000D01*
X52851928Y-72500000D01*
X52851928Y-74800000D01*
X52864188Y-74924482D01*
X52900498Y-75044180D01*
X52959463Y-75154494D01*
X53038815Y-75251185D01*
X53135506Y-75330537D01*
X53245820Y-75389502D01*
X53365518Y-75425812D01*
X53490000Y-75438072D01*
X55790000Y-75438072D01*
X55914482Y-75425812D01*
X56034180Y-75389502D01*
X56144494Y-75330537D01*
X56241185Y-75251185D01*
X56320537Y-75154494D01*
X56379502Y-75044180D01*
X56415812Y-74924482D01*
X56417991Y-74902349D01*
X73547256Y-74902349D01*
X73661118Y-75182090D01*
X73976296Y-75337961D01*
X74315826Y-75429349D01*
X74666661Y-75452741D01*
X75015319Y-75407240D01*
X75348400Y-75294594D01*
X75558882Y-75182090D01*
X75672744Y-74902349D01*
X74610000Y-73839605D01*
X73547256Y-74902349D01*
X56417991Y-74902349D01*
X56428072Y-74800000D01*
X56428072Y-74539000D01*
X62196340Y-74539000D01*
X62240000Y-74543300D01*
X62283660Y-74539000D01*
X62283667Y-74539000D01*
X62414274Y-74526136D01*
X62581851Y-74475303D01*
X62736291Y-74392753D01*
X62871659Y-74281659D01*
X62899499Y-74247736D01*
X63430574Y-73716661D01*
X72817259Y-73716661D01*
X72862760Y-74065319D01*
X72975406Y-74398400D01*
X73087910Y-74608882D01*
X73367651Y-74722744D01*
X74430395Y-73660000D01*
X73367651Y-72597256D01*
X73087910Y-72711118D01*
X72932039Y-73026296D01*
X72840651Y-73365826D01*
X72817259Y-73716661D01*
X63430574Y-73716661D01*
X64097743Y-73049493D01*
X64131659Y-73021659D01*
X64242753Y-72886291D01*
X64325303Y-72731851D01*
X64366009Y-72597659D01*
X64376136Y-72564276D01*
X64379406Y-72531076D01*
X64389000Y-72433667D01*
X64389000Y-72433661D01*
X64393300Y-72390001D01*
X64389000Y-72346341D01*
X64389000Y-67953072D01*
X65130000Y-67953072D01*
X65254482Y-67940812D01*
X65374180Y-67904502D01*
X65421890Y-67879000D01*
X66561340Y-67879000D01*
X66605000Y-67883300D01*
X66648660Y-67879000D01*
X66648667Y-67879000D01*
X66779274Y-67866136D01*
X66946851Y-67815303D01*
X67101291Y-67732753D01*
X67236659Y-67621659D01*
X67264499Y-67587736D01*
X68744164Y-66108072D01*
X69150001Y-66108072D01*
X69323255Y-66091008D01*
X69489851Y-66040472D01*
X69643387Y-65958405D01*
X69777962Y-65847962D01*
X69850000Y-65760184D01*
X69922038Y-65847962D01*
X70056613Y-65958405D01*
X70210149Y-66040472D01*
X70376745Y-66091008D01*
X70549999Y-66108072D01*
X71200001Y-66108072D01*
X71373255Y-66091008D01*
X71539851Y-66040472D01*
X71693387Y-65958405D01*
X71827962Y-65847962D01*
X71938405Y-65713387D01*
X72020472Y-65559851D01*
X72071008Y-65393255D01*
X72088072Y-65220001D01*
X72088072Y-64319999D01*
X72071008Y-64146745D01*
X72020472Y-63980149D01*
X71938405Y-63826613D01*
X71827962Y-63692038D01*
X71693387Y-63581595D01*
X71539851Y-63499528D01*
X71373255Y-63448992D01*
X71200001Y-63431928D01*
X70794164Y-63431928D01*
X68994499Y-61632264D01*
X68966659Y-61598341D01*
X68831291Y-61487247D01*
X68676851Y-61404697D01*
X68509274Y-61353864D01*
X68378667Y-61341000D01*
X68378660Y-61341000D01*
X68335000Y-61336700D01*
X68291340Y-61341000D01*
X67703477Y-61341000D01*
X67674406Y-61286613D01*
X67563963Y-61152038D01*
X67429388Y-61041595D01*
X67335958Y-60991655D01*
X69342336Y-58985278D01*
X69371405Y-58961422D01*
X69466628Y-58845392D01*
X69537385Y-58713015D01*
X69580957Y-58569378D01*
X69591983Y-58457426D01*
X69591983Y-58457424D01*
X69595669Y-58420001D01*
X69591983Y-58382578D01*
X69591983Y-57437406D01*
X69595669Y-57399983D01*
X69591983Y-57362557D01*
X69580957Y-57250605D01*
X69537385Y-57106968D01*
X69504448Y-57045347D01*
X69466628Y-56974590D01*
X69431840Y-56932202D01*
X69371405Y-56858561D01*
X69342329Y-56834699D01*
X67875284Y-55367654D01*
X67851422Y-55338578D01*
X67735392Y-55243355D01*
X67725925Y-55238295D01*
X67685000Y-55197370D01*
X67685000Y-55138061D01*
X67645226Y-54938102D01*
X67567205Y-54749744D01*
X67453937Y-54580226D01*
X67309774Y-54436063D01*
X67140256Y-54322795D01*
X66951898Y-54244774D01*
X66751939Y-54205000D01*
X66548061Y-54205000D01*
X66348102Y-54244774D01*
X66159744Y-54322795D01*
X65990226Y-54436063D01*
X65948289Y-54478000D01*
X64644235Y-54478000D01*
X64698163Y-54424072D01*
X65104001Y-54424072D01*
X65277255Y-54407008D01*
X65443851Y-54356472D01*
X65597387Y-54274405D01*
X65731962Y-54163962D01*
X65842405Y-54029387D01*
X65924472Y-53875851D01*
X65975008Y-53709255D01*
X65992072Y-53536001D01*
X65992072Y-52635999D01*
X65975008Y-52462745D01*
X65924472Y-52296149D01*
X65842405Y-52142613D01*
X65731962Y-52008038D01*
X65597387Y-51897595D01*
X65443851Y-51815528D01*
X65277255Y-51764992D01*
X65104001Y-51747928D01*
X64453999Y-51747928D01*
X64280745Y-51764992D01*
X64114149Y-51815528D01*
X63960613Y-51897595D01*
X63826038Y-52008038D01*
X63820658Y-52014594D01*
X63755185Y-51934815D01*
X63658494Y-51855463D01*
X63548180Y-51796498D01*
X63428482Y-51760188D01*
X63304000Y-51747928D01*
X63014750Y-51751000D01*
X62856000Y-51909750D01*
X62856000Y-52959000D01*
X62876000Y-52959000D01*
X62876000Y-53213000D01*
X62856000Y-53213000D01*
X62856000Y-53233000D01*
X62602000Y-53233000D01*
X62602000Y-53213000D01*
X61677750Y-53213000D01*
X61539740Y-53351010D01*
X60129727Y-53351010D01*
X60086067Y-53346710D01*
X60042407Y-53351010D01*
X60042401Y-53351010D01*
X59944992Y-53360604D01*
X59911792Y-53363874D01*
X59810126Y-53394714D01*
X59744217Y-53414707D01*
X59589777Y-53497257D01*
X59454409Y-53608351D01*
X59426569Y-53642274D01*
X58312259Y-54756584D01*
X58278342Y-54784419D01*
X58250507Y-54818336D01*
X58250505Y-54818338D01*
X58167248Y-54919787D01*
X58084698Y-55074226D01*
X58033864Y-55241804D01*
X58016700Y-55416078D01*
X58021001Y-55459748D01*
X58021000Y-57797545D01*
X57957038Y-57850038D01*
X57846595Y-57984613D01*
X57764528Y-58138149D01*
X57713992Y-58304745D01*
X57696928Y-58477999D01*
X57696928Y-59378001D01*
X57713992Y-59551255D01*
X57764528Y-59717851D01*
X57846595Y-59871387D01*
X57957038Y-60005962D01*
X58091613Y-60116405D01*
X58245149Y-60198472D01*
X58411745Y-60249008D01*
X58584999Y-60266072D01*
X59235001Y-60266072D01*
X59408255Y-60249008D01*
X59574851Y-60198472D01*
X59728387Y-60116405D01*
X59862962Y-60005962D01*
X59935000Y-59918184D01*
X60007038Y-60005962D01*
X60141613Y-60116405D01*
X60295149Y-60198472D01*
X60461745Y-60249008D01*
X60634999Y-60266072D01*
X61040837Y-60266072D01*
X61511001Y-60736237D01*
X61511000Y-64238161D01*
X61418815Y-64313815D01*
X61339463Y-64410506D01*
X61280498Y-64520820D01*
X61244188Y-64640518D01*
X61231928Y-64765000D01*
X61231928Y-65415000D01*
X61244188Y-65539482D01*
X61251929Y-65565000D01*
X61244188Y-65590518D01*
X61231928Y-65715000D01*
X61235000Y-65754250D01*
X61393750Y-65913000D01*
X61475859Y-65913000D01*
X61515506Y-65945537D01*
X61625820Y-66004502D01*
X61742841Y-66040000D01*
X61625820Y-66075498D01*
X61515506Y-66134463D01*
X61475859Y-66167000D01*
X61393750Y-66167000D01*
X61235000Y-66325750D01*
X61231928Y-66365000D01*
X61244188Y-66489482D01*
X61251929Y-66515000D01*
X61244188Y-66540518D01*
X61231928Y-66665000D01*
X61231928Y-66832692D01*
X60395072Y-65995837D01*
X60395072Y-65589999D01*
X60378008Y-65416745D01*
X60327472Y-65250149D01*
X60245405Y-65096613D01*
X60134962Y-64962038D01*
X60000387Y-64851595D01*
X59846851Y-64769528D01*
X59680255Y-64718992D01*
X59507001Y-64701928D01*
X58856999Y-64701928D01*
X58683745Y-64718992D01*
X58517149Y-64769528D01*
X58363613Y-64851595D01*
X58229038Y-64962038D01*
X58223658Y-64968594D01*
X58158185Y-64888815D01*
X58061494Y-64809463D01*
X57951180Y-64750498D01*
X57831482Y-64714188D01*
X57707000Y-64701928D01*
X57417750Y-64705000D01*
X57259000Y-64863750D01*
X57259000Y-65913000D01*
X57279000Y-65913000D01*
X57279000Y-66167000D01*
X57259000Y-66167000D01*
X57259000Y-67216250D01*
X57417750Y-67375000D01*
X57707000Y-67378072D01*
X57831482Y-67365812D01*
X57951180Y-67329502D01*
X58061494Y-67270537D01*
X58158185Y-67191185D01*
X58223658Y-67111406D01*
X58229038Y-67117962D01*
X58363613Y-67228405D01*
X58517149Y-67310472D01*
X58683745Y-67361008D01*
X58856999Y-67378072D01*
X59262837Y-67378072D01*
X60325001Y-68440237D01*
X60325000Y-69481545D01*
X60261038Y-69534038D01*
X60189000Y-69621816D01*
X60116962Y-69534038D01*
X59982387Y-69423595D01*
X59828851Y-69341528D01*
X59662255Y-69290992D01*
X59489001Y-69273928D01*
X58838999Y-69273928D01*
X58665745Y-69290992D01*
X58499149Y-69341528D01*
X58345613Y-69423595D01*
X58211038Y-69534038D01*
X58100595Y-69668613D01*
X58018528Y-69822149D01*
X57967992Y-69988745D01*
X57950928Y-70161999D01*
X57950928Y-71062001D01*
X57967992Y-71235255D01*
X58018528Y-71401851D01*
X58100595Y-71555387D01*
X58211038Y-71689962D01*
X58345613Y-71800405D01*
X58499149Y-71882472D01*
X58665745Y-71933008D01*
X58838999Y-71950072D01*
X59244836Y-71950072D01*
X59858506Y-72563741D01*
X59886341Y-72597659D01*
X60021709Y-72708753D01*
X60119456Y-72761000D01*
X56428072Y-72761000D01*
X56428072Y-72500000D01*
X56415812Y-72375518D01*
X56379502Y-72255820D01*
X56320537Y-72145506D01*
X56241185Y-72048815D01*
X56144494Y-71969463D01*
X56034180Y-71910498D01*
X55914482Y-71874188D01*
X55790000Y-71861928D01*
X53490000Y-71861928D01*
X53365518Y-71874188D01*
X53245820Y-71910498D01*
X53135506Y-71969463D01*
X53038815Y-72048815D01*
X52959463Y-72145506D01*
X52900498Y-72255820D01*
X52864188Y-72375518D01*
X52851928Y-72500000D01*
X51519887Y-72500000D01*
X53870978Y-68973365D01*
X53891425Y-68948450D01*
X53906945Y-68919414D01*
X53907135Y-68919129D01*
X53922124Y-68891015D01*
X53952710Y-68833793D01*
X53952811Y-68833459D01*
X53952975Y-68833152D01*
X53971552Y-68771680D01*
X53990450Y-68709383D01*
X53990485Y-68709032D01*
X53990584Y-68708703D01*
X53996785Y-68645062D01*
X54003193Y-68580000D01*
X54003159Y-68579650D01*
X54003192Y-68579307D01*
X53996887Y-68515974D01*
X53990450Y-68450617D01*
X53990347Y-68450276D01*
X53990313Y-68449938D01*
X53971766Y-68389024D01*
X53952710Y-68326207D01*
X53952545Y-68325898D01*
X53952444Y-68325567D01*
X53922342Y-68269392D01*
X53891425Y-68211550D01*
X53891199Y-68211275D01*
X53891038Y-68210974D01*
X53850493Y-68161674D01*
X53808948Y-68111052D01*
X53808677Y-68110830D01*
X53808457Y-68110562D01*
X53758874Y-68069957D01*
X53708450Y-68028575D01*
X53708139Y-68028409D01*
X53707873Y-68028191D01*
X53651469Y-67998118D01*
X53593793Y-67967290D01*
X53593457Y-67967188D01*
X53593151Y-67967025D01*
X53532073Y-67948567D01*
X53469383Y-67929550D01*
X53469029Y-67929515D01*
X53468701Y-67929416D01*
X53405180Y-67923227D01*
X53372419Y-67920000D01*
X53372065Y-67920000D01*
X53339306Y-67916808D01*
X53307242Y-67920000D01*
X52033221Y-67920000D01*
X52819887Y-66740000D01*
X55918928Y-66740000D01*
X55931188Y-66864482D01*
X55967498Y-66984180D01*
X56026463Y-67094494D01*
X56105815Y-67191185D01*
X56202506Y-67270537D01*
X56312820Y-67329502D01*
X56432518Y-67365812D01*
X56557000Y-67378072D01*
X56846250Y-67375000D01*
X57005000Y-67216250D01*
X57005000Y-66167000D01*
X56080750Y-66167000D01*
X55922000Y-66325750D01*
X55918928Y-66740000D01*
X52819887Y-66740000D01*
X53753220Y-65340000D01*
X55918928Y-65340000D01*
X55922000Y-65754250D01*
X56080750Y-65913000D01*
X57005000Y-65913000D01*
X57005000Y-64863750D01*
X56846250Y-64705000D01*
X56557000Y-64701928D01*
X56432518Y-64714188D01*
X56312820Y-64750498D01*
X56202506Y-64809463D01*
X56105815Y-64888815D01*
X56026463Y-64985506D01*
X55967498Y-65095820D01*
X55931188Y-65215518D01*
X55918928Y-65340000D01*
X53753220Y-65340000D01*
X56410978Y-61353365D01*
X56431425Y-61328450D01*
X56446945Y-61299414D01*
X56447135Y-61299129D01*
X56462124Y-61271015D01*
X56492710Y-61213793D01*
X56492811Y-61213459D01*
X56492975Y-61213152D01*
X56511552Y-61151680D01*
X56530450Y-61089383D01*
X56530485Y-61089032D01*
X56530584Y-61088703D01*
X56536785Y-61025062D01*
X56543193Y-60960000D01*
X56543159Y-60959650D01*
X56543192Y-60959307D01*
X56536887Y-60895974D01*
X56530450Y-60830617D01*
X56530347Y-60830276D01*
X56530313Y-60829938D01*
X56511766Y-60769024D01*
X56492710Y-60706207D01*
X56492545Y-60705898D01*
X56492444Y-60705567D01*
X56462342Y-60649392D01*
X56431425Y-60591550D01*
X56431199Y-60591275D01*
X56431038Y-60590974D01*
X56390493Y-60541674D01*
X56348948Y-60491052D01*
X56348677Y-60490830D01*
X56348457Y-60490562D01*
X56298874Y-60449957D01*
X56248450Y-60408575D01*
X56248139Y-60408409D01*
X56247873Y-60408191D01*
X56191469Y-60378118D01*
X56133793Y-60347290D01*
X56133457Y-60347188D01*
X56133151Y-60347025D01*
X56072073Y-60328567D01*
X56009383Y-60309550D01*
X56009029Y-60309515D01*
X56008701Y-60309416D01*
X55945180Y-60303227D01*
X55912419Y-60300000D01*
X55912065Y-60300000D01*
X55879306Y-60296808D01*
X55847242Y-60300000D01*
X54573221Y-60300000D01*
X58950978Y-53733365D01*
X58971425Y-53708450D01*
X58986945Y-53679414D01*
X58987135Y-53679129D01*
X59002124Y-53651015D01*
X59032710Y-53593793D01*
X59032811Y-53593459D01*
X59032975Y-53593152D01*
X59051552Y-53531680D01*
X59070450Y-53469383D01*
X59070485Y-53469032D01*
X59070584Y-53468703D01*
X59076785Y-53405062D01*
X59083193Y-53340000D01*
X59083159Y-53339650D01*
X59083192Y-53339307D01*
X59076887Y-53275974D01*
X59070450Y-53210617D01*
X59070347Y-53210276D01*
X59070313Y-53209938D01*
X59051766Y-53149024D01*
X59032710Y-53086207D01*
X59032545Y-53085898D01*
X59032444Y-53085567D01*
X59002342Y-53029392D01*
X58971425Y-52971550D01*
X58971199Y-52971275D01*
X58971038Y-52970974D01*
X58930493Y-52921674D01*
X58888948Y-52871052D01*
X58888677Y-52870830D01*
X58888457Y-52870562D01*
X58838874Y-52829957D01*
X58788450Y-52788575D01*
X58788139Y-52788409D01*
X58787873Y-52788191D01*
X58731469Y-52758118D01*
X58673793Y-52727290D01*
X58673457Y-52727188D01*
X58673151Y-52727025D01*
X58612073Y-52708567D01*
X58549383Y-52689550D01*
X58549029Y-52689515D01*
X58548701Y-52689416D01*
X58485180Y-52683227D01*
X58452419Y-52680000D01*
X58452065Y-52680000D01*
X58419306Y-52676808D01*
X58387242Y-52680000D01*
X57113221Y-52680000D01*
X57309221Y-52386000D01*
X61515928Y-52386000D01*
X61519000Y-52800250D01*
X61677750Y-52959000D01*
X62602000Y-52959000D01*
X62602000Y-51909750D01*
X62443250Y-51751000D01*
X62154000Y-51747928D01*
X62029518Y-51760188D01*
X61909820Y-51796498D01*
X61799506Y-51855463D01*
X61702815Y-51934815D01*
X61623463Y-52031506D01*
X61564498Y-52141820D01*
X61528188Y-52261518D01*
X61515928Y-52386000D01*
X57309221Y-52386000D01*
X61186509Y-46570069D01*
X61501554Y-46885114D01*
X62015021Y-47228201D01*
X62585554Y-47464524D01*
X63191229Y-47585000D01*
X63808771Y-47585000D01*
X64414446Y-47464524D01*
X64984979Y-47228201D01*
X65498446Y-46885114D01*
X65813492Y-46570068D01*
X69886778Y-52680000D01*
G36*
X65990226Y-56043937D02*
G01*
X66159744Y-56157205D01*
X66348102Y-56235226D01*
X66548061Y-56275000D01*
X66607370Y-56275000D01*
X66724716Y-56392346D01*
X66748578Y-56421422D01*
X66822219Y-56481857D01*
X66864607Y-56516645D01*
X66874076Y-56521706D01*
X68067984Y-57715614D01*
X68067983Y-58104369D01*
X65266377Y-60905976D01*
X65260483Y-60904188D01*
X65136001Y-60891928D01*
X64846751Y-60895000D01*
X64688001Y-61053750D01*
X64688001Y-62103000D01*
X64708001Y-62103000D01*
X64708001Y-62357000D01*
X64688001Y-62357000D01*
X64688001Y-63406250D01*
X64846751Y-63565000D01*
X64946991Y-63566065D01*
X64946991Y-63870378D01*
X64690442Y-64126928D01*
X64070000Y-64126928D01*
X63945518Y-64139188D01*
X63825820Y-64175498D01*
X63715506Y-64234463D01*
X63618815Y-64313815D01*
X63539463Y-64410506D01*
X63500000Y-64484335D01*
X63460537Y-64410506D01*
X63381185Y-64313815D01*
X63289000Y-64238161D01*
X63289000Y-62930000D01*
X63347929Y-62930000D01*
X63360189Y-63054482D01*
X63396499Y-63174180D01*
X63455464Y-63284494D01*
X63534816Y-63381185D01*
X63631507Y-63460537D01*
X63741821Y-63519502D01*
X63861519Y-63555812D01*
X63986001Y-63568072D01*
X64275251Y-63565000D01*
X64434001Y-63406250D01*
X64434001Y-62357000D01*
X63509751Y-62357000D01*
X63351001Y-62515750D01*
X63347929Y-62930000D01*
X63289000Y-62930000D01*
X63289000Y-61530000D01*
X63347929Y-61530000D01*
X63351001Y-61944250D01*
X63509751Y-62103000D01*
X64434001Y-62103000D01*
X64434001Y-61053750D01*
X64275251Y-60895000D01*
X63986001Y-60891928D01*
X63861519Y-60904188D01*
X63741821Y-60940498D01*
X63631507Y-60999463D01*
X63534816Y-61078815D01*
X63455464Y-61175506D01*
X63396499Y-61285820D01*
X63360189Y-61405518D01*
X63347929Y-61530000D01*
X63289000Y-61530000D01*
X63289000Y-60411668D01*
X63293301Y-60368000D01*
X63276136Y-60193725D01*
X63252681Y-60116405D01*
X63225303Y-60026149D01*
X63142753Y-59871709D01*
X63031659Y-59736341D01*
X62997741Y-59708506D01*
X62173072Y-58883837D01*
X62173072Y-58477999D01*
X62156008Y-58304745D01*
X62105472Y-58138149D01*
X62023405Y-57984613D01*
X61912962Y-57850038D01*
X61778387Y-57739595D01*
X61624851Y-57657528D01*
X61458255Y-57606992D01*
X61285001Y-57589928D01*
X60634999Y-57589928D01*
X60461745Y-57606992D01*
X60295149Y-57657528D01*
X60141613Y-57739595D01*
X60007038Y-57850038D01*
X59935000Y-57937816D01*
X59862962Y-57850038D01*
X59799000Y-57797546D01*
X59799000Y-56116617D01*
X59859744Y-56157205D01*
X60048102Y-56235226D01*
X60248061Y-56275000D01*
X60451939Y-56275000D01*
X60651898Y-56235226D01*
X60840256Y-56157205D01*
X61009774Y-56043937D01*
X61051711Y-56002000D01*
X65948289Y-56002000D01*
X65990226Y-56043937D01*
X65990226Y-56043937D01*
G37*
X65990226Y-56043937D02*
X66159744Y-56157205D01*
X66348102Y-56235226D01*
X66548061Y-56275000D01*
X66607370Y-56275000D01*
X66724716Y-56392346D01*
X66748578Y-56421422D01*
X66822219Y-56481857D01*
X66864607Y-56516645D01*
X66874076Y-56521706D01*
X68067984Y-57715614D01*
X68067983Y-58104369D01*
X65266377Y-60905976D01*
X65260483Y-60904188D01*
X65136001Y-60891928D01*
X64846751Y-60895000D01*
X64688001Y-61053750D01*
X64688001Y-62103000D01*
X64708001Y-62103000D01*
X64708001Y-62357000D01*
X64688001Y-62357000D01*
X64688001Y-63406250D01*
X64846751Y-63565000D01*
X64946991Y-63566065D01*
X64946991Y-63870378D01*
X64690442Y-64126928D01*
X64070000Y-64126928D01*
X63945518Y-64139188D01*
X63825820Y-64175498D01*
X63715506Y-64234463D01*
X63618815Y-64313815D01*
X63539463Y-64410506D01*
X63500000Y-64484335D01*
X63460537Y-64410506D01*
X63381185Y-64313815D01*
X63289000Y-64238161D01*
X63289000Y-62930000D01*
X63347929Y-62930000D01*
X63360189Y-63054482D01*
X63396499Y-63174180D01*
X63455464Y-63284494D01*
X63534816Y-63381185D01*
X63631507Y-63460537D01*
X63741821Y-63519502D01*
X63861519Y-63555812D01*
X63986001Y-63568072D01*
X64275251Y-63565000D01*
X64434001Y-63406250D01*
X64434001Y-62357000D01*
X63509751Y-62357000D01*
X63351001Y-62515750D01*
X63347929Y-62930000D01*
X63289000Y-62930000D01*
X63289000Y-61530000D01*
X63347929Y-61530000D01*
X63351001Y-61944250D01*
X63509751Y-62103000D01*
X64434001Y-62103000D01*
X64434001Y-61053750D01*
X64275251Y-60895000D01*
X63986001Y-60891928D01*
X63861519Y-60904188D01*
X63741821Y-60940498D01*
X63631507Y-60999463D01*
X63534816Y-61078815D01*
X63455464Y-61175506D01*
X63396499Y-61285820D01*
X63360189Y-61405518D01*
X63347929Y-61530000D01*
X63289000Y-61530000D01*
X63289000Y-60411668D01*
X63293301Y-60368000D01*
X63276136Y-60193725D01*
X63252681Y-60116405D01*
X63225303Y-60026149D01*
X63142753Y-59871709D01*
X63031659Y-59736341D01*
X62997741Y-59708506D01*
X62173072Y-58883837D01*
X62173072Y-58477999D01*
X62156008Y-58304745D01*
X62105472Y-58138149D01*
X62023405Y-57984613D01*
X61912962Y-57850038D01*
X61778387Y-57739595D01*
X61624851Y-57657528D01*
X61458255Y-57606992D01*
X61285001Y-57589928D01*
X60634999Y-57589928D01*
X60461745Y-57606992D01*
X60295149Y-57657528D01*
X60141613Y-57739595D01*
X60007038Y-57850038D01*
X59935000Y-57937816D01*
X59862962Y-57850038D01*
X59799000Y-57797546D01*
X59799000Y-56116617D01*
X59859744Y-56157205D01*
X60048102Y-56235226D01*
X60248061Y-56275000D01*
X60451939Y-56275000D01*
X60651898Y-56235226D01*
X60840256Y-56157205D01*
X61009774Y-56043937D01*
X61051711Y-56002000D01*
X65948289Y-56002000D01*
X65990226Y-56043937D01*
M02*
