G04 #@! TF.GenerationSoftware,KiCad,Pcbnew,(5.1.4)-1*
G04 #@! TF.CreationDate,2020-11-14T12:40:32-05:00*
G04 #@! TF.ProjectId,circuit,63697263-7569-4742-9e6b-696361645f70,rev?*
G04 #@! TF.SameCoordinates,Original*
G04 #@! TF.FileFunction,Profile,NP*
%FSLAX46Y46*%
G04 Gerber Fmt 4.6, Leading zero omitted, Abs format (unit mm)*
G04 Created by KiCad (PCBNEW (5.1.4)-1) date 2020-11-14 12:40:32*
%MOMM*%
%LPD*%
G04 APERTURE LIST*
%ADD10C,0.050000*%
G04 APERTURE END LIST*
D10*
X60960001Y-45720000D02*
G75*
G02X66039999Y-45719999I2539999J1270000D01*
G01*
X71120000Y-53340000D02*
X66040000Y-45720000D01*
X68580000Y-53340000D02*
X71120000Y-53340000D01*
X55880000Y-53340000D02*
X60960000Y-45720000D01*
X58420000Y-53340000D02*
X55880000Y-53340000D01*
X53340000Y-60960000D02*
X58420000Y-53340000D01*
X55880000Y-60960000D02*
X53340000Y-60960000D01*
X50800000Y-68580000D02*
X55880000Y-60960000D01*
X53340000Y-68580000D02*
X50800000Y-68580000D01*
X48260000Y-76200000D02*
X53340000Y-68580000D01*
X60960000Y-76200000D02*
X48260000Y-76200000D01*
X73660000Y-60960000D02*
X68580000Y-53340000D01*
X71120000Y-60960000D02*
X73660000Y-60960000D01*
X76200000Y-68580000D02*
X71120000Y-60960000D01*
X73660000Y-68580000D02*
X76200000Y-68580000D01*
X78740000Y-76200000D02*
X73660000Y-68580000D01*
X66040000Y-76200000D02*
X78740000Y-76200000D01*
X66040000Y-83820000D02*
X66040000Y-76200000D01*
X60960000Y-83820000D02*
X66040000Y-83820000D01*
X60960000Y-76200000D02*
X60960000Y-83820000D01*
M02*
