G04 #@! TF.GenerationSoftware,KiCad,Pcbnew,(5.1.4)-1*
G04 #@! TF.CreationDate,2020-11-14T12:40:31-05:00*
G04 #@! TF.ProjectId,circuit,63697263-7569-4742-9e6b-696361645f70,rev?*
G04 #@! TF.SameCoordinates,Original*
G04 #@! TF.FileFunction,Paste,Top*
G04 #@! TF.FilePolarity,Positive*
%FSLAX46Y46*%
G04 Gerber Fmt 4.6, Leading zero omitted, Abs format (unit mm)*
G04 Created by KiCad (PCBNEW (5.1.4)-1) date 2020-11-14 12:40:31*
%MOMM*%
%LPD*%
G04 APERTURE LIST*
%ADD10C,0.100000*%
%ADD11C,1.150000*%
%ADD12R,1.060000X0.650000*%
G04 APERTURE END LIST*
D10*
G36*
X63078505Y-52387204D02*
G01*
X63102773Y-52390804D01*
X63126572Y-52396765D01*
X63149671Y-52405030D01*
X63171850Y-52415520D01*
X63192893Y-52428132D01*
X63212599Y-52442747D01*
X63230777Y-52459223D01*
X63247253Y-52477401D01*
X63261868Y-52497107D01*
X63274480Y-52518150D01*
X63284970Y-52540329D01*
X63293235Y-52563428D01*
X63299196Y-52587227D01*
X63302796Y-52611495D01*
X63304000Y-52635999D01*
X63304000Y-53536001D01*
X63302796Y-53560505D01*
X63299196Y-53584773D01*
X63293235Y-53608572D01*
X63284970Y-53631671D01*
X63274480Y-53653850D01*
X63261868Y-53674893D01*
X63247253Y-53694599D01*
X63230777Y-53712777D01*
X63212599Y-53729253D01*
X63192893Y-53743868D01*
X63171850Y-53756480D01*
X63149671Y-53766970D01*
X63126572Y-53775235D01*
X63102773Y-53781196D01*
X63078505Y-53784796D01*
X63054001Y-53786000D01*
X62403999Y-53786000D01*
X62379495Y-53784796D01*
X62355227Y-53781196D01*
X62331428Y-53775235D01*
X62308329Y-53766970D01*
X62286150Y-53756480D01*
X62265107Y-53743868D01*
X62245401Y-53729253D01*
X62227223Y-53712777D01*
X62210747Y-53694599D01*
X62196132Y-53674893D01*
X62183520Y-53653850D01*
X62173030Y-53631671D01*
X62164765Y-53608572D01*
X62158804Y-53584773D01*
X62155204Y-53560505D01*
X62154000Y-53536001D01*
X62154000Y-52635999D01*
X62155204Y-52611495D01*
X62158804Y-52587227D01*
X62164765Y-52563428D01*
X62173030Y-52540329D01*
X62183520Y-52518150D01*
X62196132Y-52497107D01*
X62210747Y-52477401D01*
X62227223Y-52459223D01*
X62245401Y-52442747D01*
X62265107Y-52428132D01*
X62286150Y-52415520D01*
X62308329Y-52405030D01*
X62331428Y-52396765D01*
X62355227Y-52390804D01*
X62379495Y-52387204D01*
X62403999Y-52386000D01*
X63054001Y-52386000D01*
X63078505Y-52387204D01*
X63078505Y-52387204D01*
G37*
D11*
X62729000Y-53086000D03*
D10*
G36*
X65128505Y-52387204D02*
G01*
X65152773Y-52390804D01*
X65176572Y-52396765D01*
X65199671Y-52405030D01*
X65221850Y-52415520D01*
X65242893Y-52428132D01*
X65262599Y-52442747D01*
X65280777Y-52459223D01*
X65297253Y-52477401D01*
X65311868Y-52497107D01*
X65324480Y-52518150D01*
X65334970Y-52540329D01*
X65343235Y-52563428D01*
X65349196Y-52587227D01*
X65352796Y-52611495D01*
X65354000Y-52635999D01*
X65354000Y-53536001D01*
X65352796Y-53560505D01*
X65349196Y-53584773D01*
X65343235Y-53608572D01*
X65334970Y-53631671D01*
X65324480Y-53653850D01*
X65311868Y-53674893D01*
X65297253Y-53694599D01*
X65280777Y-53712777D01*
X65262599Y-53729253D01*
X65242893Y-53743868D01*
X65221850Y-53756480D01*
X65199671Y-53766970D01*
X65176572Y-53775235D01*
X65152773Y-53781196D01*
X65128505Y-53784796D01*
X65104001Y-53786000D01*
X64453999Y-53786000D01*
X64429495Y-53784796D01*
X64405227Y-53781196D01*
X64381428Y-53775235D01*
X64358329Y-53766970D01*
X64336150Y-53756480D01*
X64315107Y-53743868D01*
X64295401Y-53729253D01*
X64277223Y-53712777D01*
X64260747Y-53694599D01*
X64246132Y-53674893D01*
X64233520Y-53653850D01*
X64223030Y-53631671D01*
X64214765Y-53608572D01*
X64208804Y-53584773D01*
X64205204Y-53560505D01*
X64204000Y-53536001D01*
X64204000Y-52635999D01*
X64205204Y-52611495D01*
X64208804Y-52587227D01*
X64214765Y-52563428D01*
X64223030Y-52540329D01*
X64233520Y-52518150D01*
X64246132Y-52497107D01*
X64260747Y-52477401D01*
X64277223Y-52459223D01*
X64295401Y-52442747D01*
X64315107Y-52428132D01*
X64336150Y-52415520D01*
X64358329Y-52405030D01*
X64381428Y-52396765D01*
X64405227Y-52390804D01*
X64429495Y-52387204D01*
X64453999Y-52386000D01*
X65104001Y-52386000D01*
X65128505Y-52387204D01*
X65128505Y-52387204D01*
G37*
D11*
X64779000Y-53086000D03*
D10*
G36*
X59531505Y-65341204D02*
G01*
X59555773Y-65344804D01*
X59579572Y-65350765D01*
X59602671Y-65359030D01*
X59624850Y-65369520D01*
X59645893Y-65382132D01*
X59665599Y-65396747D01*
X59683777Y-65413223D01*
X59700253Y-65431401D01*
X59714868Y-65451107D01*
X59727480Y-65472150D01*
X59737970Y-65494329D01*
X59746235Y-65517428D01*
X59752196Y-65541227D01*
X59755796Y-65565495D01*
X59757000Y-65589999D01*
X59757000Y-66490001D01*
X59755796Y-66514505D01*
X59752196Y-66538773D01*
X59746235Y-66562572D01*
X59737970Y-66585671D01*
X59727480Y-66607850D01*
X59714868Y-66628893D01*
X59700253Y-66648599D01*
X59683777Y-66666777D01*
X59665599Y-66683253D01*
X59645893Y-66697868D01*
X59624850Y-66710480D01*
X59602671Y-66720970D01*
X59579572Y-66729235D01*
X59555773Y-66735196D01*
X59531505Y-66738796D01*
X59507001Y-66740000D01*
X58856999Y-66740000D01*
X58832495Y-66738796D01*
X58808227Y-66735196D01*
X58784428Y-66729235D01*
X58761329Y-66720970D01*
X58739150Y-66710480D01*
X58718107Y-66697868D01*
X58698401Y-66683253D01*
X58680223Y-66666777D01*
X58663747Y-66648599D01*
X58649132Y-66628893D01*
X58636520Y-66607850D01*
X58626030Y-66585671D01*
X58617765Y-66562572D01*
X58611804Y-66538773D01*
X58608204Y-66514505D01*
X58607000Y-66490001D01*
X58607000Y-65589999D01*
X58608204Y-65565495D01*
X58611804Y-65541227D01*
X58617765Y-65517428D01*
X58626030Y-65494329D01*
X58636520Y-65472150D01*
X58649132Y-65451107D01*
X58663747Y-65431401D01*
X58680223Y-65413223D01*
X58698401Y-65396747D01*
X58718107Y-65382132D01*
X58739150Y-65369520D01*
X58761329Y-65359030D01*
X58784428Y-65350765D01*
X58808227Y-65344804D01*
X58832495Y-65341204D01*
X58856999Y-65340000D01*
X59507001Y-65340000D01*
X59531505Y-65341204D01*
X59531505Y-65341204D01*
G37*
D11*
X59182000Y-66040000D03*
D10*
G36*
X57481505Y-65341204D02*
G01*
X57505773Y-65344804D01*
X57529572Y-65350765D01*
X57552671Y-65359030D01*
X57574850Y-65369520D01*
X57595893Y-65382132D01*
X57615599Y-65396747D01*
X57633777Y-65413223D01*
X57650253Y-65431401D01*
X57664868Y-65451107D01*
X57677480Y-65472150D01*
X57687970Y-65494329D01*
X57696235Y-65517428D01*
X57702196Y-65541227D01*
X57705796Y-65565495D01*
X57707000Y-65589999D01*
X57707000Y-66490001D01*
X57705796Y-66514505D01*
X57702196Y-66538773D01*
X57696235Y-66562572D01*
X57687970Y-66585671D01*
X57677480Y-66607850D01*
X57664868Y-66628893D01*
X57650253Y-66648599D01*
X57633777Y-66666777D01*
X57615599Y-66683253D01*
X57595893Y-66697868D01*
X57574850Y-66710480D01*
X57552671Y-66720970D01*
X57529572Y-66729235D01*
X57505773Y-66735196D01*
X57481505Y-66738796D01*
X57457001Y-66740000D01*
X56806999Y-66740000D01*
X56782495Y-66738796D01*
X56758227Y-66735196D01*
X56734428Y-66729235D01*
X56711329Y-66720970D01*
X56689150Y-66710480D01*
X56668107Y-66697868D01*
X56648401Y-66683253D01*
X56630223Y-66666777D01*
X56613747Y-66648599D01*
X56599132Y-66628893D01*
X56586520Y-66607850D01*
X56576030Y-66585671D01*
X56567765Y-66562572D01*
X56561804Y-66538773D01*
X56558204Y-66514505D01*
X56557000Y-66490001D01*
X56557000Y-65589999D01*
X56558204Y-65565495D01*
X56561804Y-65541227D01*
X56567765Y-65517428D01*
X56576030Y-65494329D01*
X56586520Y-65472150D01*
X56599132Y-65451107D01*
X56613747Y-65431401D01*
X56630223Y-65413223D01*
X56648401Y-65396747D01*
X56668107Y-65382132D01*
X56689150Y-65369520D01*
X56711329Y-65359030D01*
X56734428Y-65350765D01*
X56758227Y-65344804D01*
X56782495Y-65341204D01*
X56806999Y-65340000D01*
X57457001Y-65340000D01*
X57481505Y-65341204D01*
X57481505Y-65341204D01*
G37*
D11*
X57132000Y-66040000D03*
D10*
G36*
X64910506Y-61531204D02*
G01*
X64934774Y-61534804D01*
X64958573Y-61540765D01*
X64981672Y-61549030D01*
X65003851Y-61559520D01*
X65024894Y-61572132D01*
X65044600Y-61586747D01*
X65062778Y-61603223D01*
X65079254Y-61621401D01*
X65093869Y-61641107D01*
X65106481Y-61662150D01*
X65116971Y-61684329D01*
X65125236Y-61707428D01*
X65131197Y-61731227D01*
X65134797Y-61755495D01*
X65136001Y-61779999D01*
X65136001Y-62680001D01*
X65134797Y-62704505D01*
X65131197Y-62728773D01*
X65125236Y-62752572D01*
X65116971Y-62775671D01*
X65106481Y-62797850D01*
X65093869Y-62818893D01*
X65079254Y-62838599D01*
X65062778Y-62856777D01*
X65044600Y-62873253D01*
X65024894Y-62887868D01*
X65003851Y-62900480D01*
X64981672Y-62910970D01*
X64958573Y-62919235D01*
X64934774Y-62925196D01*
X64910506Y-62928796D01*
X64886002Y-62930000D01*
X64236000Y-62930000D01*
X64211496Y-62928796D01*
X64187228Y-62925196D01*
X64163429Y-62919235D01*
X64140330Y-62910970D01*
X64118151Y-62900480D01*
X64097108Y-62887868D01*
X64077402Y-62873253D01*
X64059224Y-62856777D01*
X64042748Y-62838599D01*
X64028133Y-62818893D01*
X64015521Y-62797850D01*
X64005031Y-62775671D01*
X63996766Y-62752572D01*
X63990805Y-62728773D01*
X63987205Y-62704505D01*
X63986001Y-62680001D01*
X63986001Y-61779999D01*
X63987205Y-61755495D01*
X63990805Y-61731227D01*
X63996766Y-61707428D01*
X64005031Y-61684329D01*
X64015521Y-61662150D01*
X64028133Y-61641107D01*
X64042748Y-61621401D01*
X64059224Y-61603223D01*
X64077402Y-61586747D01*
X64097108Y-61572132D01*
X64118151Y-61559520D01*
X64140330Y-61549030D01*
X64163429Y-61540765D01*
X64187228Y-61534804D01*
X64211496Y-61531204D01*
X64236000Y-61530000D01*
X64886002Y-61530000D01*
X64910506Y-61531204D01*
X64910506Y-61531204D01*
G37*
D11*
X64561001Y-62230000D03*
D10*
G36*
X66960506Y-61531204D02*
G01*
X66984774Y-61534804D01*
X67008573Y-61540765D01*
X67031672Y-61549030D01*
X67053851Y-61559520D01*
X67074894Y-61572132D01*
X67094600Y-61586747D01*
X67112778Y-61603223D01*
X67129254Y-61621401D01*
X67143869Y-61641107D01*
X67156481Y-61662150D01*
X67166971Y-61684329D01*
X67175236Y-61707428D01*
X67181197Y-61731227D01*
X67184797Y-61755495D01*
X67186001Y-61779999D01*
X67186001Y-62680001D01*
X67184797Y-62704505D01*
X67181197Y-62728773D01*
X67175236Y-62752572D01*
X67166971Y-62775671D01*
X67156481Y-62797850D01*
X67143869Y-62818893D01*
X67129254Y-62838599D01*
X67112778Y-62856777D01*
X67094600Y-62873253D01*
X67074894Y-62887868D01*
X67053851Y-62900480D01*
X67031672Y-62910970D01*
X67008573Y-62919235D01*
X66984774Y-62925196D01*
X66960506Y-62928796D01*
X66936002Y-62930000D01*
X66286000Y-62930000D01*
X66261496Y-62928796D01*
X66237228Y-62925196D01*
X66213429Y-62919235D01*
X66190330Y-62910970D01*
X66168151Y-62900480D01*
X66147108Y-62887868D01*
X66127402Y-62873253D01*
X66109224Y-62856777D01*
X66092748Y-62838599D01*
X66078133Y-62818893D01*
X66065521Y-62797850D01*
X66055031Y-62775671D01*
X66046766Y-62752572D01*
X66040805Y-62728773D01*
X66037205Y-62704505D01*
X66036001Y-62680001D01*
X66036001Y-61779999D01*
X66037205Y-61755495D01*
X66040805Y-61731227D01*
X66046766Y-61707428D01*
X66055031Y-61684329D01*
X66065521Y-61662150D01*
X66078133Y-61641107D01*
X66092748Y-61621401D01*
X66109224Y-61603223D01*
X66127402Y-61586747D01*
X66147108Y-61572132D01*
X66168151Y-61559520D01*
X66190330Y-61549030D01*
X66213429Y-61540765D01*
X66237228Y-61534804D01*
X66261496Y-61531204D01*
X66286000Y-61530000D01*
X66936002Y-61530000D01*
X66960506Y-61531204D01*
X66960506Y-61531204D01*
G37*
D11*
X66611001Y-62230000D03*
D10*
G36*
X61309505Y-58229204D02*
G01*
X61333773Y-58232804D01*
X61357572Y-58238765D01*
X61380671Y-58247030D01*
X61402850Y-58257520D01*
X61423893Y-58270132D01*
X61443599Y-58284747D01*
X61461777Y-58301223D01*
X61478253Y-58319401D01*
X61492868Y-58339107D01*
X61505480Y-58360150D01*
X61515970Y-58382329D01*
X61524235Y-58405428D01*
X61530196Y-58429227D01*
X61533796Y-58453495D01*
X61535000Y-58477999D01*
X61535000Y-59378001D01*
X61533796Y-59402505D01*
X61530196Y-59426773D01*
X61524235Y-59450572D01*
X61515970Y-59473671D01*
X61505480Y-59495850D01*
X61492868Y-59516893D01*
X61478253Y-59536599D01*
X61461777Y-59554777D01*
X61443599Y-59571253D01*
X61423893Y-59585868D01*
X61402850Y-59598480D01*
X61380671Y-59608970D01*
X61357572Y-59617235D01*
X61333773Y-59623196D01*
X61309505Y-59626796D01*
X61285001Y-59628000D01*
X60634999Y-59628000D01*
X60610495Y-59626796D01*
X60586227Y-59623196D01*
X60562428Y-59617235D01*
X60539329Y-59608970D01*
X60517150Y-59598480D01*
X60496107Y-59585868D01*
X60476401Y-59571253D01*
X60458223Y-59554777D01*
X60441747Y-59536599D01*
X60427132Y-59516893D01*
X60414520Y-59495850D01*
X60404030Y-59473671D01*
X60395765Y-59450572D01*
X60389804Y-59426773D01*
X60386204Y-59402505D01*
X60385000Y-59378001D01*
X60385000Y-58477999D01*
X60386204Y-58453495D01*
X60389804Y-58429227D01*
X60395765Y-58405428D01*
X60404030Y-58382329D01*
X60414520Y-58360150D01*
X60427132Y-58339107D01*
X60441747Y-58319401D01*
X60458223Y-58301223D01*
X60476401Y-58284747D01*
X60496107Y-58270132D01*
X60517150Y-58257520D01*
X60539329Y-58247030D01*
X60562428Y-58238765D01*
X60586227Y-58232804D01*
X60610495Y-58229204D01*
X60634999Y-58228000D01*
X61285001Y-58228000D01*
X61309505Y-58229204D01*
X61309505Y-58229204D01*
G37*
D11*
X60960000Y-58928000D03*
D10*
G36*
X59259505Y-58229204D02*
G01*
X59283773Y-58232804D01*
X59307572Y-58238765D01*
X59330671Y-58247030D01*
X59352850Y-58257520D01*
X59373893Y-58270132D01*
X59393599Y-58284747D01*
X59411777Y-58301223D01*
X59428253Y-58319401D01*
X59442868Y-58339107D01*
X59455480Y-58360150D01*
X59465970Y-58382329D01*
X59474235Y-58405428D01*
X59480196Y-58429227D01*
X59483796Y-58453495D01*
X59485000Y-58477999D01*
X59485000Y-59378001D01*
X59483796Y-59402505D01*
X59480196Y-59426773D01*
X59474235Y-59450572D01*
X59465970Y-59473671D01*
X59455480Y-59495850D01*
X59442868Y-59516893D01*
X59428253Y-59536599D01*
X59411777Y-59554777D01*
X59393599Y-59571253D01*
X59373893Y-59585868D01*
X59352850Y-59598480D01*
X59330671Y-59608970D01*
X59307572Y-59617235D01*
X59283773Y-59623196D01*
X59259505Y-59626796D01*
X59235001Y-59628000D01*
X58584999Y-59628000D01*
X58560495Y-59626796D01*
X58536227Y-59623196D01*
X58512428Y-59617235D01*
X58489329Y-59608970D01*
X58467150Y-59598480D01*
X58446107Y-59585868D01*
X58426401Y-59571253D01*
X58408223Y-59554777D01*
X58391747Y-59536599D01*
X58377132Y-59516893D01*
X58364520Y-59495850D01*
X58354030Y-59473671D01*
X58345765Y-59450572D01*
X58339804Y-59426773D01*
X58336204Y-59402505D01*
X58335000Y-59378001D01*
X58335000Y-58477999D01*
X58336204Y-58453495D01*
X58339804Y-58429227D01*
X58345765Y-58405428D01*
X58354030Y-58382329D01*
X58364520Y-58360150D01*
X58377132Y-58339107D01*
X58391747Y-58319401D01*
X58408223Y-58301223D01*
X58426401Y-58284747D01*
X58446107Y-58270132D01*
X58467150Y-58257520D01*
X58489329Y-58247030D01*
X58512428Y-58238765D01*
X58536227Y-58232804D01*
X58560495Y-58229204D01*
X58584999Y-58228000D01*
X59235001Y-58228000D01*
X59259505Y-58229204D01*
X59259505Y-58229204D01*
G37*
D11*
X58910000Y-58928000D03*
D10*
G36*
X61563505Y-69913204D02*
G01*
X61587773Y-69916804D01*
X61611572Y-69922765D01*
X61634671Y-69931030D01*
X61656850Y-69941520D01*
X61677893Y-69954132D01*
X61697599Y-69968747D01*
X61715777Y-69985223D01*
X61732253Y-70003401D01*
X61746868Y-70023107D01*
X61759480Y-70044150D01*
X61769970Y-70066329D01*
X61778235Y-70089428D01*
X61784196Y-70113227D01*
X61787796Y-70137495D01*
X61789000Y-70161999D01*
X61789000Y-71062001D01*
X61787796Y-71086505D01*
X61784196Y-71110773D01*
X61778235Y-71134572D01*
X61769970Y-71157671D01*
X61759480Y-71179850D01*
X61746868Y-71200893D01*
X61732253Y-71220599D01*
X61715777Y-71238777D01*
X61697599Y-71255253D01*
X61677893Y-71269868D01*
X61656850Y-71282480D01*
X61634671Y-71292970D01*
X61611572Y-71301235D01*
X61587773Y-71307196D01*
X61563505Y-71310796D01*
X61539001Y-71312000D01*
X60888999Y-71312000D01*
X60864495Y-71310796D01*
X60840227Y-71307196D01*
X60816428Y-71301235D01*
X60793329Y-71292970D01*
X60771150Y-71282480D01*
X60750107Y-71269868D01*
X60730401Y-71255253D01*
X60712223Y-71238777D01*
X60695747Y-71220599D01*
X60681132Y-71200893D01*
X60668520Y-71179850D01*
X60658030Y-71157671D01*
X60649765Y-71134572D01*
X60643804Y-71110773D01*
X60640204Y-71086505D01*
X60639000Y-71062001D01*
X60639000Y-70161999D01*
X60640204Y-70137495D01*
X60643804Y-70113227D01*
X60649765Y-70089428D01*
X60658030Y-70066329D01*
X60668520Y-70044150D01*
X60681132Y-70023107D01*
X60695747Y-70003401D01*
X60712223Y-69985223D01*
X60730401Y-69968747D01*
X60750107Y-69954132D01*
X60771150Y-69941520D01*
X60793329Y-69931030D01*
X60816428Y-69922765D01*
X60840227Y-69916804D01*
X60864495Y-69913204D01*
X60888999Y-69912000D01*
X61539001Y-69912000D01*
X61563505Y-69913204D01*
X61563505Y-69913204D01*
G37*
D11*
X61214000Y-70612000D03*
D10*
G36*
X59513505Y-69913204D02*
G01*
X59537773Y-69916804D01*
X59561572Y-69922765D01*
X59584671Y-69931030D01*
X59606850Y-69941520D01*
X59627893Y-69954132D01*
X59647599Y-69968747D01*
X59665777Y-69985223D01*
X59682253Y-70003401D01*
X59696868Y-70023107D01*
X59709480Y-70044150D01*
X59719970Y-70066329D01*
X59728235Y-70089428D01*
X59734196Y-70113227D01*
X59737796Y-70137495D01*
X59739000Y-70161999D01*
X59739000Y-71062001D01*
X59737796Y-71086505D01*
X59734196Y-71110773D01*
X59728235Y-71134572D01*
X59719970Y-71157671D01*
X59709480Y-71179850D01*
X59696868Y-71200893D01*
X59682253Y-71220599D01*
X59665777Y-71238777D01*
X59647599Y-71255253D01*
X59627893Y-71269868D01*
X59606850Y-71282480D01*
X59584671Y-71292970D01*
X59561572Y-71301235D01*
X59537773Y-71307196D01*
X59513505Y-71310796D01*
X59489001Y-71312000D01*
X58838999Y-71312000D01*
X58814495Y-71310796D01*
X58790227Y-71307196D01*
X58766428Y-71301235D01*
X58743329Y-71292970D01*
X58721150Y-71282480D01*
X58700107Y-71269868D01*
X58680401Y-71255253D01*
X58662223Y-71238777D01*
X58645747Y-71220599D01*
X58631132Y-71200893D01*
X58618520Y-71179850D01*
X58608030Y-71157671D01*
X58599765Y-71134572D01*
X58593804Y-71110773D01*
X58590204Y-71086505D01*
X58589000Y-71062001D01*
X58589000Y-70161999D01*
X58590204Y-70137495D01*
X58593804Y-70113227D01*
X58599765Y-70089428D01*
X58608030Y-70066329D01*
X58618520Y-70044150D01*
X58631132Y-70023107D01*
X58645747Y-70003401D01*
X58662223Y-69985223D01*
X58680401Y-69968747D01*
X58700107Y-69954132D01*
X58721150Y-69941520D01*
X58743329Y-69931030D01*
X58766428Y-69922765D01*
X58790227Y-69916804D01*
X58814495Y-69913204D01*
X58838999Y-69912000D01*
X59489001Y-69912000D01*
X59513505Y-69913204D01*
X59513505Y-69913204D01*
G37*
D11*
X59164000Y-70612000D03*
D10*
G36*
X69174505Y-64071204D02*
G01*
X69198773Y-64074804D01*
X69222572Y-64080765D01*
X69245671Y-64089030D01*
X69267850Y-64099520D01*
X69288893Y-64112132D01*
X69308599Y-64126747D01*
X69326777Y-64143223D01*
X69343253Y-64161401D01*
X69357868Y-64181107D01*
X69370480Y-64202150D01*
X69380970Y-64224329D01*
X69389235Y-64247428D01*
X69395196Y-64271227D01*
X69398796Y-64295495D01*
X69400000Y-64319999D01*
X69400000Y-65220001D01*
X69398796Y-65244505D01*
X69395196Y-65268773D01*
X69389235Y-65292572D01*
X69380970Y-65315671D01*
X69370480Y-65337850D01*
X69357868Y-65358893D01*
X69343253Y-65378599D01*
X69326777Y-65396777D01*
X69308599Y-65413253D01*
X69288893Y-65427868D01*
X69267850Y-65440480D01*
X69245671Y-65450970D01*
X69222572Y-65459235D01*
X69198773Y-65465196D01*
X69174505Y-65468796D01*
X69150001Y-65470000D01*
X68499999Y-65470000D01*
X68475495Y-65468796D01*
X68451227Y-65465196D01*
X68427428Y-65459235D01*
X68404329Y-65450970D01*
X68382150Y-65440480D01*
X68361107Y-65427868D01*
X68341401Y-65413253D01*
X68323223Y-65396777D01*
X68306747Y-65378599D01*
X68292132Y-65358893D01*
X68279520Y-65337850D01*
X68269030Y-65315671D01*
X68260765Y-65292572D01*
X68254804Y-65268773D01*
X68251204Y-65244505D01*
X68250000Y-65220001D01*
X68250000Y-64319999D01*
X68251204Y-64295495D01*
X68254804Y-64271227D01*
X68260765Y-64247428D01*
X68269030Y-64224329D01*
X68279520Y-64202150D01*
X68292132Y-64181107D01*
X68306747Y-64161401D01*
X68323223Y-64143223D01*
X68341401Y-64126747D01*
X68361107Y-64112132D01*
X68382150Y-64099520D01*
X68404329Y-64089030D01*
X68427428Y-64080765D01*
X68451227Y-64074804D01*
X68475495Y-64071204D01*
X68499999Y-64070000D01*
X69150001Y-64070000D01*
X69174505Y-64071204D01*
X69174505Y-64071204D01*
G37*
D11*
X68825000Y-64770000D03*
D10*
G36*
X71224505Y-64071204D02*
G01*
X71248773Y-64074804D01*
X71272572Y-64080765D01*
X71295671Y-64089030D01*
X71317850Y-64099520D01*
X71338893Y-64112132D01*
X71358599Y-64126747D01*
X71376777Y-64143223D01*
X71393253Y-64161401D01*
X71407868Y-64181107D01*
X71420480Y-64202150D01*
X71430970Y-64224329D01*
X71439235Y-64247428D01*
X71445196Y-64271227D01*
X71448796Y-64295495D01*
X71450000Y-64319999D01*
X71450000Y-65220001D01*
X71448796Y-65244505D01*
X71445196Y-65268773D01*
X71439235Y-65292572D01*
X71430970Y-65315671D01*
X71420480Y-65337850D01*
X71407868Y-65358893D01*
X71393253Y-65378599D01*
X71376777Y-65396777D01*
X71358599Y-65413253D01*
X71338893Y-65427868D01*
X71317850Y-65440480D01*
X71295671Y-65450970D01*
X71272572Y-65459235D01*
X71248773Y-65465196D01*
X71224505Y-65468796D01*
X71200001Y-65470000D01*
X70549999Y-65470000D01*
X70525495Y-65468796D01*
X70501227Y-65465196D01*
X70477428Y-65459235D01*
X70454329Y-65450970D01*
X70432150Y-65440480D01*
X70411107Y-65427868D01*
X70391401Y-65413253D01*
X70373223Y-65396777D01*
X70356747Y-65378599D01*
X70342132Y-65358893D01*
X70329520Y-65337850D01*
X70319030Y-65315671D01*
X70310765Y-65292572D01*
X70304804Y-65268773D01*
X70301204Y-65244505D01*
X70300000Y-65220001D01*
X70300000Y-64319999D01*
X70301204Y-64295495D01*
X70304804Y-64271227D01*
X70310765Y-64247428D01*
X70319030Y-64224329D01*
X70329520Y-64202150D01*
X70342132Y-64181107D01*
X70356747Y-64161401D01*
X70373223Y-64143223D01*
X70391401Y-64126747D01*
X70411107Y-64112132D01*
X70432150Y-64099520D01*
X70454329Y-64089030D01*
X70477428Y-64080765D01*
X70501227Y-64074804D01*
X70525495Y-64071204D01*
X70549999Y-64070000D01*
X71200001Y-64070000D01*
X71224505Y-64071204D01*
X71224505Y-64071204D01*
G37*
D11*
X70875000Y-64770000D03*
D12*
X62400000Y-65090000D03*
X62400000Y-66040000D03*
X62400000Y-66990000D03*
X64600000Y-66990000D03*
X64600000Y-65090000D03*
X64600000Y-66040000D03*
M02*
