G04 #@! TF.GenerationSoftware,KiCad,Pcbnew,(5.1.4)-1*
G04 #@! TF.CreationDate,2020-11-14T13:58:59-05:00*
G04 #@! TF.ProjectId,circuit,63697263-7569-4742-9e6b-696361645f70,rev?*
G04 #@! TF.SameCoordinates,Original*
G04 #@! TF.FileFunction,Legend,Bot*
G04 #@! TF.FilePolarity,Positive*
%FSLAX46Y46*%
G04 Gerber Fmt 4.6, Leading zero omitted, Abs format (unit mm)*
G04 Created by KiCad (PCBNEW (5.1.4)-1) date 2020-11-14 13:58:59*
%MOMM*%
%LPD*%
G04 APERTURE LIST*
%ADD10C,0.120000*%
%ADD11C,0.150000*%
G04 APERTURE END LIST*
D10*
X61200000Y-77900000D02*
X60750000Y-77450000D01*
X61200000Y-74500000D02*
X60750000Y-74950000D01*
X65800000Y-74500000D02*
X66250000Y-74950000D01*
X65800000Y-77900000D02*
X66250000Y-77450000D01*
X64500000Y-73450000D02*
X62500000Y-73450000D01*
X60750000Y-77450000D02*
X60750000Y-74950000D01*
X64500000Y-78950000D02*
X62500000Y-78950000D01*
X66250000Y-77450000D02*
X66250000Y-74950000D01*
D11*
X67654761Y-74866666D02*
X67702380Y-75009523D01*
X67702380Y-75247619D01*
X67654761Y-75342857D01*
X67607142Y-75390476D01*
X67511904Y-75438095D01*
X67416666Y-75438095D01*
X67321428Y-75390476D01*
X67273809Y-75342857D01*
X67226190Y-75247619D01*
X67178571Y-75057142D01*
X67130952Y-74961904D01*
X67083333Y-74914285D01*
X66988095Y-74866666D01*
X66892857Y-74866666D01*
X66797619Y-74914285D01*
X66750000Y-74961904D01*
X66702380Y-75057142D01*
X66702380Y-75295238D01*
X66750000Y-75438095D01*
X66702380Y-75771428D02*
X67702380Y-76009523D01*
X66988095Y-76200000D01*
X67702380Y-76390476D01*
X66702380Y-76628571D01*
X67702380Y-77533333D02*
X67702380Y-76961904D01*
X67702380Y-77247619D02*
X66702380Y-77247619D01*
X66845238Y-77152380D01*
X66940476Y-77057142D01*
X66988095Y-76961904D01*
X62301428Y-48640952D02*
X62301428Y-47879047D01*
X62682380Y-48260000D02*
X61920476Y-48260000D01*
X66111428Y-69976952D02*
X66111428Y-69215047D01*
M02*
