G04 #@! TF.GenerationSoftware,KiCad,Pcbnew,(5.1.4)-1*
G04 #@! TF.CreationDate,2020-11-14T13:58:59-05:00*
G04 #@! TF.ProjectId,circuit,63697263-7569-4742-9e6b-696361645f70,rev?*
G04 #@! TF.SameCoordinates,Original*
G04 #@! TF.FileFunction,Copper,L2,Bot*
G04 #@! TF.FilePolarity,Positive*
%FSLAX46Y46*%
G04 Gerber Fmt 4.6, Leading zero omitted, Abs format (unit mm)*
G04 Created by KiCad (PCBNEW (5.1.4)-1) date 2020-11-14 13:58:59*
%MOMM*%
%LPD*%
G04 APERTURE LIST*
%ADD10C,0.800000*%
%ADD11C,5.000000*%
%ADD12R,1.000000X1.700000*%
%ADD13R,2.300000X2.300000*%
%ADD14C,2.300000*%
%ADD15C,0.250000*%
%ADD16C,0.254000*%
G04 APERTURE END LIST*
D10*
X65079825Y-43632175D03*
X63754000Y-43083000D03*
X62428175Y-43632175D03*
X61879000Y-44958000D03*
X62428175Y-46283825D03*
X63754000Y-46833000D03*
X65079825Y-46283825D03*
X65629000Y-44958000D03*
D11*
X63754000Y-44958000D03*
D12*
X65400000Y-79350000D03*
X65400000Y-73050000D03*
X61600000Y-79350000D03*
X61600000Y-73050000D03*
D13*
X63510000Y-50830000D03*
D14*
X63500000Y-70800000D03*
D10*
X65054480Y-57091580D03*
D15*
X61600000Y-72700000D02*
X61600000Y-73050000D01*
X63500000Y-70800000D02*
X61600000Y-72700000D01*
X61600000Y-73050000D02*
X61600000Y-79350000D01*
X65454479Y-57491579D02*
X66351099Y-57491579D01*
X65054480Y-57091580D02*
X65454479Y-57491579D01*
X66351099Y-57491579D02*
X70403720Y-61544200D01*
X70403720Y-61544200D02*
X70403720Y-69590920D01*
X70403720Y-69590920D02*
X68834000Y-71160640D01*
X65400000Y-71950000D02*
X65400000Y-73050000D01*
X66189360Y-71160640D02*
X65400000Y-71950000D01*
X68834000Y-71160640D02*
X66189360Y-71160640D01*
X65400000Y-74150000D02*
X65400000Y-79350000D01*
X65400000Y-73050000D02*
X65400000Y-74150000D01*
D16*
G36*
X61755554Y-47393114D02*
G01*
X62269021Y-47736201D01*
X62839554Y-47972524D01*
X63445229Y-48093000D01*
X64062771Y-48093000D01*
X64668446Y-47972524D01*
X65238979Y-47736201D01*
X65752446Y-47393114D01*
X65932523Y-47213037D01*
X69837495Y-52680000D01*
X68628522Y-52680000D01*
X68612237Y-52677592D01*
X68563678Y-52680000D01*
X68547581Y-52680000D01*
X68531258Y-52681608D01*
X68482390Y-52684031D01*
X68466717Y-52687964D01*
X68450617Y-52689550D01*
X68403758Y-52703765D01*
X68356292Y-52715677D01*
X68341680Y-52722596D01*
X68326207Y-52727290D01*
X68283027Y-52750370D01*
X68238791Y-52771317D01*
X68225813Y-52780951D01*
X68211550Y-52788575D01*
X68173700Y-52819638D01*
X68134402Y-52848811D01*
X68123551Y-52860794D01*
X68111052Y-52871052D01*
X68079991Y-52908900D01*
X68047138Y-52945181D01*
X68038834Y-52959049D01*
X68028575Y-52971550D01*
X68005497Y-53014727D01*
X67980351Y-53056723D01*
X67974911Y-53071949D01*
X67967290Y-53086207D01*
X67953076Y-53133062D01*
X67936609Y-53179153D01*
X67934245Y-53195139D01*
X67929550Y-53210617D01*
X67924750Y-53259357D01*
X67917592Y-53307763D01*
X67918392Y-53323903D01*
X67916807Y-53340000D01*
X67921608Y-53388743D01*
X67924031Y-53437610D01*
X67927964Y-53453283D01*
X67929550Y-53469383D01*
X67943765Y-53516242D01*
X67955677Y-53563708D01*
X67962596Y-53578320D01*
X67967290Y-53593793D01*
X67990371Y-53636975D01*
X67997376Y-53651768D01*
X68005640Y-53665541D01*
X68028575Y-53708450D01*
X68039026Y-53721184D01*
X71224315Y-59030000D01*
X69898522Y-59030000D01*
X69882237Y-59027592D01*
X69833678Y-59030000D01*
X69817581Y-59030000D01*
X69801258Y-59031608D01*
X69752390Y-59034031D01*
X69736717Y-59037964D01*
X69720617Y-59039550D01*
X69673758Y-59053765D01*
X69626292Y-59065677D01*
X69611680Y-59072596D01*
X69596207Y-59077290D01*
X69553027Y-59100370D01*
X69508791Y-59121317D01*
X69495813Y-59130951D01*
X69481550Y-59138575D01*
X69443700Y-59169638D01*
X69404402Y-59198811D01*
X69393551Y-59210794D01*
X69381052Y-59221052D01*
X69349991Y-59258900D01*
X69317138Y-59295181D01*
X69308834Y-59309049D01*
X69298575Y-59321550D01*
X69283700Y-59349379D01*
X66914903Y-56980582D01*
X66891100Y-56951578D01*
X66775375Y-56856605D01*
X66643346Y-56786033D01*
X66500085Y-56742576D01*
X66388432Y-56731579D01*
X66388421Y-56731579D01*
X66351099Y-56727903D01*
X66313777Y-56731579D01*
X66025639Y-56731579D01*
X65971685Y-56601324D01*
X65858417Y-56431806D01*
X65714254Y-56287643D01*
X65544736Y-56174375D01*
X65356378Y-56096354D01*
X65156419Y-56056580D01*
X64952541Y-56056580D01*
X64752582Y-56096354D01*
X64564224Y-56174375D01*
X64394706Y-56287643D01*
X64250543Y-56431806D01*
X64137275Y-56601324D01*
X64059254Y-56789682D01*
X64019480Y-56989641D01*
X64019480Y-57193519D01*
X64059254Y-57393478D01*
X64137275Y-57581836D01*
X64250543Y-57751354D01*
X64394706Y-57895517D01*
X64564224Y-58008785D01*
X64752582Y-58086806D01*
X64952541Y-58126580D01*
X65030254Y-58126580D01*
X65162232Y-58197125D01*
X65305493Y-58240582D01*
X65417146Y-58251579D01*
X65417156Y-58251579D01*
X65454478Y-58255255D01*
X65491801Y-58251579D01*
X66036298Y-58251579D01*
X69643720Y-61859002D01*
X69643721Y-69276117D01*
X68519199Y-70400640D01*
X66226693Y-70400640D01*
X66189360Y-70396963D01*
X66152027Y-70400640D01*
X66040374Y-70411637D01*
X65897113Y-70455094D01*
X65765084Y-70525666D01*
X65649359Y-70620639D01*
X65625561Y-70649638D01*
X65275659Y-70999540D01*
X65292741Y-70743339D01*
X65247240Y-70394681D01*
X65134594Y-70061600D01*
X65022090Y-69851118D01*
X64742349Y-69737256D01*
X63679605Y-70800000D01*
X63693748Y-70814143D01*
X63514143Y-70993748D01*
X63500000Y-70979605D01*
X63485858Y-70993748D01*
X63306253Y-70814143D01*
X63320395Y-70800000D01*
X62257651Y-69737256D01*
X61977910Y-69851118D01*
X61822039Y-70166296D01*
X61730651Y-70505826D01*
X61707259Y-70856661D01*
X61752760Y-71205319D01*
X61865406Y-71538400D01*
X61881758Y-71568992D01*
X61727000Y-71723750D01*
X61727000Y-72923000D01*
X62576250Y-72923000D01*
X62735000Y-72764250D01*
X62736907Y-72413972D01*
X62866296Y-72477961D01*
X63205826Y-72569349D01*
X63556661Y-72592741D01*
X63905319Y-72547240D01*
X64238400Y-72434594D01*
X64261928Y-72422018D01*
X64261928Y-73900000D01*
X64274188Y-74024482D01*
X64310498Y-74144180D01*
X64369463Y-74254494D01*
X64448815Y-74351185D01*
X64545506Y-74430537D01*
X64640000Y-74481046D01*
X64640001Y-77918954D01*
X64545506Y-77969463D01*
X64448815Y-78048815D01*
X64369463Y-78145506D01*
X64310498Y-78255820D01*
X64274188Y-78375518D01*
X64261928Y-78500000D01*
X64261928Y-79350000D01*
X62735000Y-79350000D01*
X62735000Y-79222998D01*
X62576252Y-79222998D01*
X62735000Y-79064250D01*
X62738072Y-78500000D01*
X62725812Y-78375518D01*
X62689502Y-78255820D01*
X62630537Y-78145506D01*
X62551185Y-78048815D01*
X62454494Y-77969463D01*
X62344180Y-77910498D01*
X62224482Y-77874188D01*
X62100000Y-77861928D01*
X61885750Y-77865000D01*
X61727002Y-78023748D01*
X61727002Y-77865000D01*
X61620000Y-77865000D01*
X61620000Y-74535000D01*
X61727002Y-74535000D01*
X61727002Y-74376252D01*
X61885750Y-74535000D01*
X62100000Y-74538072D01*
X62224482Y-74525812D01*
X62344180Y-74489502D01*
X62454494Y-74430537D01*
X62551185Y-74351185D01*
X62630537Y-74254494D01*
X62689502Y-74144180D01*
X62725812Y-74024482D01*
X62738072Y-73900000D01*
X62735000Y-73335750D01*
X62576250Y-73177000D01*
X61727000Y-73177000D01*
X61727000Y-73197000D01*
X61620000Y-73197000D01*
X61620000Y-72422419D01*
X61623193Y-72390000D01*
X61610450Y-72260617D01*
X61572710Y-72136207D01*
X61511425Y-72021550D01*
X61473000Y-71974729D01*
X61473000Y-71723750D01*
X61314250Y-71565000D01*
X61100000Y-71561928D01*
X60975518Y-71574188D01*
X60855820Y-71610498D01*
X60745506Y-71669463D01*
X60671741Y-71730000D01*
X53235685Y-71730000D01*
X54539094Y-69557651D01*
X62437256Y-69557651D01*
X63500000Y-70620395D01*
X64562744Y-69557651D01*
X64448882Y-69277910D01*
X64133704Y-69122039D01*
X63794174Y-69030651D01*
X63443339Y-69007259D01*
X63094681Y-69052760D01*
X62761600Y-69165406D01*
X62551118Y-69277910D01*
X62437256Y-69557651D01*
X54539094Y-69557651D01*
X56420977Y-66421181D01*
X56431425Y-66408450D01*
X56454355Y-66365551D01*
X56462624Y-66351769D01*
X56469633Y-66336967D01*
X56492710Y-66293793D01*
X56497403Y-66278323D01*
X56504323Y-66263709D01*
X56516237Y-66216237D01*
X56530450Y-66169383D01*
X56532036Y-66153284D01*
X56535969Y-66137611D01*
X56538393Y-66088735D01*
X56543193Y-66040000D01*
X56541608Y-66023909D01*
X56542409Y-66007763D01*
X56535249Y-65959345D01*
X56530450Y-65910617D01*
X56525755Y-65895140D01*
X56523391Y-65879153D01*
X56506924Y-65833062D01*
X56492710Y-65786207D01*
X56485089Y-65771949D01*
X56479649Y-65756723D01*
X56454503Y-65714727D01*
X56431425Y-65671550D01*
X56421166Y-65659049D01*
X56412862Y-65645181D01*
X56380009Y-65608900D01*
X56348948Y-65571052D01*
X56336449Y-65560794D01*
X56325598Y-65548811D01*
X56286296Y-65519635D01*
X56248450Y-65488575D01*
X56234190Y-65480953D01*
X56221210Y-65471317D01*
X56176968Y-65450367D01*
X56133793Y-65427290D01*
X56118321Y-65422596D01*
X56103708Y-65415677D01*
X56056240Y-65403764D01*
X56009383Y-65389550D01*
X55993284Y-65387964D01*
X55977611Y-65384031D01*
X55928735Y-65381607D01*
X55912419Y-65380000D01*
X55896334Y-65380000D01*
X55847762Y-65377591D01*
X55831471Y-65380000D01*
X54505685Y-65380000D01*
X57690977Y-60071181D01*
X57701425Y-60058450D01*
X57724355Y-60015551D01*
X57732624Y-60001769D01*
X57739633Y-59986967D01*
X57762710Y-59943793D01*
X57767403Y-59928323D01*
X57774323Y-59913709D01*
X57786237Y-59866237D01*
X57800450Y-59819383D01*
X57802036Y-59803284D01*
X57805969Y-59787611D01*
X57808393Y-59738735D01*
X57813193Y-59690000D01*
X57811608Y-59673909D01*
X57812409Y-59657763D01*
X57805249Y-59609345D01*
X57800450Y-59560617D01*
X57795755Y-59545140D01*
X57793391Y-59529153D01*
X57776924Y-59483062D01*
X57762710Y-59436207D01*
X57755089Y-59421949D01*
X57749649Y-59406723D01*
X57724503Y-59364727D01*
X57701425Y-59321550D01*
X57691166Y-59309049D01*
X57682862Y-59295181D01*
X57650009Y-59258900D01*
X57618948Y-59221052D01*
X57606449Y-59210794D01*
X57595598Y-59198811D01*
X57556296Y-59169635D01*
X57518450Y-59138575D01*
X57504190Y-59130953D01*
X57491210Y-59121317D01*
X57446968Y-59100367D01*
X57403793Y-59077290D01*
X57388321Y-59072596D01*
X57373708Y-59065677D01*
X57326240Y-59053764D01*
X57279383Y-59039550D01*
X57263284Y-59037964D01*
X57247611Y-59034031D01*
X57198735Y-59031607D01*
X57182419Y-59030000D01*
X57166334Y-59030000D01*
X57117762Y-59027591D01*
X57101471Y-59030000D01*
X55775685Y-59030000D01*
X58960977Y-53721181D01*
X58971425Y-53708450D01*
X58994355Y-53665551D01*
X59002624Y-53651769D01*
X59009633Y-53636967D01*
X59032710Y-53593793D01*
X59037403Y-53578323D01*
X59044323Y-53563709D01*
X59056237Y-53516237D01*
X59070450Y-53469383D01*
X59072036Y-53453284D01*
X59075969Y-53437611D01*
X59078393Y-53388735D01*
X59083193Y-53340000D01*
X59081608Y-53323909D01*
X59082409Y-53307763D01*
X59075249Y-53259345D01*
X59070450Y-53210617D01*
X59065755Y-53195140D01*
X59063391Y-53179153D01*
X59046924Y-53133062D01*
X59032710Y-53086207D01*
X59025089Y-53071949D01*
X59019649Y-53056723D01*
X58994503Y-53014727D01*
X58971425Y-52971550D01*
X58961166Y-52959049D01*
X58952862Y-52945181D01*
X58920009Y-52908900D01*
X58888948Y-52871052D01*
X58876449Y-52860794D01*
X58865598Y-52848811D01*
X58826296Y-52819635D01*
X58788450Y-52788575D01*
X58774190Y-52780953D01*
X58761210Y-52771317D01*
X58716968Y-52750367D01*
X58673793Y-52727290D01*
X58658321Y-52722596D01*
X58643708Y-52715677D01*
X58596240Y-52703764D01*
X58549383Y-52689550D01*
X58533284Y-52687964D01*
X58517611Y-52684031D01*
X58468735Y-52681607D01*
X58452419Y-52680000D01*
X58436334Y-52680000D01*
X58387762Y-52677591D01*
X58371471Y-52680000D01*
X57217982Y-52680000D01*
X59518932Y-49680000D01*
X61721928Y-49680000D01*
X61721928Y-51980000D01*
X61734188Y-52104482D01*
X61770498Y-52224180D01*
X61829463Y-52334494D01*
X61908815Y-52431185D01*
X62005506Y-52510537D01*
X62115820Y-52569502D01*
X62235518Y-52605812D01*
X62360000Y-52618072D01*
X64660000Y-52618072D01*
X64784482Y-52605812D01*
X64904180Y-52569502D01*
X65014494Y-52510537D01*
X65111185Y-52431185D01*
X65190537Y-52334494D01*
X65249502Y-52224180D01*
X65285812Y-52104482D01*
X65298072Y-51980000D01*
X65298072Y-49680000D01*
X65285812Y-49555518D01*
X65249502Y-49435820D01*
X65190537Y-49325506D01*
X65111185Y-49228815D01*
X65014494Y-49149463D01*
X64904180Y-49090498D01*
X64784482Y-49054188D01*
X64660000Y-49041928D01*
X62360000Y-49041928D01*
X62235518Y-49054188D01*
X62115820Y-49090498D01*
X62005506Y-49149463D01*
X61908815Y-49228815D01*
X61829463Y-49325506D01*
X61770498Y-49435820D01*
X61734188Y-49555518D01*
X61721928Y-49680000D01*
X59518932Y-49680000D01*
X61482423Y-47119983D01*
X61755554Y-47393114D01*
X61755554Y-47393114D01*
G37*
X61755554Y-47393114D02*
X62269021Y-47736201D01*
X62839554Y-47972524D01*
X63445229Y-48093000D01*
X64062771Y-48093000D01*
X64668446Y-47972524D01*
X65238979Y-47736201D01*
X65752446Y-47393114D01*
X65932523Y-47213037D01*
X69837495Y-52680000D01*
X68628522Y-52680000D01*
X68612237Y-52677592D01*
X68563678Y-52680000D01*
X68547581Y-52680000D01*
X68531258Y-52681608D01*
X68482390Y-52684031D01*
X68466717Y-52687964D01*
X68450617Y-52689550D01*
X68403758Y-52703765D01*
X68356292Y-52715677D01*
X68341680Y-52722596D01*
X68326207Y-52727290D01*
X68283027Y-52750370D01*
X68238791Y-52771317D01*
X68225813Y-52780951D01*
X68211550Y-52788575D01*
X68173700Y-52819638D01*
X68134402Y-52848811D01*
X68123551Y-52860794D01*
X68111052Y-52871052D01*
X68079991Y-52908900D01*
X68047138Y-52945181D01*
X68038834Y-52959049D01*
X68028575Y-52971550D01*
X68005497Y-53014727D01*
X67980351Y-53056723D01*
X67974911Y-53071949D01*
X67967290Y-53086207D01*
X67953076Y-53133062D01*
X67936609Y-53179153D01*
X67934245Y-53195139D01*
X67929550Y-53210617D01*
X67924750Y-53259357D01*
X67917592Y-53307763D01*
X67918392Y-53323903D01*
X67916807Y-53340000D01*
X67921608Y-53388743D01*
X67924031Y-53437610D01*
X67927964Y-53453283D01*
X67929550Y-53469383D01*
X67943765Y-53516242D01*
X67955677Y-53563708D01*
X67962596Y-53578320D01*
X67967290Y-53593793D01*
X67990371Y-53636975D01*
X67997376Y-53651768D01*
X68005640Y-53665541D01*
X68028575Y-53708450D01*
X68039026Y-53721184D01*
X71224315Y-59030000D01*
X69898522Y-59030000D01*
X69882237Y-59027592D01*
X69833678Y-59030000D01*
X69817581Y-59030000D01*
X69801258Y-59031608D01*
X69752390Y-59034031D01*
X69736717Y-59037964D01*
X69720617Y-59039550D01*
X69673758Y-59053765D01*
X69626292Y-59065677D01*
X69611680Y-59072596D01*
X69596207Y-59077290D01*
X69553027Y-59100370D01*
X69508791Y-59121317D01*
X69495813Y-59130951D01*
X69481550Y-59138575D01*
X69443700Y-59169638D01*
X69404402Y-59198811D01*
X69393551Y-59210794D01*
X69381052Y-59221052D01*
X69349991Y-59258900D01*
X69317138Y-59295181D01*
X69308834Y-59309049D01*
X69298575Y-59321550D01*
X69283700Y-59349379D01*
X66914903Y-56980582D01*
X66891100Y-56951578D01*
X66775375Y-56856605D01*
X66643346Y-56786033D01*
X66500085Y-56742576D01*
X66388432Y-56731579D01*
X66388421Y-56731579D01*
X66351099Y-56727903D01*
X66313777Y-56731579D01*
X66025639Y-56731579D01*
X65971685Y-56601324D01*
X65858417Y-56431806D01*
X65714254Y-56287643D01*
X65544736Y-56174375D01*
X65356378Y-56096354D01*
X65156419Y-56056580D01*
X64952541Y-56056580D01*
X64752582Y-56096354D01*
X64564224Y-56174375D01*
X64394706Y-56287643D01*
X64250543Y-56431806D01*
X64137275Y-56601324D01*
X64059254Y-56789682D01*
X64019480Y-56989641D01*
X64019480Y-57193519D01*
X64059254Y-57393478D01*
X64137275Y-57581836D01*
X64250543Y-57751354D01*
X64394706Y-57895517D01*
X64564224Y-58008785D01*
X64752582Y-58086806D01*
X64952541Y-58126580D01*
X65030254Y-58126580D01*
X65162232Y-58197125D01*
X65305493Y-58240582D01*
X65417146Y-58251579D01*
X65417156Y-58251579D01*
X65454478Y-58255255D01*
X65491801Y-58251579D01*
X66036298Y-58251579D01*
X69643720Y-61859002D01*
X69643721Y-69276117D01*
X68519199Y-70400640D01*
X66226693Y-70400640D01*
X66189360Y-70396963D01*
X66152027Y-70400640D01*
X66040374Y-70411637D01*
X65897113Y-70455094D01*
X65765084Y-70525666D01*
X65649359Y-70620639D01*
X65625561Y-70649638D01*
X65275659Y-70999540D01*
X65292741Y-70743339D01*
X65247240Y-70394681D01*
X65134594Y-70061600D01*
X65022090Y-69851118D01*
X64742349Y-69737256D01*
X63679605Y-70800000D01*
X63693748Y-70814143D01*
X63514143Y-70993748D01*
X63500000Y-70979605D01*
X63485858Y-70993748D01*
X63306253Y-70814143D01*
X63320395Y-70800000D01*
X62257651Y-69737256D01*
X61977910Y-69851118D01*
X61822039Y-70166296D01*
X61730651Y-70505826D01*
X61707259Y-70856661D01*
X61752760Y-71205319D01*
X61865406Y-71538400D01*
X61881758Y-71568992D01*
X61727000Y-71723750D01*
X61727000Y-72923000D01*
X62576250Y-72923000D01*
X62735000Y-72764250D01*
X62736907Y-72413972D01*
X62866296Y-72477961D01*
X63205826Y-72569349D01*
X63556661Y-72592741D01*
X63905319Y-72547240D01*
X64238400Y-72434594D01*
X64261928Y-72422018D01*
X64261928Y-73900000D01*
X64274188Y-74024482D01*
X64310498Y-74144180D01*
X64369463Y-74254494D01*
X64448815Y-74351185D01*
X64545506Y-74430537D01*
X64640000Y-74481046D01*
X64640001Y-77918954D01*
X64545506Y-77969463D01*
X64448815Y-78048815D01*
X64369463Y-78145506D01*
X64310498Y-78255820D01*
X64274188Y-78375518D01*
X64261928Y-78500000D01*
X64261928Y-79350000D01*
X62735000Y-79350000D01*
X62735000Y-79222998D01*
X62576252Y-79222998D01*
X62735000Y-79064250D01*
X62738072Y-78500000D01*
X62725812Y-78375518D01*
X62689502Y-78255820D01*
X62630537Y-78145506D01*
X62551185Y-78048815D01*
X62454494Y-77969463D01*
X62344180Y-77910498D01*
X62224482Y-77874188D01*
X62100000Y-77861928D01*
X61885750Y-77865000D01*
X61727002Y-78023748D01*
X61727002Y-77865000D01*
X61620000Y-77865000D01*
X61620000Y-74535000D01*
X61727002Y-74535000D01*
X61727002Y-74376252D01*
X61885750Y-74535000D01*
X62100000Y-74538072D01*
X62224482Y-74525812D01*
X62344180Y-74489502D01*
X62454494Y-74430537D01*
X62551185Y-74351185D01*
X62630537Y-74254494D01*
X62689502Y-74144180D01*
X62725812Y-74024482D01*
X62738072Y-73900000D01*
X62735000Y-73335750D01*
X62576250Y-73177000D01*
X61727000Y-73177000D01*
X61727000Y-73197000D01*
X61620000Y-73197000D01*
X61620000Y-72422419D01*
X61623193Y-72390000D01*
X61610450Y-72260617D01*
X61572710Y-72136207D01*
X61511425Y-72021550D01*
X61473000Y-71974729D01*
X61473000Y-71723750D01*
X61314250Y-71565000D01*
X61100000Y-71561928D01*
X60975518Y-71574188D01*
X60855820Y-71610498D01*
X60745506Y-71669463D01*
X60671741Y-71730000D01*
X53235685Y-71730000D01*
X54539094Y-69557651D01*
X62437256Y-69557651D01*
X63500000Y-70620395D01*
X64562744Y-69557651D01*
X64448882Y-69277910D01*
X64133704Y-69122039D01*
X63794174Y-69030651D01*
X63443339Y-69007259D01*
X63094681Y-69052760D01*
X62761600Y-69165406D01*
X62551118Y-69277910D01*
X62437256Y-69557651D01*
X54539094Y-69557651D01*
X56420977Y-66421181D01*
X56431425Y-66408450D01*
X56454355Y-66365551D01*
X56462624Y-66351769D01*
X56469633Y-66336967D01*
X56492710Y-66293793D01*
X56497403Y-66278323D01*
X56504323Y-66263709D01*
X56516237Y-66216237D01*
X56530450Y-66169383D01*
X56532036Y-66153284D01*
X56535969Y-66137611D01*
X56538393Y-66088735D01*
X56543193Y-66040000D01*
X56541608Y-66023909D01*
X56542409Y-66007763D01*
X56535249Y-65959345D01*
X56530450Y-65910617D01*
X56525755Y-65895140D01*
X56523391Y-65879153D01*
X56506924Y-65833062D01*
X56492710Y-65786207D01*
X56485089Y-65771949D01*
X56479649Y-65756723D01*
X56454503Y-65714727D01*
X56431425Y-65671550D01*
X56421166Y-65659049D01*
X56412862Y-65645181D01*
X56380009Y-65608900D01*
X56348948Y-65571052D01*
X56336449Y-65560794D01*
X56325598Y-65548811D01*
X56286296Y-65519635D01*
X56248450Y-65488575D01*
X56234190Y-65480953D01*
X56221210Y-65471317D01*
X56176968Y-65450367D01*
X56133793Y-65427290D01*
X56118321Y-65422596D01*
X56103708Y-65415677D01*
X56056240Y-65403764D01*
X56009383Y-65389550D01*
X55993284Y-65387964D01*
X55977611Y-65384031D01*
X55928735Y-65381607D01*
X55912419Y-65380000D01*
X55896334Y-65380000D01*
X55847762Y-65377591D01*
X55831471Y-65380000D01*
X54505685Y-65380000D01*
X57690977Y-60071181D01*
X57701425Y-60058450D01*
X57724355Y-60015551D01*
X57732624Y-60001769D01*
X57739633Y-59986967D01*
X57762710Y-59943793D01*
X57767403Y-59928323D01*
X57774323Y-59913709D01*
X57786237Y-59866237D01*
X57800450Y-59819383D01*
X57802036Y-59803284D01*
X57805969Y-59787611D01*
X57808393Y-59738735D01*
X57813193Y-59690000D01*
X57811608Y-59673909D01*
X57812409Y-59657763D01*
X57805249Y-59609345D01*
X57800450Y-59560617D01*
X57795755Y-59545140D01*
X57793391Y-59529153D01*
X57776924Y-59483062D01*
X57762710Y-59436207D01*
X57755089Y-59421949D01*
X57749649Y-59406723D01*
X57724503Y-59364727D01*
X57701425Y-59321550D01*
X57691166Y-59309049D01*
X57682862Y-59295181D01*
X57650009Y-59258900D01*
X57618948Y-59221052D01*
X57606449Y-59210794D01*
X57595598Y-59198811D01*
X57556296Y-59169635D01*
X57518450Y-59138575D01*
X57504190Y-59130953D01*
X57491210Y-59121317D01*
X57446968Y-59100367D01*
X57403793Y-59077290D01*
X57388321Y-59072596D01*
X57373708Y-59065677D01*
X57326240Y-59053764D01*
X57279383Y-59039550D01*
X57263284Y-59037964D01*
X57247611Y-59034031D01*
X57198735Y-59031607D01*
X57182419Y-59030000D01*
X57166334Y-59030000D01*
X57117762Y-59027591D01*
X57101471Y-59030000D01*
X55775685Y-59030000D01*
X58960977Y-53721181D01*
X58971425Y-53708450D01*
X58994355Y-53665551D01*
X59002624Y-53651769D01*
X59009633Y-53636967D01*
X59032710Y-53593793D01*
X59037403Y-53578323D01*
X59044323Y-53563709D01*
X59056237Y-53516237D01*
X59070450Y-53469383D01*
X59072036Y-53453284D01*
X59075969Y-53437611D01*
X59078393Y-53388735D01*
X59083193Y-53340000D01*
X59081608Y-53323909D01*
X59082409Y-53307763D01*
X59075249Y-53259345D01*
X59070450Y-53210617D01*
X59065755Y-53195140D01*
X59063391Y-53179153D01*
X59046924Y-53133062D01*
X59032710Y-53086207D01*
X59025089Y-53071949D01*
X59019649Y-53056723D01*
X58994503Y-53014727D01*
X58971425Y-52971550D01*
X58961166Y-52959049D01*
X58952862Y-52945181D01*
X58920009Y-52908900D01*
X58888948Y-52871052D01*
X58876449Y-52860794D01*
X58865598Y-52848811D01*
X58826296Y-52819635D01*
X58788450Y-52788575D01*
X58774190Y-52780953D01*
X58761210Y-52771317D01*
X58716968Y-52750367D01*
X58673793Y-52727290D01*
X58658321Y-52722596D01*
X58643708Y-52715677D01*
X58596240Y-52703764D01*
X58549383Y-52689550D01*
X58533284Y-52687964D01*
X58517611Y-52684031D01*
X58468735Y-52681607D01*
X58452419Y-52680000D01*
X58436334Y-52680000D01*
X58387762Y-52677591D01*
X58371471Y-52680000D01*
X57217982Y-52680000D01*
X59518932Y-49680000D01*
X61721928Y-49680000D01*
X61721928Y-51980000D01*
X61734188Y-52104482D01*
X61770498Y-52224180D01*
X61829463Y-52334494D01*
X61908815Y-52431185D01*
X62005506Y-52510537D01*
X62115820Y-52569502D01*
X62235518Y-52605812D01*
X62360000Y-52618072D01*
X64660000Y-52618072D01*
X64784482Y-52605812D01*
X64904180Y-52569502D01*
X65014494Y-52510537D01*
X65111185Y-52431185D01*
X65190537Y-52334494D01*
X65249502Y-52224180D01*
X65285812Y-52104482D01*
X65298072Y-51980000D01*
X65298072Y-49680000D01*
X65285812Y-49555518D01*
X65249502Y-49435820D01*
X65190537Y-49325506D01*
X65111185Y-49228815D01*
X65014494Y-49149463D01*
X64904180Y-49090498D01*
X64784482Y-49054188D01*
X64660000Y-49041928D01*
X62360000Y-49041928D01*
X62235518Y-49054188D01*
X62115820Y-49090498D01*
X62005506Y-49149463D01*
X61908815Y-49228815D01*
X61829463Y-49325506D01*
X61770498Y-49435820D01*
X61734188Y-49555518D01*
X61721928Y-49680000D01*
X59518932Y-49680000D01*
X61482423Y-47119983D01*
X61755554Y-47393114D01*
G36*
X61727000Y-79223000D02*
G01*
X61747000Y-79223000D01*
X61747000Y-79350000D01*
X61620000Y-79350000D01*
X61620000Y-79203000D01*
X61727000Y-79203000D01*
X61727000Y-79223000D01*
X61727000Y-79223000D01*
G37*
X61727000Y-79223000D02*
X61747000Y-79223000D01*
X61747000Y-79350000D01*
X61620000Y-79350000D01*
X61620000Y-79203000D01*
X61727000Y-79203000D01*
X61727000Y-79223000D01*
M02*
