G04 #@! TF.GenerationSoftware,KiCad,Pcbnew,(5.1.4)-1*
G04 #@! TF.CreationDate,2020-11-14T13:58:59-05:00*
G04 #@! TF.ProjectId,circuit,63697263-7569-4742-9e6b-696361645f70,rev?*
G04 #@! TF.SameCoordinates,Original*
G04 #@! TF.FileFunction,Legend,Top*
G04 #@! TF.FilePolarity,Positive*
%FSLAX46Y46*%
G04 Gerber Fmt 4.6, Leading zero omitted, Abs format (unit mm)*
G04 Created by KiCad (PCBNEW (5.1.4)-1) date 2020-11-14 13:58:59*
%MOMM*%
%LPD*%
G04 APERTURE LIST*
%ADD10C,0.120000*%
%ADD11C,0.150000*%
G04 APERTURE END LIST*
D10*
X61452000Y-52888000D02*
X58592000Y-52888000D01*
X58592000Y-52888000D02*
X58592000Y-54808000D01*
X58592000Y-54808000D02*
X61452000Y-54808000D01*
X56995500Y-68866900D02*
X59855500Y-68866900D01*
X56995500Y-66946900D02*
X56995500Y-68866900D01*
X59855500Y-66946900D02*
X56995500Y-66946900D01*
X68501660Y-61343660D02*
X65641660Y-61343660D01*
X65641660Y-61343660D02*
X65641660Y-63263660D01*
X65641660Y-63263660D02*
X68501660Y-63263660D01*
X65539252Y-55066000D02*
X65016748Y-55066000D01*
X65539252Y-53646000D02*
X65016748Y-53646000D01*
X57971948Y-64771340D02*
X58494452Y-64771340D01*
X57971948Y-63351340D02*
X58494452Y-63351340D01*
X68045588Y-66353620D02*
X68568092Y-66353620D01*
X68045588Y-67773620D02*
X68568092Y-67773620D01*
X61838000Y-60538000D02*
X63638000Y-60538000D01*
X63638000Y-57318000D02*
X61188000Y-57318000D01*
D11*
X75500000Y-59800000D02*
G75*
G03X75500000Y-59800000I-12000000J0D01*
G01*
X63500000Y-71800000D02*
X67500000Y-71800000D01*
X67500000Y-71800000D02*
X67500000Y-70800000D01*
X67500000Y-70800000D02*
X67500000Y-71800000D01*
X67500000Y-71800000D02*
X59500000Y-71800000D01*
X59500000Y-71800000D02*
X59500000Y-70800000D01*
X62420666Y-41910380D02*
X62087333Y-41434190D01*
X61849238Y-41910380D02*
X61849238Y-40910380D01*
X62230190Y-40910380D01*
X62325428Y-40958000D01*
X62373047Y-41005619D01*
X62420666Y-41100857D01*
X62420666Y-41243714D01*
X62373047Y-41338952D01*
X62325428Y-41386571D01*
X62230190Y-41434190D01*
X61849238Y-41434190D01*
X62849238Y-41386571D02*
X63182571Y-41386571D01*
X63325428Y-41910380D02*
X62849238Y-41910380D01*
X62849238Y-40910380D01*
X63325428Y-40910380D01*
X64087333Y-41386571D02*
X63754000Y-41386571D01*
X63754000Y-41910380D02*
X63754000Y-40910380D01*
X64230190Y-40910380D01*
X64754000Y-40910380D02*
X64754000Y-41148476D01*
X64515904Y-41053238D02*
X64754000Y-41148476D01*
X64992095Y-41053238D01*
X64611142Y-41338952D02*
X64754000Y-41148476D01*
X64896857Y-41338952D01*
X65515904Y-40910380D02*
X65515904Y-41148476D01*
X65277809Y-41053238D02*
X65515904Y-41148476D01*
X65754000Y-41053238D01*
X65373047Y-41338952D02*
X65515904Y-41148476D01*
X65658761Y-41338952D01*
X59713904Y-52650380D02*
X59713904Y-51650380D01*
X59952000Y-51650380D01*
X60094857Y-51698000D01*
X60190095Y-51793238D01*
X60237714Y-51888476D01*
X60285333Y-52078952D01*
X60285333Y-52221809D01*
X60237714Y-52412285D01*
X60190095Y-52507523D01*
X60094857Y-52602761D01*
X59952000Y-52650380D01*
X59713904Y-52650380D01*
X61237714Y-52650380D02*
X60666285Y-52650380D01*
X60952000Y-52650380D02*
X60952000Y-51650380D01*
X60856761Y-51793238D01*
X60761523Y-51888476D01*
X60666285Y-51936095D01*
X58117404Y-66709280D02*
X58117404Y-65709280D01*
X58355500Y-65709280D01*
X58498357Y-65756900D01*
X58593595Y-65852138D01*
X58641214Y-65947376D01*
X58688833Y-66137852D01*
X58688833Y-66280709D01*
X58641214Y-66471185D01*
X58593595Y-66566423D01*
X58498357Y-66661661D01*
X58355500Y-66709280D01*
X58117404Y-66709280D01*
X59069785Y-65804519D02*
X59117404Y-65756900D01*
X59212642Y-65709280D01*
X59450738Y-65709280D01*
X59545976Y-65756900D01*
X59593595Y-65804519D01*
X59641214Y-65899757D01*
X59641214Y-65994995D01*
X59593595Y-66137852D01*
X59022166Y-66709280D01*
X59641214Y-66709280D01*
X66763564Y-61106040D02*
X66763564Y-60106040D01*
X67001660Y-60106040D01*
X67144517Y-60153660D01*
X67239755Y-60248898D01*
X67287374Y-60344136D01*
X67334993Y-60534612D01*
X67334993Y-60677469D01*
X67287374Y-60867945D01*
X67239755Y-60963183D01*
X67144517Y-61058421D01*
X67001660Y-61106040D01*
X66763564Y-61106040D01*
X67668326Y-60106040D02*
X68287374Y-60106040D01*
X67954040Y-60486993D01*
X68096898Y-60486993D01*
X68192136Y-60534612D01*
X68239755Y-60582231D01*
X68287374Y-60677469D01*
X68287374Y-60915564D01*
X68239755Y-61010802D01*
X68192136Y-61058421D01*
X68096898Y-61106040D01*
X67811183Y-61106040D01*
X67715945Y-61058421D01*
X67668326Y-61010802D01*
X65111333Y-56458380D02*
X64778000Y-55982190D01*
X64539904Y-56458380D02*
X64539904Y-55458380D01*
X64920857Y-55458380D01*
X65016095Y-55506000D01*
X65063714Y-55553619D01*
X65111333Y-55648857D01*
X65111333Y-55791714D01*
X65063714Y-55886952D01*
X65016095Y-55934571D01*
X64920857Y-55982190D01*
X64539904Y-55982190D01*
X66063714Y-56458380D02*
X65492285Y-56458380D01*
X65778000Y-56458380D02*
X65778000Y-55458380D01*
X65682761Y-55601238D01*
X65587523Y-55696476D01*
X65492285Y-55744095D01*
X58066533Y-62863720D02*
X57733200Y-62387530D01*
X57495104Y-62863720D02*
X57495104Y-61863720D01*
X57876057Y-61863720D01*
X57971295Y-61911340D01*
X58018914Y-61958959D01*
X58066533Y-62054197D01*
X58066533Y-62197054D01*
X58018914Y-62292292D01*
X57971295Y-62339911D01*
X57876057Y-62387530D01*
X57495104Y-62387530D01*
X58447485Y-61958959D02*
X58495104Y-61911340D01*
X58590342Y-61863720D01*
X58828438Y-61863720D01*
X58923676Y-61911340D01*
X58971295Y-61958959D01*
X59018914Y-62054197D01*
X59018914Y-62149435D01*
X58971295Y-62292292D01*
X58399866Y-62863720D01*
X59018914Y-62863720D01*
X68140173Y-65866000D02*
X67806840Y-65389810D01*
X67568744Y-65866000D02*
X67568744Y-64866000D01*
X67949697Y-64866000D01*
X68044935Y-64913620D01*
X68092554Y-64961239D01*
X68140173Y-65056477D01*
X68140173Y-65199334D01*
X68092554Y-65294572D01*
X68044935Y-65342191D01*
X67949697Y-65389810D01*
X67568744Y-65389810D01*
X68473506Y-64866000D02*
X69092554Y-64866000D01*
X68759220Y-65246953D01*
X68902078Y-65246953D01*
X68997316Y-65294572D01*
X69044935Y-65342191D01*
X69092554Y-65437429D01*
X69092554Y-65675524D01*
X69044935Y-65770762D01*
X68997316Y-65818381D01*
X68902078Y-65866000D01*
X68616363Y-65866000D01*
X68521125Y-65818381D01*
X68473506Y-65770762D01*
X61976095Y-55480380D02*
X61976095Y-56289904D01*
X62023714Y-56385142D01*
X62071333Y-56432761D01*
X62166571Y-56480380D01*
X62357047Y-56480380D01*
X62452285Y-56432761D01*
X62499904Y-56385142D01*
X62547523Y-56289904D01*
X62547523Y-55480380D01*
X63547523Y-56480380D02*
X62976095Y-56480380D01*
X63261809Y-56480380D02*
X63261809Y-55480380D01*
X63166571Y-55623238D01*
X63071333Y-55718476D01*
X62976095Y-55766095D01*
X56118571Y-51555714D02*
X56166190Y-51412857D01*
X56213809Y-51365238D01*
X56309047Y-51317619D01*
X56451904Y-51317619D01*
X56547142Y-51365238D01*
X56594761Y-51412857D01*
X56642380Y-51508095D01*
X56642380Y-51889047D01*
X55642380Y-51889047D01*
X55642380Y-51555714D01*
X55690000Y-51460476D01*
X55737619Y-51412857D01*
X55832857Y-51365238D01*
X55928095Y-51365238D01*
X56023333Y-51412857D01*
X56070952Y-51460476D01*
X56118571Y-51555714D01*
X56118571Y-51889047D01*
X55642380Y-51031904D02*
X55642380Y-50460476D01*
X56642380Y-50746190D02*
X55642380Y-50746190D01*
X56642380Y-49603333D02*
X56642380Y-50174761D01*
X56642380Y-49889047D02*
X55642380Y-49889047D01*
X55785238Y-49984285D01*
X55880476Y-50079523D01*
X55928095Y-50174761D01*
X65571428Y-49180952D02*
X65571428Y-48419047D01*
X65952380Y-48800000D02*
X65190476Y-48800000D01*
X65571428Y-70180952D02*
X65571428Y-69419047D01*
M02*
